<?xml version="1.0" encoding="UTF-8"?>
<svg id="_レイヤー_2" data-name="レイヤー 2" xmlns="http://www.w3.org/2000/svg" viewBox="0 0 1020.24 110.59">
  <defs>
    <style>
      .cls-1 {
        fill: #fff;
      }
    </style>
  </defs>
  <g id="_レイヤー_1-2" data-name="レイヤー 1">
    <g>
      <path class="cls-1" d="M89.88,81.62c-.58,2.09-.93,2.56-1.4,3.61-1.4,1.63-.7,2.44-2.21,3.03-1.16,1.4-1.86,1.75-2.68,2.68-.93,1.51-2.21,1.28-3.26,1.98-.7.7-2.56,1.51-3.61,1.51-2.56,1.51-5.59.81-7.68,1.16-2.91,0-4.77.35-7.33-.93-1.63.23-5.24-1.51-6.63-2.68-1.28-.12-1.63-1.28-2.91-1.98-.7-1.05-1.16-1.4-2.68-2.44-.93-.35-1.51-2.33-2.33-2.79-1.4-1.4-1.28-2.09-1.86-3.14.12-1.16-1.28-1.63-1.4-3.49-.23-1.98-1.86-3.03-1.4-3.61-.12-1.63-1.63-3.26-2.56-2.91-1.51.23-2.33.93-2.56,2.33.35,2.44-1.05,3.96,0,5.12.23.81-.58,2.33.47,4.3.93,1.86-.23,3.03.35,3.61.23,1.4.58,4.19.58,5.12.7,2.33-1.28,4.77-2.44,5.47-1.16,1.05-4.31,2.56-5.59,2.33-1.75.35-3.49-.93-4.89-1.4-1.05-.35-4.07-1.63-4.77-2.09-1.86.35-2.91-.93-4.31-1.05-1.75,1.16-2.68,2.68-3.49,2.68-.58,1.16-2.21.7-4.07,1.28-1.16,0-4.89-1.05-5.93-2.21-2.56-1.86-3.37-2.68-3.14-5.24-.47-2.09.12-1.75,1.16-3.49.58-.7,1.4-1.16,3.03-1.28,1.05.12,1.16.7,2.56,0,.58-.23,1.63.35,1.86-.46,2.68-.47,2.56-1.75,4.19-2.56,2.21-1.05,1.75-2.33,3.37-2.79,2.09-.58,1.86-1.51,3.72-3.03,1.51.23,1.98-1.75,3.72-3.03,1.86-.93,3.26-2.33,3.72-4.19,0-.7-.47-3.03.12-5.12,1.51-2.21-.7-3.14,0-6.75.58-2.91-.47-3.14.12-6.17.93-1.4.7-1.98-.23-3.14-1.16-1.75-2.79-2.33-5.35-.81-2.79,1.63-4.65,1.51-7.1,1.86-2.56.46-3.49-1.63-5.24-2.21-1.98-1.16-2.21-2.44-3.84-4.07-.12-1.75-2.44-2.33-2.79-3.72-1.16-2.09-1.4-2.56-1.98-4.65-.23-1.63,1.63-2.21,2.56-.58.93,1.63,2.79,2.68,3.72,2.91,1.05.58,3.03,1.86,5.24,1.16,1.75-.23,4.07.23,6.75-.81,1.86,0,3.72-.93,4.42-1.75,1.86-.58,2.91-.93,3.61-1.63.81-1.75.81-3.26.47-4.42,1.05-1.4,0-2.68,0-3.96-.7-1.86,1.05-2.91-.12-5.35-.47-1.98.23-2.79-.35-5.12.35-1.86-1.16-2.91-1.63-3.96-.47-1.05-2.79-.12-3.03-1.86-.35-2.56,3.72-3.14,6.4-3.38,1.63-.12,1.86.58,3.49.81,1.05.12,2.44,1.28,3.61,1.98,1.16.47,1.86,1.86,2.79,2.79,1.28,1.16,1.28,1.98,1.16,3.37.23,1.63-1.28.58-.93,2.21-.7,1.16-1.28,2.68-.7,3.96.58,1.16,1.86.81,2.21,1.63,2.09.35,3.14,1.16,4.42.81.7-.7,1.51.58,1.63,0,4.31-1.05,5.35,1.98,5.35,3.14-.23,2.21-1.28,3.03-1.98,4.19-.81,1.86-3.14,2.33-4.54,4.19-1.51,1.63-2.21,2.68-4.77,3.26-2.44.81-3.37,2.68-3.72,3.72-1.4,1.75-.12,3.26-.93,4.77-.93,1.16.47,1.86.12,3.03-.23,1.86-.7,3.03-.23,4.66-.35,3.26.81,3.96.23,6.4.35.81-.23,1.63.12,2.56.35.93,1.28.93,2.68,1.16,1.28-.35,2.56-1.63,3.72-1.51,2.68.23,1.98-.81,2.68-1.05,2.44-.93,2.56-.93,3.84-1.51,2.33-.7,3.14-1.4,4.65-1.16,2.09.23,2.91-1.16,5.12-.93,2.33.35,3.03-.35,5.82-.35.7.58,2.56-.12,4.07.23,2.09-.47,2.44,1.05,4.31.81,1.63.46,2.56.35,4.31,1.28,1.63.46,2.79,1.86,3.96,1.86,1.86,1.4,2.33,1.98,3.37,2.44,1.28.58.81,2.44,2.79,3.03.47,1.16,1.75,2.09,1.75,3.84,1.05,1.28,0,3.03.7,4.42.81,2.44-.93,3.49-.47,4.07ZM28.09,83.71c0-1.05.23-1.98-.58-2.33-1.4-.58-1.05.7-1.98,1.16-1.16.58-1.28,1.86-2.21,2.33-1.16.93-.58,2.33-1.4,2.79-1.4,1.86-1.4,3.03-.12,3.49,2.09.12,2.68-.47,4.31-1.28,1.05-.35,1.75-1.28,2.09-3.03.12-.7-.12-1.75-.12-3.14ZM36.82,30.3c.47,1.51,1.51.81,2.33.58.7-.23.81-1.05.93-1.98-.23-.81-.35-1.75-1.51-2.21-1.05-.7-1.51.12-1.63,1.86.7,1.05-.47.93-.12,1.75ZM77.78,71.61c0-1.51-.23-2.56-1.16-4.31-1.28-1.16-1.75-1.86-3.26-2.33-1.28-.23-3.37-.93-4.31-1.16-.81-.7-1.86-.81-3.26-.12-2.56-.12-7.1.58-8.84.7-2.09,0-2.91.81-4.42,1.16-1.28-.12-2.44.35-3.37.93-1.28.46-3.37,1.63-4.65,2.33-1.4.93-.81,2.09-.12,3.72.81.35,1.63,3.26,3.26,5.58.7,1.4,1.86,1.4,2.44,2.33,1.16,2.21,3.26,2.68,5.82,3.49,2.33.93,4.42,1.4,6.63,1.28,1.86.46,4.54-.23,5.7-1.05,2.21-.58,3.37-1.05,4.89-2.79,2.33-.7,2.44-2.79,3.49-4.42.23-1.28.93-2.21,1.16-5.35ZM57.53,39.84c-.58-1.16.81-1.4,1.86-1.98,1.86-1.05,3.14-.7,5.35-1.75,2.21-.47,4.42,0,6.52-.81,1.75-.23,2.68,1.4,5.47.93,2.21-.35,3.37,1.86,5.47,2.56,1.75.58,2.56,2.56,4.19,4.07,1.16,1.05,1.4,3.49,1.63,5.35,0,1.75-.58,2.79-1.28,3.84-1.4,1.75-1.86,2.21-3.03,2.21-2.68.12-3.26-1.4-5.24-1.28-.7-.35-1.86-.46-3.26-.35-2.09-.12-4.19.23-7.8.7-1.86.7-2.09-.93-.81-1.28,1.98-1.05,2.91-1.16,4.42-2.21.7-.12,1.51-1.28,1.98-2.91-.12-1.4-1.16-2.21-1.4-3.14-.12-1.63-1.63-1.05-3.14-2.33-2.68-.7-4.31-1.4-5.82-1.51-2.44-.47-4.77.58-5.12-.12Z"/>
      <path class="cls-1" d="M117.28,64.28c-.7,1.75-.12,2.44,0,5.24.35,2.56-.81,3.72.12,5.7.23,1.98-.12,4.07,0,5.59-.12,2.44-.35,3.26,0,4.89.47,2.33,0,3.96.12,5,.47,2.44.23,3.61,0,4.89,0,2.21.7,3.61.12,4.89.35.7-.23,3.26-1.16,3.72-1.05,1.16-2.79,2.21-4.54,2.33-2.21.47-2.68.47-4.89.58-2.09.12-4.42-.46-4.42-3.72-.47-1.28,0-2.44-.12-3.72.35-1.51.35-2.44.35-3.96-.35-2.44,1.16-3.14.12-5.12-.47-.93.7-2.44.12-3.72-.35-2.56-.47-3.38.12-5.24.81-2.68-.47-3.26.23-5.35.58-3.14-.12-4.19,0-6.52.23-1.16-.12-4.19.12-5.47.23-1.75.35-3.03.12-4.54.47-2.21-.7-2.33.12-4.66-.7-1.86.23-5.58.12-7.33.23-2.44-.23-5.7-.12-7.8-.58-1.4,1.4-2.79.23-4.42-.81-1.05,1.28-1.98.12-4.42-.7-2.09-.35-4.54-.23-6.28-.23-3.26.58-5.12-.12-8.84-.35-2.79.23-4.65-.12-6.63-.35-1.05.23-2.21-.12-4.19.12-2.56,3.61-1.63,5.47-1.05,1.98.58,3.37.35,4.65,1.28,1.4.58,1.63.58,3.38,1.4,1.86.7,2.91,1.98,3.61,2.21,1.75.35,2.91.35,5.47.23,2.56.46,4.42-.47,5.12,0,1.4,0,2.44-1.63,3.61-3.38.93-.58,1.51-2.21,3.26-2.33,1.51-.12,1.86.7,3.03.93.47.35,2.33,1.28,3.96,2.44.58.7,1.75,1.51,3.49,2.91,1.16.81,1.51,1.05,1.51,2.56,0,1.28-.81,2.21-2.44,3.26-.93.58.23,4.07-.47,6.98-1.4,1.98.7,3.84.35,6.28.23,1.63.12,4.42.23,6.05-.7,2.56.35,3.49,0,6.28.35,2.21-.23,4.07-1.75,5.12-1.05.12-2.56,1.86-3.84,1.75-.7.58-2.33.58-4.19.58-1.98-.23-2.56.35-4.31-1.05-.81-1.16-.58-2.21-.58-3.37,0-1.51-1.4-1.63-3.61-1.75-3.03.12-6.17-.35-9.43.12-2.33-.12-2.91.7-2.79,2.21-.23,1.4-.58,3.26,0,3.96-.58,1.86.12,2.79,0,5,.23,1.98-1.16,3.72,0,5.12v5.35ZM130.31,39.72c2.33-.12,3.03-1.16,2.79-2.21-.12-1.28.7-2.09,0-3.72-.47-1.16,0-2.21,0-3.49.12-2.33-.7-3.26-2.79-3.14-2.33-.23-7.68.12-10.12,0-1.86,0-2.68-.47-2.79,1.98-.12.58.35,1.4,0,2.44-.47,1.28.47.93-.12,2.33-.7,1.63.47,2.44,0,3.49-.93,2.09.7,2.44,2.56,2.33,2.91-.12,7.68.46,10.47,0ZM117.4,21.8c0,1.86.47,2.79,2.33,2.79,2.33-.23,7.56.58,10.59,0,2.21-.35,2.44-1.05,2.79-2.33.7-2.21-.81-5.35,0-7.33-.12-2.33-1.4-3.26-3.26-3.26-1.51-.12-2.56.12-5,0-1.86-.12-3.37-.12-4.89,0-1.98.58-2.68,1.86-2.56,3.38.35,2.79-.47,4.89,0,6.75ZM172.79,86.85c-1.86,1.4-2.79,1.51-4.42,1.75-1.98,0-3.03.47-4.77.47-2.68.12-3.72-.12-4.42-2.33-.58-.7.23-1.4-.23-2.56.23-1.51-.81-1.63-2.56-1.75-2.91.12-4.77.12-10.01,0-1.4.12-3.03.35-3.37,1.86.23,1.4.35,2.44.23,4.19.12,1.63-3.14,3.84-4.54,3.84-2.44.35-3.84.35-6.05.58-3.14.35-3.72-.47-3.84-3.96.12-3.72.12-5,0-8.15s.58-5.24.23-8.15c.23-2.91-.12-4.19.12-6.75-.58-2.68.58-3.38,0-5.24-.81-2.68-.23-1.86-.23-4.89,0-1.16-.58-3.14,1.98-3.14,1.16,0,2.33-.23,4.65.47,2.33.7,3.37,1.05,5.35,1.63,1.86.7,2.56,1.98,3.96,2.09,2.44.12,4.07.35,6.17.23,1.98-.47,3.61.12,5.82,0,1.63,0,2.79-1.63,3.72-3.49.35-1.63,1.75-2.09,3.26-2.33,1.75-.23,2.56,1.16,4.07,1.51,1.51.23,1.98,1.28,3.61,2.44,1.28.82,1.63,1.75,3.03,2.09,1.4.81,2.21,1.98,1.98,3.03-.35,2.09-1.63,2.79-2.44,4.31.12,2.09.35,3.14-.23,4.65-.47,1.75.81,2.68,0,4.89-.93,1.75,1.05,2.33.35,3.72-.23,1.16.23,3.14.23,4.77,0,2.33-.47,3.03-1.63,4.19ZM159.17,77.08c-.23-1.51.93-2.21-.12-3.49,0-.93-.47-2.21.35-4.42.7-1.51-1.28-2.21-.12-3.96.93-1.51-.47-1.98-.12-2.91-.12-1.63-1.05-2.21-3.14-2.21-1.63,0-1.63-.58-3.14-.23-1.63,0-6.87-.35-8.38.12-2.21.7-1.75,2.21-1.98,3.72.23,2.09-.23,2.44.23,4.54-.23,2.79.47,5.82,0,7.91.35,2.79.58,3.49,3.03,3.37.58-.12,3.49-.12,5.7,0,1.86,0,3.84.12,4.65,0,1.05-.12,2.91.12,3.03-2.44ZM201.88,15.87c-.93,1.05-2.33,2.68-2.21,4.42-.35,2.09,1.16,4.07.35,5.7-1.4,2.56.7,3.03,0,5.93.35,2.91.23,5,.23,7.1.35,2.91.47,6.28.12,8.73.47,2.44.47,5.7.23,8.84-.47,2.56.7,5.12,0,6.63-.93,1.86.35,2.79-.12,5.35-1.16,2.56.12,3.84.35,5.93.47,3.61-1.16,5.59.23,7.91.23,2.56.35,6.75,0,9.89-.58,2.68.23,4.31-.47,6.52-1.05,2.79-1.28,3.84-2.79,5.7-1.28,1.05-2.33,2.44-3.03,2.68-.7,1.4-2.33,1.63-3.49,1.98-3.14,1.4-5.93,1.4-7.8,1.4-2.79,0-4.77-1.28-4.54-2.91.23-1.98-1.4-1.98-1.4-3.96-1.16-1.98-1.05-2.21-2.79-3.14-1.51-1.16-3.61-2.33-5.24-3.37-.93-.58-1.4-.7-1.4-1.51,0-.93,1.16-.7,2.09-.58,1.28.12,1.4.7,1.98.35.81.12,2.33,0,3.37.12,3.03-.23,5.24-.23,6.17-.93,2.21-.93,2.91-2.21,3.37-4.19,0-1.28,1.05-1.98.35-4.19-.35-1.63.47-3.61.12-5.47-.81-3.26,0-5.7,0-8.26-.23-1.63.58-2.79.12-4.77.58-1.05.58-3.37,0-4.65-.58-1.05,1.4-2.33,0-3.96-.35-2.33.47-4.89-.12-6.28-.35-1.75,0-4.65,0-7.68-.12-1.75-.7-2.09-2.91-2.56-3.03.23-6.63.23-10.47,0-1.16.23-2.44.93-2.56,1.63.35,1.28.23,2.33-.93,2.91-2.09,1.05-2.56,1.51-3.96,1.4-.93.7-3.61,1.05-4.89.46-3.14.35-3.84-.46-4.31-2.21-.58-1.63.12-2.56,0-3.96-.23-1.16.58-1.98,0-3.38.12-1.63-.7-2.21.12-3.96-.35-1.16-.7-2.21,0-3.72.81-1.4-.58-2.09,0-2.91.12-1.16-.58-2.91.12-3.72.35-2.09-.58-2.33-.12-4.42-.47-2.09.47-3.03,0-5-1.05-.81-.35-1.28-.23-3.37.12-1.86-.58-2.91.23-4.31.23-1.63-.35-2.09,0-3.26.35-1.16,1.75-.93,2.56-.81,2.09.35,3.26.12,6.87,1.75,1.4.12,3.14.81,4.65,1.98.81.58,1.63,1.51,3.61,1.51.93-.23,1.98-.23,4.65,0,1.16.58,3.49.12,4.89,0,1.75-.47,1.4-2.33,3.26-3.61.81-1.4,1.75-2.09,3.37-2.56,1.4-.35,1.51.12,3.37,1.05s3.14.81,4.65,2.44c1.86,1.51,3.37,2.44,4.19,3.26.81,1.16,1.63,1.51,1.75,2.91.23,1.98-1.05,2.44-1.63,3.14ZM169.41,18.31c-.58,1.51.47,2.33,0,3.96,0,1.28.81,2.09,2.91,2.33,3.37-.12,7.56,0,10.71-.23,1.86,0,2.33-.58,2.44-2.44.35-3.03-.81-4.31,0-7.21-.12-2.09-.58-2.91-2.33-2.79-2.21.12-3.37-.23-5.24-.23-2.09.12-4.54-.23-6.05.23-1.28,0-2.09,1.16-2.44,2.33-.12.93.58,2.44,0,4.07ZM185.35,37.16c-.7-2.09.47-1.63,0-3.37-.23-1.05.12-2.91,0-3.61,0-2.09-.81-2.91-3.03-2.79-3.26-.12-6.87-.46-10.01-.23-1.86,0-3.03-.12-2.91,1.86.23,2.68,0,6.28,0,8.61.35,1.98,1.16,2.09,3.03,2.21,3.84.12,6.75,0,10.24,0,1.98-.12,2.68,0,2.68-2.68Z"/>
      <path class="cls-1" d="M252.87,1.67c.12-2.21,2.68-1.86,4.89-1.05,1.05.93,2.21.81,4.19,1.05,1.4.35,3.49,1.05,4.19,1.16,2.09.81,3.49,1.51,4.19,1.28,1.4.47,3.37.81,3.49,2.68.47.93,0,1.4-.7,2.09-.47.58-.47,1.28.35,2.91,1.05,1.75,1.63,2.33,3.14,4.42,1.4,1.98,2.09,1.86,3.37,3.61,1.05,1.51,1.16,1.86,2.44,2.21.23.93,1.28,1.86,2.68,2.09,1.51,1.51,3.49,2.91,5.35,3.96,1.28.7,1.75,2.09,3.49,2.21,1.16.47,1.75,1.4,3.61,2.09,1.05,2.33,2.68,1.51,3.72,1.98,1.05.81,2.79,1.28,3.84,1.86,1.28,1.75,2.44,1.05,3.84,1.63,1.4,1.75,2.44.47,3.84,1.63.81,1.16,1.98.47,4.07,1.16,2.09.81,3.26.93,3.96,1.16.93.35,1.4.23,1.4.93,0,.58-.35.7-1.05,1.16-1.4.93-2.68,1.86-3.14,2.21-1.98.93-1.86,1.86-2.91,2.79-1.75.81-1.05,1.16-1.75,2.44-.7,1.63-1.51,2.44-2.09,3.84-.23,2.21-1.98,2.79-3.03,2.79-2.33.47-2.56-.81-4.89-.93-2.21-.7-3.37-.93-4.89-2.33-3.03-1.05-2.33-2.44-4.65-3.03-1.86-.47-.93-2.68-3.72-3.14-1.28-.47-3.03-3.03-3.96-3.96-1.16-2.33-2.68-1.98-3.49-4.31-1.16-1.4-2.91-2.56-3.14-4.65-.23-1.16-2.21-2.79-2.68-4.77-1.4-2.21-1.4-3.03-2.21-5-.93-2.21-.93-3.37-1.86-5.24-1.05-2.09-.81-3.72-1.86-6.4-.23-1.75-.35-3.14-1.28-2.91-.81.12-1.63.46-2.56,1.86-.81,2.21-1.86,3.14-2.79,4.07-.35,1.75-2.44,3.37-2.91,3.96-1.51,1.4-1.86,2.21-3.14,3.96-.93,1.28-2.79,3.14-3.14,3.72-1.75,1.16-3.03,3.14-3.37,3.61-.81,1.86-2.91,2.79-3.49,3.49-1.75,1.63-3.14,2.68-3.61,3.37-1.86,1.75-2.44,1.98-3.72,3.14-1.75,1.05-1.98,1.75-3.03,2.33-.81,1.51-1.4,2.33-3.03,2.33-.7.7-1.98,1.98-3.03,2.09-1.75.23-1.51,1.16-3.26,1.98-.81-.12-2.09,1.75-3.26,1.86-1.51,0-1.75,1.16-3.26,1.75-1.51.7-2.44.47-3.49,1.63-1.28.58-1.63.81-3.37,1.51-2.44,1.28-2.68,1.51-4.65,2.09-1.16.35-1.51.47-1.98-.12-.47-.7.47-1.28,1.28-1.86,1.16-.81,2.79-1.51,3.26-2.21,1.16-1.05,1.98-.46,2.44-2.21,1.16-.46,2.44-2.09,3.37-2.91,1.28-.35,1.4-1.28,3.26-3.03.93-1.75,2.09-1.16,3.14-3.14,1.16-1.4,1.63-1.4,2.91-3.37,1.75-1.75,2.33-2.79,2.91-3.38,1.05-.46,1.28-2.21,2.68-3.49.93-1.51,2.21-1.16,2.68-3.03.7-2.44,2.21-3.26,2.33-4.19,1.4-1.63,1.86-2.21,2.79-3.49.93-1.75,1.86-1.28,1.86-2.79.47-2.68,1.98-2.56,2.21-5.12.93-1.51,2.33-.7,1.86-3.37,1.16-1.98.81-2.44,2.21-4.54.47-1.51.7-2.21,1.86-4.07l1.28-2.09ZM299.76,74.52c-.47,1.28-.47,3.03-.47,4.19.35,1.86-.12,3.14.23,5.59-.35,3.37.58,4.65.35,8.03-.7,2.21-.35,3.14.23,6.05,0,1.63.58,1.98.23,3.49.35,2.44-.12,2.56-1.28,4.19-1.4,1.86-2.09,1.86-3.37,2.33-1.63.35-2.68,1.16-4.19,1.16-1.4.47-2.68.23-4.07.35-2.68.7-3.26,0-4.54-1.28-1.51-.81-.7-2.68-.81-4.31,0-1.4-.47-2.68-2.09-2.79-2.33.23-5.59-.12-7.33-.12-1.05.23-3.49.46-4.77,0-1.16,0-2.44.35-4.77,0-.93.23-3.26.46-4.77,0-1.51-.58-3.49,0-4.77,0-2.09-.58-4.42.81-6.52,0-1.75.12-2.79.23-3.03,1.75,0,1.51-.35,2.56-.93,3.26-.93,1.16-1.98,2.09-3.26,2.21-2.56,1.28-4.42,1.75-6.63,1.05-3.26.58-4.54-.93-4.77-4.54,0-2.68,1.05-3.49.12-4.42.23-1.28.12-3.38.12-4.77,1.51-2.68.12-3.03.23-6.05.35-2.91.47-5.58.12-8.84.35-3.37-.23-5,.12-8.73,0-3.03-.58-4.89-.23-7.56,0-.93-.35-2.09,1.05-2.44,1.86-.12,3.37.35,6.17.93,2.33.7,4.31,1.16,5.93,1.86,1.16-.23,1.28.46,3.37,1.28.7.93,1.75,1.51,3.37,1.63,2.09-.12,1.98,1.05,3.72-.23,2.68,0,9.08,0,10.94.12,3.49,0,5.24.12,8.49,0,2.91.23,4.07-.23,5,.12,3.49-.35,3.72-.93,5-2.09.7-1.75,1.4-2.44,2.09-2.91.58-1.05,1.16-1.86,2.91-1.98,1.51-.12,3.72.23,4.54,1.86,1.28.23,2.68,1.05,4.07,2.21.7.81,2.09,1.98,3.72,2.33,1.98,1.51,2.68,1.86,2.44,3.37.23,1.51-1.28,2.21-1.98,3.72ZM235.65,50.78c-1.05-.93.23-1.98,1.63-1.86,2.33.35,3.03.12,5.82.35,2.44,0,4.19.35,6.4.23,1.16,0,1.75,1.4,3.26,0,1.63.23,7.56.7,8.84,0,1.98,0,3.72,0,5.47-.23.93-.35,2.33-1.86,2.68-2.44.58-1.16,1.63-.46,1.28-1.75.81-1.28,1.63-1.98,1.98-2.91.81-1.63,1.63-2.68,3.26-2.21,1.63.23,1.75,1.05,3.14,1.28.7,1.16,2.79,2.33,3.72,2.79,1.16.82,1.63,2.09,3.14,3.49,1.51,1.28,1.16,1.98,1.4,3.03.23,1.16-1.98,2.09-3.26,1.75-1.63.23-3.26.35-5,0h-5c-2.21.23-3.26-.58-5,0-1.4.23-3.37,0-5,0-1.51-.23-4.07-.23-5.12,0-2.33.58-2.91.12-5,0-1.86-.12-2.79.35-5,0-1.05.46-2.79-.23-5,0-1.98.12-3.61.23-6.28.23-1.86.35-1.75-.58-2.33-1.75ZM282.31,85.46c-.12-2.68.47-4.54-.12-6.63.47-2.79-.35-4.07,0-5.58-.23-1.86-1.51-2.68-3.03-2.33-2.44-.12-4.77-.12-7.21-.23-3.49.35-6.28,0-8.61-.12-2.33.23-5.24,0-8.73,0-3.61.58-4.54.23-6.17.23-1.86.12-3.03.23-4.07,1.16-.81,1.4-.23,3.37-.23,5.7.23,3.03-1.4,4.3-.23,6.17,0,1.4.35,3.03,0,5-.58,2.09.23,4.77,0,7.45,0,1.75.47,2.33,2.44,2.44,2.79-.47,4.89.7,7.1,0,1.28-.47,2.79-.23,4.89,0,1.63-.7,2.44,0,4.77,0,1.98.7,3.84.23,4.89,0,1.75.12,3.03.35,4.77,0,1.63-.35,4.65.47,7.21,0,1.86.12,2.44-.58,2.21-2.79-.23-1.4.81-2.91.12-5.47-.7-1.75,1.16-4.07,0-5Z"/>
      <path class="cls-1" d="M374.69,45.54c2.09-.58,2.79-1.86,4.42-2.09,2.09-.23,3.26-1.28,5-2.09,2.91.35,1.86-1.63,3.26-1.63,2.44,0,3.61-2.33,3.03-3.49-.12-1.16.23-1.51.23-3.49.35-1.98.7-4.07.47-6.17-.23-1.63-.47-4.19-1.75-5.12-1.51-1.63-1.75-1.98-4.42-2.79-1.16-.7-.35-1.75.93-2.21,1.05-.35,3.49-.7,3.84-.7,2.33.23,1.86.93,3.84.47,1.63.58,2.33.47,3.96,1.63.58,1.28,1.75,1.05,3.14,2.56,1.05,1.4,2.21,2.56,1.51,3.96.23.81.23,2.68-.81,4.42-.7,1.16-.7,3.26-.47,4.31.23,1.63,3.49,1.75,4.54,1.75,2.56-.23,4.31.23,6.4.58.35.81,2.79.12,4.19,1.28.93.7,1.86,1.4,1.51,2.56.12,1.51-1.16,3.96-2.09,4.07-2.21,1.16-2.91.46-4.77,1.05-.7-.12-.58.35-1.51,0-1.86.35-3.96-.35-5.12,0-1.51.35-3.49,0-4.89.58-1.05.81-1.16,2.91-1.4,4.65-1.16,1.51.35,2.33-.58,3.84-1.51,2.68.12,3.61-.93,5-.81,1.28-.58,2.33-.58,3.14-.58,1.86-1.05,2.33-1.4,3.61-.93,1.16-.47,2.68-1.63,3.61-.35.58-.35,2.33-2.44,2.68-.47.58-2.56,1.75-3.61,1.05-.58.7-3.61-.81-4.65-2.21-.93-.23-1.28-1.05-2.79-2.33-1.51-.12-2.33-1.75-2.79-2.79-.35-1.05-1.4-2.56-2.68-3.03-1.28-.58-1.75-1.16-2.56-2.91-1.4-.35-1.98-1.4-2.44-2.68-1.05-1.16-1.98-1.05-2.79-.46-1.05.12-2.21,1.63-3.61,1.63-1.28.7-2.79,2.21-3.49,3.72l-.23,1.51c.7,2.44-.23,4.31.35,8.38.23,2.33-.23,3.96.23,5.12,1.05,1.86.35,2.44,1.28,3.84.47.58,1.98,3.14,3.84,3.03,2.33,1.63,3.37,1.4,5.59,1.51,2.68.35,3.61.93,5.93.47,1.05-.47,3.26.58,4.89,0,1.51-.47,3.14.58,4.77-.23,1.75-.81,2.44.58,4.65-.35,1.51-.46,2.21.23,4.07.12,1.51-.35,2.68.23,5.24.58,1.63.35,3.37,1.51,4.54,1.75,1.4.7,2.09,2.56,1.98,3.38.12.81-.35,2.44-1.4,3.26-1.51,1.51-2.79,2.21-3.49,2.68-2.09.35-5.35,1.63-7.21.81-1.98.81-4.42.58-5.82-.23-1.51-.93-2.33,0-4.07-.47-1.86-1.51-4.65-.47-6.52-1.16-1.86-1.75-2.33-.47-4.77-1.28-1.28-.58-4.42-.7-5.47-1.98-2.09-.7-3.14-.81-4.89-2.44-.93,0-3.72-1.86-4.19-2.91-.58-1.28-2.09-1.4-3.14-3.61-1.28-.81-1.63-2.21-2.21-4.42,0-1.98-1.51-3.96-1.28-4.89.35-2.44-.81-3.14-.81-5.59,0-1.51-.12-3.37-2.33-3.03-2.91,1.63-2.79,1.86-4.77,2.91-2.33,1.05-3.61,2.33-4.77,3.49-2.33,1.98-3.37,2.44-5.47,2.56-1.75.23-4.42-.58-5.82-1.63-1.63-1.51-3.38-1.51-4.65-3.84,0-1.28-1.4-.81-2.21-2.68-.81-1.86-1.51-3.37-.58-3.96,1.16-.7,1.75-.23,2.56.35,1.05.81,3.37.7,4.89.7,1.63.47,2.68-.7,5.24-.7,1.98-.46,2.68-.12,5.7-1.63,2.21-1.05,3.26.12,4.77-1.75,1.51-.7,4.89-1.16,5.47-2.79.47-2.33,1.05-2.56.35-4.65-1.16-1.98.58-3.26-.23-5.24-1.05-2.44-.7-3.61-.93-5.59,1.51-3.26-.7-3.26-.7-5.47,0-1.05-.23-3.72-1.4-5.35-.58-.93-2.09-1.28-4.07-2.33-2.09-.47-2.79-.12-3.03-1.28-.23-1.51,1.28-1.4,3.84-2.33,1.98-.7,3.03,0,4.77-.81,1.63-.35,2.68.46,3.96.58,1.51.12,2.44,1.28,3.96,1.75,1.51,1.16,1.86,1.98,3.03,2.91,1.05,1.63,1.16,1.98,1.16,3.84.58,1.16-.23,1.86,0,3.49.47,2.44-1.28,2.68-.23,4.89.58,1.98-.7,2.44-.12,4.31.12,2.91-.12,3.26,0,5.58.23,1.28,1.63,1.51,3.61.58,2.56-.81,5.82-2.91,7.91-3.72l4.19-1.98ZM387.72,50.08c.58-1.16.58-3.14-1.05-2.91-1.05.23-3.26,1.75-5,1.4-1.63-.35-2.21,1.63-3.37,1.51-2.09,0-2.33,1.05-3.61,1.51-1.86.7-2.33,1.28-3.14,1.98-.7.7-1.05,1.75.81,2.56,2.21,1.4,6.17,3.49,8.26,3.26,2.56-.23,3.03-.47,4.07-1.63.93-1.05,1.98-1.51,1.86-3.72,0-.7,1.51-2.44,1.16-3.96Z"/>
      <path class="cls-1" d="M452.28,56.83c.93.12.58,1.16.35,1.86-.35,1.05-.58,1.4-.7,2.33-.12.58-.46,1.28-.7,2.21-.81.93-.81,1.63-.7,2.09-.23,2.44-1.4,5.12-1.75,6.98.12,3.03-1.16,5.7-1.28,8.15-.35,3.03-.93,4.42-1.05,6.4-.23,2.79.47,3.96-.12,6.05-.47,1.4.35,1.75,0,3.14.12,1.16.7.7.58,1.75.7.58.23,1.28.35,2.21.12,1.75-.93,2.09-1.63,2.68-1.4,1.28-2.44,1.16-3.72,1.16-1.86.35-2.44-.35-3.72-.93-1.86-.47-2.68-1.4-3.03-2.33-.47-1.28-1.98-1.51-2.21-3.14-.7-.7-.47-2.21-1.63-3.49-.93-3.03-1.63-4.19-1.63-7.68.47-1.75-.47-5.12-.23-7.8,0-2.33-.23-3.84.35-6.17.93-2.33-.47-3.03.23-4.54.81-1.51-.47-1.75.47-3.49.23-1.51.47-2.44.58-4.77.81-2.44,0-2.91.7-5.24.35-1.63.12-3.84.7-5.24.47-1.75.58-2.68.7-5.24.93-1.05.47-2.68.7-5.12.81-1.28.12-4.3.35-6.28-.12-2.21,0-3.84-.35-6.75-.12-1.4-.58-1.98-.93-3.03-.35-.81-.93-1.98-1.51-3.03-.58-1.4.47-1.98,2.44-1.16,1.05.47,2.56,1.75,3.26,2.44.23,1.05.81.58,2.44,1.98,1.05,1.05,1.75,1.16,2.91,2.56,1.28,1.05,1.4,2.44,2.21,3.03,1.05,1.05.81,1.98.93,3.49.47,2.09-.47,3.26-.7,4.42-.58,1.98-.58,3.03-1.51,4.42-.93,1.28-.23,2.21-1.28,3.84-1.05,1.28.23,1.51-.81,3.26-1.16.58-.46,2.33-1.05,3.61-.47,1.63-.93,3.26-1.28,4.31-.81,3.38-1.16,5.24-1.4,7.68-1.05,3.14.23,5.58-.47,7.91-.35,1.4.12,4.89.58,7.45.93,2.91.7,5.59,2.68,5.35,1.05-.12.81-1.16,1.4-2.21.46-.58,1.05-.81.93-1.75.12-1.16.93-1.51.81-2.09-.12-.81,1.16-.81.7-2.21.23-1.05.93-1.05.93-2.09,0-1.28.7-.81.7-2.09.7-1.75,1.05-2.44,1.75-4.42,1.28-1.28.81-2.56,1.51-4.07.23-.58,1.28-3.49,1.86-4.65.23-.81.47-1.86,1.28-1.75ZM508.95,81.27c1.98.12,2.44,1.75,3.37,1.75.93.12,1.75,1.16,3.38,2.09,1.16.7.7,1.98,3.03,2.33.58.81,1.98,1.4,2.44,2.56,1.16,1.28,1.98,3.49,2.33,5.7.7.93-.7,2.56-1.28,3.49-1.75,1.51-3.49.7-4.42,1.4-2.09.7-3.84-.93-4.42-1.28-1.16-.93-3.14-1.51-3.49-3.14-.46-1.28-2.91-1.4-3.61-3.37-.81-.47-2.79-2.56-3.49-3.26-1.51-.58-3.03-.7-3.84.46-.82,2.21-2.09,1.63-2.91,2.91-.82,1.86-1.75,1.98-2.91,2.68-1.4,1.4-2.56,1.63-4.66,2.21-2.33.58-3.84.35-6.17.46-2.79-.23-3.61-.12-6.4-.93-2.56-.7-3.72-.7-5.7-3.03-1.16-.47-2.56-1.86-2.91-3.72-.47-.81-1.51-1.51-1.28-4.31.23-2.44,1.05-3.26,2.56-4.89,1.63-1.63,2.68-1.51,4.77-2.79,1.63-.93,4.07-1.51,7.1-1.86,3.03-.46,5.58-.35,7.33-.35,1.16,1.28,1.51-.12,3.72.23,1.05-.23,2.21-.93,2.56-1.98.81-2.68.12-2.68.12-4.54.7-1.16-.7-2.91-.12-5.35.12-1.63-.58-4.07-.23-5.35,1.16-1.98.23-2.56,0-4.19-.23-1.86,1.51-1.98-.12-3.26-.46-1.16.12-2.33-.35-3.84-.47-.7.47-2.09-.7-3.38-1.28-1.86-2.44-1.4-3.96-.23-1.05.7-3.26.81-4.31,1.63-.7.93-2.56,1.05-4.65,2.09-.7.35-1.98,1.63-3.61,2.21-1.28,1.05-2.68,3.14-5.12,2.79-2.79.46-3.14-.23-6.52-.7-.7,0-1.98-.7-2.79-.81-1.16-.12-3.26-.47-3.03-1.51.12-1.16,1.28-.93,2.33-1.28,1.51-.47,1.75-.81,3.61-1.28,1.28.35,1.98-.58,3.72-1.4.93-.46,2.33-1.05,3.38-1.63,1.63,0,2.68-1.51,3.61-1.86,2.44-1.05,3.84-2.21,5.7-2.79,1.98-1.28,3.14-1.75,5.35-3.03,1.75-.23,5.12-1.86,5.82-3.49.35-.81.7-2.09,0-2.33l-.12-1.75c-.12-.93.35-1.51-.12-2.44.23-1.16-.12-2.68.23-3.26.47-1.51-.23-2.44-.58-4.07-.23-1.98-.35-3.38-.93-5.82,0-1.98-2.09-2.91-3.96-2.56-1.16.23-1.63,0-2.79.23-1.51.35-3.14-.58-.81-2.44,1.16-.93,2.09-1.98,3.84-2.33,1.86-.58,4.31-.23,5.24-.12,2.21.12,1.51,1.16,2.68.58,1.98.35,3.49,1.51,4.65,1.86,2.68,1.98,2.09,3.38,2.56,4.89.58.81-.7,1.86-.23,2.79,1.05,1.51.12,1.75.12,3.26-.58,1.51.23,1.16,0,2.68-.47.81-.23,1.4,0,2.09.23,1.05.12,1.63.58,2.09,1.16,1.05,1.63.81,3.96.7,1.16-.12,1.16,1.28,2.68.47.93-.23,1.98.47,2.91.58,2.56,0,2.56.93,4.31.46,2.79,0,3.26.93,4.07,3.03.7,1.51.23,2.44-1.63,3.84-1.05.93-1.98,1.16-3.96,1.05-1.63.81-2.68.35-3.38.23-1.98-.35-2.79.47-4.07.47-1.16,0-1.16.7-2.21,1.16-1.4.93-.81,1.75-1.75,2.44-.58.58.35,1.75-.23,2.56-.35,1.51-.12,1.98.12,3.26,0,1.51-.58,1.63,0,2.79-.12,1.51-.7,1.63,0,2.79,0,1.63-.46,3.38.23,5.47,0,2.09-.47,4.42.12,5.59.58,2.44-.81,4.19,0,5.7.12,2.09-.23,4.89.35,6.98.23,1.86,1.16,3.14,2.21,3.26l2.68,1.63ZM489.98,84.99c.58-.81.12-3.14-1.86-3.37-1.28-.58-5-.35-6.28-.7-2.09.47-3.26.23-5.59.58-1.28.46-3.26.58-4.65,1.98-1.75,1.63-2.44,2.09-2.33,3.49.12,1.05,1.05,2.09,2.44,3.14,1.86.7,3.96,1.05,5,1.05,1.16.7,3.03-.35,5.12-.81,1.75-1.05,3.37-1.16,4.65-2.21,1.28-.7,2.68-1.75,3.49-3.14Z"/>
      <path class="cls-1" d="M602.74,73.59c.23,1.4-.35,4.65-.46,5.82-.23,2.33-.47,4.07-.35,6.05.12,1.51-.58,3.03-.23,4.54,0,1.4-.47,3.84-.35,6.52.23,2.33-1.28,1.63-3.61,1.63-2.21-.23-7.56-.7-9.66-.7-2.44.35-5-.46-6.52-.12-1.86.23-4.77.12-6.63.12-2.56-.12-4.77.58-6.4-.12-1.86-.23-5.24.35-7.8-.12-1.86.46-3.03.7-5.24.35-2.79-.58-4.65.93-6.4.12-3.03-.58-3.14.23-6.4.23-1.05-.58-2.44,0-3.84-.12-2.44-.23-3.61.58-5.93,0-3.14-.35-1.63-3.61.58-3.38,2.56.23,4.54-.12,7.1-.23.7-.12,3.03-.23,3.03-2.21.12-2.09.12-5.12.47-7.56-.58-1.86-.23-3.61,0-4.77.58-.81-.7-2.79,0-4.89.23-2.33-.47-3.26,0-4.89.7-1.28-.12-3.37,0-5,.35-1.16.23-3.14,0-4.89.12-1.75-.47-3.03,0-4.89.12-.93-.23-3.26,0-4.89-.58-.93.23-3.96,0-4.89.58-2.09.12-2.91,0-4.89.7-1.28.35-2.33,0-4.89.23-2.09-.35-3.26,0-4.89-.12-1.98.46-3.03,0-4.89,0-1.98-.35-3.61,0-6.4-.23-1.63-2.44-2.79-4.31-2.91-3.72-.12-7.21.82-8.15-.58-.23-.47-1.4-2.44,1.28-3.26,1.51-.35,3.03.35,4.3.12,1.86-.35,3.38-.23,4.77.12,2.44-.47,3.26.7,5.12,0,1.28-.35,3.14.46,5.24,0,2.09.23,3.03,0,5.24,0,1.86-.58,3.37.81,5.24,0,1.05,0,3.96.23,5.35,0,1.16-.23,1.98-.12,3.96-.12,1.28,0,2.09,3.84-.93,3.84-1.98,0-4.31-.12-6.4-.23-2.21.12-4.19,1.98-3.72,3.03-.12,1.51.12,4.07,0,6.28-.35,2.21-.58,3.37,0,4.77-.23,2.91.46,4.42-.23,5.7-1.51,1.86.93,3.03.23,3.96-.7,1.63-.35,4.07,0,4.89,0,1.51-.47,3.14,0,4.89-.23,2.21.35,2.68,0,4.77-.82,1.86.58,3.14,0,4.89-.35,2.33.35,2.56,0,4.77-1.63,2.09,0,2.79,0,4.89-.12,1.98-.23,3.96,0,4.89.7,2.09-.58,3.03,0,4.77.12,2.21-.93,2.91,0,4.77,0,3.03.23,5,0,7.21.35,1.4,2.68,2.79,4.54,2.44,2.79-.12,3.61,0,6.4,0,1.98-.12,4.77.23,6.63-.23,1.75,0,4.89-.81,6.87-1.16,1.51-.35,3.84-.7,6.05-2.79,1.4-1.16,3.72-2.21,4.42-5-.23-.93,1.51-3.14,1.51-3.96.82-1.51.35-2.79,1.05-4.07.35-1.05.12-2.09.58-3.14.46-.93.23-1.63.23-3.14-.12-3.26,3.61-2.21,3.72-.81.12,1.75-.58,2.56-.35,4.65Z"/>
      <path class="cls-1" d="M648.13,97.91c-2.91.12-4.19,0-5.93-.12-.93-.93-2.21,0-3.26,0-1.16,0-3.37-.12-5.47-.23-1.75.35-3.14-.81-5.12,0-1.86.81-2.91-.35-5.24,0-2.21.23-2.91-.12-4.89.12-2.44.82-2.33-.35-4.19.35-1.86.12-2.56,0-4.42,0-4.31,0-2.68-4.42-.58-3.72,2.68,0,4.54-.12,6.98-.12,1.86.12,3.49-.81,3.49-1.86-.12-2.68.23-5.24.23-7.68.35-1.4-.46-3.26,0-4.89.12-2.21-.12-2.44,0-4.89-.7-1.28.23-3.14,0-4.89-.58-1.75-.35-3.26,0-4.89.47-2.33,0-2.44,0-4.89-.7-1.16-.23-3.26,0-4.89.23-2.21-.46-2.68,0-4.89.12-2.21-.81-3.72,0-4.89,0-1.75-.12-3.37,0-5-.35-1.28-.7-3.61,0-4.89.35-1.4-.35-3.61,0-4.89-.23-2.21-.7-3.26-.23-5.59.23-2.68-.23-3.84-.23-5.47.35-1.98-1.16-2.79-2.68-3.03-3.03-.47-5.24-.12-7.21-.12-2.21.12-3.14-3.03-.81-3.49,1.98-.58,3.14,0,5.47,0,2.21-.35,3.37.23,4.42,0,1.4-.7,2.33.7,4.65-.12,1.28-.58,4.19.58,5.24,0,1.75-.35,2.91.23,5.12,0,.93-.35,3.49.7,5.24,0,2.33-.47,3.96.12,5.12,0,1.4-.35,2.33-.12,4.07,0,1.63.12,1.28,3.61-.23,3.61-2.33.12-5.24-.35-7.8-.35-1.75.12-2.79,1.05-2.91,2.44-.35,2.56-.23,5.12-.12,7.33-.35,1.16-1.28,3.38-.23,4.77.58.93-.7,2.91.12,4.65.12,2.33-1.05,2.33,0,4.77-.12,2.44.23,3.84,0,6.17-1.4,1.75-.23,2.09-.12,4.3.12,1.98-1.05,2.68.12,4.66.23,1.16-.58,2.79,0,4.89-.12,1.28.47,4.54,0,5.93-.58,1.4.35,3.26-.12,5.12-.47,1.98.7,1.98.35,3.61-.93,1.51.12,3.14,0,4.89-1.4,2.33.12,3.72,0,4.89-.23,1.98,0,5.47,0,7.33-.81,1.63,2.33,2.44,4.19,2.44,3.03,0,3.61-.46,6.28,0,1.86,0,2.09,3.72.7,3.49Z"/>
      <path class="cls-1" d="M723.59,33.21c-.58-2.33.7-4.07,0-6.63-.47-3.03.35-4.19,0-6.28-.7-2.21-.7-3.49-3.38-3.61-1.4-.12-2.79-.23-4.65-.12-1.4,0-3.14.12-4.19-.12-1.75.58-2.68-3.84.58-3.72,1.86.23,3.49-.23,6.52.23,2.68.46,4.42-.23,7.1,0,1.98.35,4.31-.12,6.75-.12,3.14,0,4.89.23,6.75-.12,2.33-.46,2.21,4.54.23,3.84-2.09.12-2.68.12-3.49,0-.81-.82-1.51.23-2.68,0-2.68.23-3.96.12-4.07.93-.35.81-1.4.58-1.16,3.03.46.81-.35.7,0,2.09.58,1.98-.35,2.21-.12,3.26.35,1.75-.93,2.33.12,3.72.23,1.75-1.05,2.56-.23,4.31.23.7-.12,3.37-.12,4.42-1.05.58,0,1.16,0,2.68-.12,2.09-.23,4.07,0,5,.58,2.21-.12,3.26-.12,5-.35,2.33.35,2.68,0,5-.23,1.51-.23,3.03,0,5,.58,2.56-.7,3.84-.12,5,.23,1.05-.47,3.38,0,5.12.7,1.98-.35,2.56,0,5-.47,2.33,0,3.37,0,4.89,0,1.16-1.16,2.33,0,3.96.23,2.09-.81,2.79.12,3.84.23,1.98.12,4.07.12,6.17.23,2.44-.58,3.26-1.86,2.91-2.68.35-3.38,0-6.4.12-1.51-.12-1.98-1.98-2.56-3.26-.7-2.09-1.75-2.68-1.86-3.61-.93-1.63-1.98-3.03-2.79-4.54-.93-1.4-1.28-1.86-2.09-3.38-1.75-1.16-1.75-3.37-3.61-5.58-.81-2.56-1.75-3.14-3.61-5.7.12-3.61-2.79-3.03-3.61-5.7-1.28-2.09-2.91-3.96-3.61-5.7-1.51-1.28-2.09-4.31-3.61-5.7-2.09-1.75-1.86-3.96-3.72-5.7-1.51-1.28-1.98-4.54-3.61-5.7-1.98-2.44-3.37-4.89-3.96-6.52.23-2.33-.81-1.86-2.21-3.38-1.4-1.28-2.21-3.49-3.26-4.89-1.28-1.75-2.79-2.91-3.72-.81-.47,1.05.12,4.07-.47,6.52,0,2.09.23,3.49,0,4.65,0,3.49.12,5.7,0,8.73.12,3.49-.35,5.12,0,8.73-.23,3.72.7,6.63,0,8.73-.23,2.91.7,6.87,0,9.77-.81,2.68,0,4.65.23,8.38-.23,3.49.47,5.12.12,7.21,0,3.26,1.4,3.38,3.72,3.61,2.33.12,2.68.35,4.54.12.81-.12,2.44.47,3.72.12.93-.23,2.91,2.79-.12,3.61-1.75.12-4.07-.12-5.59-.23-2.21-.12-3.61-1.16-4.54-.12-2.56.12-7.21.23-10.12.12-3.03,0-4.42.12-6.75,0-1.4-.12-2.09-2.91-.12-3.61,1.51-.58,2.91.58,6.05.12,2.56-.35,4.42-.7,4.54-3.38,0-2.33.58-6.4,0-9.19-.58-.81,0-3.14,0-4.54-.81-1.16,1.51-2.79,0-4.65-.46-1.05.35-2.56,0-4.66.7-2.09-.7-3.37,0-4.65.7-1.4-.35-3.14.12-4.65.35-.7.58-3.26,0-4.65-.58-3.72-.12-5.59,0-9.31-.23-1.4.35-3.26,0-4.65-.23-1.63.7-3.14,0-4.54-.12-1.86-.7-3.96,0-6.87.35-2.44-.46-6.05-.23-8.03-.23-1.98-.7-4.31-2.33-3.61-1.98.23-2.56-.12-3.84-.23-1.16-.23-2.56.35-3.84-.12-2.33-.12-2.33-2.68-.81-3.61,1.28-.93,2.44-.12,4.42-.12,1.05.12,1.75-.12,3.26.12,1.63-.35,3.84.46,6.28,0,2.44.23,3.84,0,6.4,0,.81.81,1.63.7,2.79-.12,2.91.46,4.54-.7,6.4.46,1.63,1.05.93,2.09,2.09,3.38,1.05,1.86,2.09,2.21,2.44,3.72.47,1.28.93,2.79,2.33,3.72,1.63,1.16,0,3.03,2.44,3.84,1.28.7,1.16,2.91,2.33,3.84.81,2.09,1.86,1.98,2.44,3.72,0,1.28,1.4,3.38,2.44,3.84.23,1.51,1.98,1.75,2.33,3.84.12,1.98,1.86,2.79,2.44,3.84.35.7.81,2.21,2.33,3.72.23.81,2.21,2.44,2.44,3.84,1.51,1.28,1.16,1.98,2.44,3.84.81,1.4,1.63,2.09,2.33,3.72.23,1.98,1.51,3.14,2.44,3.84.7.35,1.28,1.4,1.28,1.98,1.16,1.63,3.72,2.09,3.37-.93.35-.81.47-5.7.12-6.98-.58-1.4.47-3.72.12-6.63-.35-2.56-.35-3.84,0-6.75-.7-2.68.12-4.65,0-6.75l.12-6.75Z"/>
      <path class="cls-1" d="M780.61,93.37c1.51,0,3.84.7,6.05,0,2.44-.58,3.38.12,6.17-.35,2.68-.23,3.72.23,6.17-.93,2.33-1.16,3.03-1.51,5.82-1.98,1.28-.7,2.91-1.28,4.65-3.37,1.86-1.16,2.44-3.72,2.79-4.89.93-1.86,1.28-4.65,1.75-6.63.23-1.16-.12-2.33.58-3.84.81-1.63,3.14-1.4,3.61-.12.35.7.12,1.63.12,3.26.12,1.75-.7,2.44-.7,4.54,0,2.33-.7,4.07-.35,4.77.12,2.33-.7,2.68-.35,4.77.47,2.21-.47,2.79-.23,5.24.46,1.98-.23,4.54-2.21,4.19-2.09-.35-3.61.23-6.4-.23-2.91-.81-3.49.46-5.7-.35-1.75.7-5.12-.81-7.33-.12s-5.35-.23-6.98,0c-3.26-.47-5.7.47-7.8-.12-1.98.46-2.68-.35-4.77,0-2.09.58-3.03-.58-4.77,0-2.68.7-3.49.23-5.82,0-2.68.81-5.24.81-7.1.46-2.21.12-3.03.23-5.12,0-1.63.35-3.61.58-5.47.12-2.79,0-1.98-4.31.82-3.84,1.75-.12,3.96.12,6.52,0,1.75-.35,2.91-.58,3.26-2.21.35-1.86,0-3.49.12-6.4,1.63-2.21-.35-4.07.35-5.7.7-1.86-.23-3.14,0-4.89.58-1.75.47-3.84,0-4.89-.35-1.28,0-2.44,0-4.89.23-2.09-.46-3.38.35-5,1.51-1.28-.93-3.03-.12-4.77.46-1.05-.93-2.44-.23-4.77.23-1.4-.46-3.72,0-4.89,1.51-2.21-.58-3.72,0-4.89.58-1.75.7-3.26,0-4.89-.46-2.21,0-3.03,0-4.89,1.05-1.98-.58-2.56,0-4.89.23-1.63-.23-4.07-.23-5.82.35-1.4-1.75-3.26-3.61-3.37-1.16-.47-2.91.23-5.58-.12-1.4.23-2.79-.47-2.09-3.03.35-1.28,1.51-1.16,2.91-.7,2.09.12,3.37.7,5.58.12,1.16.12,1.4.81,2.79.12,2.21-.47,6.05-.12,9.19,0,2.21-.23,2.68.81,4.89,0,2.21-.35,2.91-.23,4.89,0,1.4.7,2.68-.47,5,0,1.75-.23,2.44.35,4.89-.12,2.33-.47,2.79-.12,5-.12.93.58,2.79-.7,4.89,0,1.28.46,3.26.12,4.89-.12,2.21-.12,3.03-.81,5.24-.12,2.79.7,4.07-1.28,5.82.12,1.05.93-.23,2.91.35,4.89s.23,2.91.23,5.12c.35,1.75-.7,2.21.23,3.84.35,2.44.47,3.26.47,5.12,0,1.4.47,2.68,0,3.61-.58,1.16-3.37,1.63-3.49-.47-.58-2.79-.58-3.84-1.05-5-1.05-2.33-.7-3.49-2.21-5.35-.35-1.05-1.51-3.14-3.26-3.84-1.86-1.16-3.38-1.86-5.59-2.21-1.98-1.16-3.61-.35-4.89-1.28-1.51-.12-3.26-.35-5.12-.23-2.21.23-3.03,0-5.59-.12-1.51-.12-2.21.81-3.37.23-.81-.35-1.51.47-2.56.93-1.16.23-1.98,1.75-1.75,3.96-.58,2.44-.12,5.82,0,7.91-1.05,1.05-.81,2.09,0,4.07-.12,1.16.47,2.33-.12,3.84-.7,1.75.35,2.21.23,2.79-.47,1.86.47,2.33-.12,3.37-1.05,1.98.23,2.79.12,3.61-.47,2.44,2.09,4.19,4.65,3.72,2.21.12,3.72.12,5.12-.58,1.05.12,3.49-.58,4.89-1.51,1.16-1.05,3.14-2.56,3.84-4.54,1.16-1.28.23-1.86,1.05-3.84.23-1.4,0-2.56.12-4.07.12-1.16,2.33-1.51,3.14-.7.93.93.58,1.86.35,2.79-.35,2.33-.12,3.49-.35,6.4-.47,2.91.12,4.07,0,6.98-.35,2.44.46,4.19,0,7.45,0,3.26.58,4.54.23,6.63-.12,1.05.58,2.21-.12,3.72-.7,1.16-3.49,1.28-3.49-1.05,0-2.68-.35-5.24-1.16-7.33-.81-1.28-.23-2.56-2.21-4.19-1.75-1.16-2.33-.81-4.07-1.86-1.4.12-3.03-.7-5.7-.58-1.16,0-3.03-.12-4.3-.12-1.63.12-1.63,1.4-1.98,2.21-.81,1.16.12,5.12,0,7.1-1.05,1.86-.47,3.61,0,4.77v4.89c-.7,1.4.7,3.37,0,4.89-.47,1.51.35,4.07,0,4.89.23,1.86-.23,5.47.47,7.33.35.93.81,2.21,2.44,2.33h2.44Z"/>
      <path class="cls-1" d="M907.62,95.93c-.35,2.44-.81,3.49-3.14,3.96-1.98.35-1.98-.58-2.91-.46-2.44.12-3.03-.93-5.47-.93-2.21,0-4.54-.47-6.05-.35-.7,0-2.56-.12-3.61.23-1.05.35-1.63-.12-2.68.23-.35.12-1.05-.47-1.75,0-.7.46-2.33.35-3.03.58-1.05.35-1.63-.35-.7-.93.35-.23,1.16-.35,1.51-.7.7-.46,1.16-.23,2.09-.93.81-.47,1.75-.35,2.44-1.4,1.28-.81,2.79-.58,2.44-2.56-.23-1.51-1.16-1.86-2.21-2.33-1.05-.47-1.98-.81-2.56-1.51-.81-.35-1.75-.35-2.44.35-.47,1.75-2.21,2.56-3.72,4.54-.58,1.05-1.16,1.16-2.68,2.33-.7.47-2.56,1.16-2.91,1.98-1.63,1.86-4.77,2.56-6.4,2.68-2.91,1.16-5.47,1.4-7.33.93-1.28.46-3.14.12-4.89-.35-1.16-1.05-1.4-.12-3.61-1.16-1.98-.93-4.42-2.68-5.24-4.19-.7-1.51-2.79-3.84-2.33-5.93-.12-1.28.7-2.79,2.09-4.77.7-.81,2.79-2.79,4.19-3.14,1.63-1.05,2.21-1.05,4.42-2.09,1.05-.47,3.03-1.05,4.66-1.4,1.63-.23,2.44.12,4.77-.81.93-.12,2.33.46,4.77-.23.93,0,4.07.23,5.12.35,1.05,0,1.75-.47,1.63-1.75,0-.93.93-1.98.35-3.03-.58-1.16.35-1.51-.23-3.26,0-.58,0-1.4.23-1.98.93-.93-.7-2.33-.35-3.03.23-1.28.35-1.51-.35-2.09-.81-.7-1.86-1.05-2.68-.47-.81.23-2.21.47-3.14.7-.7-.7-1.16.23-1.98.47-1.98.81-2.79.23-4.07,1.05-3.14.93-3.61.23-4.42.47-1.86.12-3.96-1.28-5.24-1.98-1.75-1.05-2.91-3.38-3.03-5.24,0-1.51.58-2.91,1.63-4.07.7-.7,1.05-1.86,2.91-3.61,1.05-1.4,1.98-2.33,3.72-3.96.58-.58,1.75-1.16,2.44-2.21,1.16-1.4,1.75-.93,2.44-2.56.46-.35,1.05-.7,1.98-1.98.47-.58-.12-1.51-.81-1.28-.81.23-1.75.23-2.21.7-.7.35-1.4.47-2.21.82-1.51,0-1.63.46-2.68.7-1.05-.12-2.09.12-3.49,1.05-.81.35-1.63.7-2.91,1.05-1.4,0-1.16.7-2.44.81-1.51.12-.47.7-1.98.7-1.16.12-1.75.93-3.84.93-1.4,0-1.98-.23-3.37-.82-1.75-.12-2.79-.81-4.19-2.09-1.98-.81-5.24-3.03-5-4.19.23-.93.81-.93,1.4-.58,1.86.35,2.33.23,3.61.23,2.09,0,3.49,0,4.42-.23.7.12,2.91-.23,4.31-.7,1.63.35,2.56,0,3.49-.81,1.75-.46,3.72-.81,5.12-1.63,1.4-.23,3.38-1.05,6.05-2.09,2.56-.46,3.84-1.16,5.24-1.86,1.05-.93,2.56.23,3.72-.93,1.16-1.05,2.21.12,2.91-.81,1.05-1.05,2.79-.81,3.72-2.21.35-.81.23-1.75.23-2.79.12-1.05,1.28-1.51,0-3.03-.23-1.16.35-2.33-.47-3.72-.7-1.16.58-1.86-.58-2.91-1.4-2.44-2.44-2.09-4.77-2.56-.93-.23-2.79.7-2.68-.7.12-1.28,1.16-1.4,2.79-2.33,2.21-1.28,4.31-1.51,6.75-1.75,1.28-.12,4.89,1.51,6.17,2.09,2.09,1.16,3.72,3.37,3.49,5.12.12,1.28-.35,1.51-.47,2.68-.7,1.16.12,1.4-.58,2.68-.7,1.16.58,1.63-.12,2.91-.7,1.28.93,1.75,1.51,2.21.58.35,1.05.12,2.33.23,1.05.12,1.4.7,2.56.47,1.05-.23,1.51.81,2.56.93,1.51.12,3.26,2.09,3.03,3.61-.35,1.63-1.05,1.98-1.63,2.56-1.4,1.05-2.21,1.05-3.49,1.86-1.98.12-4.07.93-5,1.16-2.09.58-2.33,1.28-2.33,2.79-.12,1.63,0,1.51-.12,2.68-.58.93.35.93.12,2.21-.93,1.28.12,1.86.12,2.91-.47.93.58,1.16.12,1.75-.58.81.12,1.28.12,2.33.93,1.05,1.63.58,2.91,0,.58-.7,1.16-.7,1.63-1.28.35-.47-.23-1.4-.35-2.09-.23-.93-1.05-2.33-2.09-3.72-.7-.93-1.75-1.86-.93-2.33.81-.46.81.23,1.86.81.58.35.47,1.4,1.75,1.16,1.05.58,2.68,1.4,3.84,1.98,2.21.47,3.26,1.16,5.12.82,1.05-.35,1.75.46,2.33-.12,2.79-.23,4.77,2.09,5,3.96.12,1.05-.35,2.09-1.63,3.03-.81,1.75-1.75,1.28-3.72,2.56-1.4,1.4-2.91.7-4.19,1.98-1.86,1.16-2.56,1.05-3.26,1.16-1.86.23-1.75.93-2.91,1.05-1.05-.12-1.4.93-3.03,1.28-1.28.46-1.16,1.4-1.4,1.98-.35.93.23,1.28-.12,2.09-.35.93.7,1.51.35,2.56-.93,3.26.23,3.61,0,5-.23,1.51.7,1.63.12,3.14-.47,1.75.12,2.33.12,3.38,0,1.28,1.4,1.86,2.79,2.21,1.51.35,2.68,1.28,4.77,1.75,1.28,1.05,2.21.35,4.07,1.28,1.28,1.98,3.96,1.63,5.35,2.56.47,1.28,2.33,1.16,3.84,2.68,1.05,1.16,2.68,1.86,3.14,3.38.47,1.16,1.75,2.33,1.4,4.19ZM867.71,83.71c-1.63-.47-3.49-.47-5.82-.7-1.28-.23-3.14.35-5.59.12-1.63-.81-1.4.35-3.26.35-2.68.7-5.93,1.86-6.98,2.68-1.16.81-1.98,1.86-1.86,3.84.12,2.44,1.05,3.14,2.79,4.07,1.98,1.05,3.03,1.05,4.19.93.82.58,3.38,0,4.66-.47,1.28-.35,3.61-.35,4.54-1.28,2.44-.82,3.49-1.63,4.19-2.33,1.75-.7,2.09-1.51,3.38-3.26.81-1.16,1.28-1.28,1.51-1.98.47-.7-.47-1.63-1.75-1.98ZM871.9,49.38c.12-.47-.23-1.28.12-1.86.7-1.16-.7-1.86,0-3.14.82-1.63-.58-2.68-.23-4.07-.47-2.68-1.16-2.21-2.79-1.63-2.68,1.16-5,3.14-6.75,4.31-.81,0-1.28,1.28-2.79,2.09-1.28,1.51-2.79,2.68-3.38,3.26-1.16.93-1.51,1.75-2.91,3.49-1.28,1.63-.93,1.98-1.05,2.56-.35,2.33,2.09,2.79,3.49,2.91,1.05-.12,2.56.35,4.07-.35,1.28-.12,1.98-.12,4.31-.93,1.75,0,3.49-.58,5.12-1.4.93-.35,2.33-.23,2.91-1.63,0-.81-.46-1.63-.12-3.61Z"/>
      <path class="cls-1" d="M966.79,39.26c-1.16,1.05-1.86,1.98-1.98,3.03-.58,1.98-1.51,2.56-1.63,3.26-.47,1.98-.7,1.86-1.16,3.49-1.16,3.14-1.28,4.89-1.05,7.45-.7,1.51-.23,3.72.35,4.42.23,1.28.12,2.68,1.05,4.19.12,1.98,1.28,2.21,1.51,3.96-.12,1.51,1.98,2.44,2.21,3.72.46,1.86,1.98,1.63,2.56,3.38.12.58,1.4,1.86,3.03,3.03,1.05,1.4,1.98,2.68,3.49,2.79,1.86,1.4,1.75,1.51,3.61,2.33,3.26,1.86,4.77,2.09,6.28,2.91,1.86.47,4.42,1.98,6.4,2.44,1.51,1.05,2.68.7,3.26,1.28,1.75.58,1.75.7,3.14,2.09,1.05.93,2.09,1.28,2.56,2.56.12,1.75,1.05,2.68,1.05,3.37,0,2.44-1.28,3.14-1.98,3.84-1.28,1.28-2.68,2.09-4.19,1.4-1.63.58-3.14-.35-4.89-.46-1.51.35-3.61-1.28-4.77-1.05-1.86.23-2.44-.35-4.65-1.86-1.75-.47-2.33-1.4-4.42-2.33-2.21-1.05-4.07-2.09-5.12-3.38-.23-2.09-2.21-1.4-2.79-2.56-1.51-.93-2.09-1.75-3.49-3.61-.23-1.63-1.75-1.28-3.03-3.72-1.05-2.21-2.33-2.44-3.03-4.89-.93-1.75-1.63-3.26-2.33-5.24-.7-1.98-1.4-3.72-1.4-5.58.23-2.56-.46-3.03-.46-5.7s-.12-4.42.7-7.21c.7-2.21.93-3.72,1.63-6.05.58-1.4,1.75-1.4,1.4-3.37-.23-1.51,1.28-2.21,1.63-4.42.35-.93.35-1.75,1.75-3.26,1.4-.58,1.16-2.09,1.98-2.91.7-.23,1.16-1.98,1.86-2.68.58-2.09-2.44-1.86-3.96-.7-.93-.12-1.98,1.05-3.61,1.63-2.21.47-2.56,1.86-3.61,1.63-2.33,1.16-4.3,3.03-5.93,3.38-1.63.58-1.63,1.51-2.91,1.86-.7.81-1.4,1.63-2.33,2.21-1.51.23-1.4,1.4-3.14,1.98-1.63.23-.81,1.16-2.79,1.86-1.28.82-1.98,1.51-4.3.93-2.09.7-4.07-.47-6.87-2.09-.58-1.51-1.98-1.05-3.14-2.09-1.51-1.16-2.21-1.05-3.03-2.21-.47-1.51-1.98-1.4-2.68-2.68-.23-.58-1.98-2.33-1.63-3.14.58-1.28,2.09-1.05,2.79-.23.93.7,1.86.12,2.91.58.7.46,2.33,1.05,4.07.23,2.33.35,3.38.47,4.54,0,1.75-.7,3.72-1.05,5.59-1.4,1.28-.81,2.44-.7,3.49-1.51.81-.7,3.37-.81,4.3-1.63.82-.12,3.03-.58,3.96-1.75,1.28-.81,2.09-.23,3.96-1.63,1.75-1.28,2.21-.58,3.96-1.75,1.63.23,3.14-1.4,3.84-1.75,1.63-.7,3.03-.58,3.96-1.86.93-.93,2.21-.58,3.84-1.86,1.16-.7,2.68-1.4,3.84-1.98,2.44-.93,3.03-1.51,3.61-1.63,1.63.35,2.09-.81,2.91-1.63.93-.7,1.4-.23,2.21-1.51.58-.93,1.98-1.16,3.26-.93,1.28,0,3.49.12,4.19-.12,2.44-.23,4.07.7,6.75,1.51,1.75.81,2.33.93,3.61,2.09.7.35,1.28,2.56,1.51,3.26.58,1.63-.81,3.26-3.14,3.96-1.86,1.51-3.84.81-5.59,1.16-2.21-.35-3.49,1.05-4.42.82-1.28-.23-2.33.81-3.84,1.28-1.28.35-2.56,1.05-3.61,1.63-1.51,1.05-2.33.58-2.79,1.75-1.4,1.28-2.09,1.4-3.72,2.79-1.63.58-2.09.93-2.68,2.21l-2.44,2.68ZM1006.36,9.24c.93.12,1.16.7,1.98,1.63s2.21,1.98,1.86,3.96c-.23,2.21-1.16,4.07-4.19,4.07-1.4.12-2.33-1.4-2.79-2.21-1.28-2.09-1.63-3.49-3.14-4.89-.81-1.05-1.63-1.51-3.03-2.79-1.51-1.16-.7-2.09.58-1.86,1.16,0,1.98.58,3.61.47,1.28-.12,1.51.93,3.14.81.81,0,.47.7,1.98.81ZM1016.13,13.54c-2.09.46-2.91-1.63-4.31-4.19-.12-1.98-1.4-.93-1.98-2.44-.46-.58-1.05-1.16-1.75-1.75-.12-1.05-1.4-.93-2.09-1.28-1.98-.82-2.21-2.09-.46-2.09,1.28-.12,1.63.12,3.72.12,1.51.12,1.51.81,3.03.93,1.28.12,1.28,1.05,3.03.93,1.05-.12,1.51.58,3.03,1.86.93,1.16,1.98,1.51,1.86,3.84.35,2.79-1.75,3.96-4.07,4.07Z"/>
    </g>
  </g>
</svg>