<?xml version="1.0" encoding="UTF-8"?>
<svg id="_レイヤー_2" data-name="レイヤー 2" xmlns="http://www.w3.org/2000/svg" viewBox="0 0 467.44 151.52">
  <defs>
    <style>
      .cls-1 {
        fill: #fff;
      }

      .cls-2 {
        fill: none;
        stroke: #fff;
        stroke-miterlimit: 10;
        stroke-width: 2px;
      }
    </style>
  </defs>
  <g id="_レイヤー_1-2" data-name="レイヤー 1">
    <g>
      <g>
        <path class="cls-1" d="M190.98,66.49c-.67.17-2.34-.45-2.17-1.56.11-.72-.17-1.84-.33-2.84-.39-.67-.56-1.62-.95-2.12-.22-.28-.45-.5-.33-.67.17-.22.45-.17.83-.17.5,0,1.17.5,1.62.45.39-.11,1.56.39,2.06.61.67.33,1.11.95,1.56,1.28.56.72.67,1.62.72,2.17.22-.56.45-1.11.72-1.39,0-.61.67-2.28,1.11-3.17.17-.78,0-1.23-1.06-1.34-1.45-.11-3.51.22-4.62.06-.89.17-1.67.11-2.12.22-.56.11-1.17-.39-1.28-1.11-.22-.67.67-.95,1-.78,1.28.11,1.84.06,2.67.17,1.23.06,1.56.06,2.56.06.95,0,1.67.17,2.84,0,.67-.11.78-.5,1.11-1.45-.22-.56.56-1.56.39-2.45.45-1.23.17-1.39.33-2.34.22-.5.06-1.34.61-1.5,1-.28,1.62.11,2.17.17.78.11,1.23.33,2.51.5,1.17.33,2,.5,2.67.84.72.5,1.06.5,1.17,1.22.11.95-1.11,1.23-1.34,1.67-.56.22-.84,1.67-1.5,2.34-.39.95.06,1,1,1.06,1.17.06,3.79.06,4.85,0,.95.06.89-.45,1.17-.78.28-.5.78-1.45,1.56-2.17.78-.5.78-1.34,1.78-1.28.39.06.61-.06,1.45.5.83.56,1.5.61,1.84,1.28.61.72,1.11,1.11,1.61,1.5.39.56.72.61.72,1.34,0,1.23-2.39.84-3.12.95-1.17-.67-.95-.06-2.12,0-1.11-.17-2.23-.06-3.23-.06-.84.06-3.95.11-4.9.06-1.28-.06-1.67.17-1.56.67.28.61.72,1.62,1.39,2.28.33.45.67,1.17,1.34,1.39.78.67,1.23.95,2,0,.39-.67.56-1.22,1.11-2.23.67-1,.72-1.78,1.67-1.56.78.06.61.33,1.73.67.72.22,1.28.45,2.4,1,1.06.56,1.61.56,1.78,1.89-.17.89-1.45,1.56-2.34,1.34-.56.28-1.23.33-1.62.61-.67.28-1.17.5-1.78.67-.89.5-.61.78.17,1.22.39.28.67,1.06,1.34.78.39-.17.33.45,1.06.45.39,0,.89.17,1,.28.89.33,1.39.45,1.84.5.67.11,1.23.39,2.4.61.11.17.45.11.78.17.45.11.95.11.95.39,0,.22-.17.28-.61.5-.33.17-.72.5-.95.78-.61.17-.33.61-.84.89-.56,1.11-.56,1.39-.89,2.28-.45.17-.5.95-.56,1.34-.11.28-.22.78-.95.56-.78.28-1.95-.33-2.23-.5-1.06-.45-1.84-.45-1.78.78.17.33.33,1.11.06,1.56-.28.5.39.56.22,1.28-.17.56.22.95,0,1.61-.17.56.22.61.17,1.5.22,1.23-.95,2.06-1.78,2.28-.84.45-1.89.78-3.12.61-.89.33-1.95-.39-1.95-1.06s-.45-.61-.84-.39c-.45.33-.61.78-.56,1.28,0,.67.28,1.67-.06,2.12.33.78-.45,1.11.06,1.95.11.72-.22,1.34.22,2.12.28.72-.45.89-.06,1.73.17.72-.11,1.34.11,2.28.11.72.11,1.45-.33,1.89.06.83-.33,1.17-1.11,1.78-.61.5-1.39.95-2.28,1.22-1.23.56-2,.45-3.06.39-1.45.28-2.34-.56-2.45-1.34.06-.39-.11-.89-.22-1.34-.39-.78-.22-1.11-.89-1.39-.45-.45-1-.72-1.89-1.22-.28-.17-.72-.33-.45-.67.22-.22.45-.11.84-.06,1,.17,2.56.22,3.17.22,1,.11,1.5-.06,1.78-.67.33-.72,0-1.45.33-2-.11-.95.06-1.95,0-3.23,0-1.28-.17-2,0-2.56-.06-.56,0-1.28.06-1.61-.17-.78-.33-1.11-1.11-1.23-.89.06-1.11.17-1.28.61-.22.67-.83.84-1.73,1.06-.5.17-1.62.11-2.06.11-.67.06-2.17-.28-2-1-.28-1.22-.06-1.62-.06-2.23.11-.39.06-1.11.22-1.39.45-.78-.22-.89,0-1.34.06-.5-.22-1,0-1.62.11-.67-.22-.61,0-1.23.39-.61-.06-.95,0-1.73,0-1-.33-1-1.28-.5-.72.61-1.78.89-2.67,1.62-.95.45-1.45,1.11-1.39,2.51.28,1.28-.06,3.9,0,5.18-.22,1.28,0,2.23.06,3.62-.33,1.28.06,2.06.11,3.34,0,.95.11,1.5-.67,2.39-.61.78-1.34.78-1.84.89-.72.11-2.17.5-2.84.17-.95-.22-1.06-.78-.95-1.45,0-.33-.17-.67-1-.83-.61.22-1.34.11-1.84,0-.67,0-1,.39-.89.89-.06.89.11,1.56-.11,1.89,0,.84-.39,1.5-1.11,1.73-.72.72-1.23.61-2.45.72-1.34.11-2.62-.22-2.45-1.61-.06-1.11.22-1.28,0-1.78.11-.84-.17-1.23.06-1.78.33-.78-.17-1.73.06-2.84.28-1-.39-1.89.06-2.39.22-.78.11-2.01,0-2.45.06-.95-.06-2.56.06-3.84.33-.95,0-2,0-2.56.11-.67.22-1.56.06-2.62.17-1.34-.39-2.45,0-3.29.45-1.06-.33-2.06.06-3.34.06-1.11-.22-2.06,0-3.23-.22-.84.17-2.34.06-3.51.11-.89.11-1.5-.06-2.23.22-1.11-.33-1.11,0-2.23.28-.33-.67-1.62-.06-2.17.11-.72-.28-1.23-.06-2.12.17-.56.45-.67.89-.78.95.11,1.17.22,2.28.56.95.33,2.28,1.06,3.12,1.67.56-.06,1.5.11,2.28.06.61.11,1.11-.33,1.62-1.11.5-.56.33-.95,1.56-1.28.17-.22,1.89.61,3.01,1.45.84.11.84.78,1.62,1.34.45.28.72,1.06.61,1.45.06.56-1.5,1.11-1.39,2.12-.11,1.39.33,2.17,0,3.68-.33.89.11,1.67.06,2.56.17.89-.78.89-.06,1.89.06.67.28,1.45,0,2.23-.06,1.17.11,1.84,0,2.23-.22.83.33,1.62.11,2.39.06,1.28.17,1.62,1.11.95.56-.56,1.89-1.56,2.56-2.45.45-.67.95-1.22,1.5-1.95.56-.5.61-1.11,1.28-2.06.17-.22.45-.56.67-.95-.72.5-1.45.33-2.12.5ZM180.18,58.19c.28-.83-.22-1.45-.17-2.12-.11-.78-.33-1.06-.95-1.23-1.11-.06-1.56-.06-2.23-.06-.61.17-.56.89-.72,1.62-.06.72.45,1.5,0,2.06-.45.56.17,1.28-.11,2-.33.5.39,1.39-.06,2.12-.45.67.17.72.17,1.06-.11,1.17.11,1.62,1,1.45.72.28,1.23.06,1.95.17.78.06,1.11-.61.89-1.5.17-.45-.28-1.39.11-2.17.33-.67-.28-.5,0-1.23.11-.45-.17-1.34.11-2.17ZM179.06,77.96c-.72.11-1.23.06-1.84.11-1.06.11-1.11.45-1.17,1.28-.28,1.11,0,2.9,0,4.29s.11,3.23.06,4.84c0,.95.56.95.95.89.78.06,1.17.11,2.12-.11.56,0,.78-.28.84-1.28-.17-.56.39-.95.06-1.89-.22-.67,0-1.84,0-2.45-.17-1,.67-1,.06-1.84-.33-.45-.17-2-.06-2.39-.06-1-.22-1.23-1-1.45ZM180.12,75.51c-.33-1,.22-1.62,0-2.45-.17-.61,0-1.06,0-1.45.5-.61-.39-1.06,0-1.89.28-.61,0-1.34,0-2-.28-.5-.11-1.23-1.06-1.28-.67.28-1.56-.06-2.28,0-.45.22-.67.39-.72,1.28-.22,1.39.17,3.01,0,3.9,0,1-.06,2.67,0,3.9.11.5.17,1.23,1,1.28.28,0,1.56-.06,2.28,0,.5.17.61-.22.78-1.28ZM194.32,91.44c-.39.33-.67.33-1.39,1-.84.22-1.11.67-1.28.95-1.06.72-1.67,1.06-2.28,1.39-1.23.67-1.62,1.06-2.73,1.56-1.39.61-2.4,1.34-3.29,1.62-1.39.45-1.95.67-2.17.28-.22-.39.5-.61,1.34-1.23.72-.5,1.06-.95,1.84-1.34.45-.28.67-.89,1.23-1.17.78-.22.95-.95,1.17-1.28.56-.67.84-1,1.28-1.78.45-.28.45-1.17,1.06-1.67.45-.45.45-.89.78-1.45.33-.67.67-.56.72-1.34-.17-.45.45-1.06.67-1.95.11-.78.95-.45,1.84-.06.84.06,1.11.56,2.17.89.89.33,1.39.72,1.95,1.11.84.56.72.67.89,1.23.17.61-.28,1-1,1-.78.06-1.28.67-1.5,1.06-.78.39-.56.95-1.28,1.17ZM206.86,77.63c0-.95-.5-1.17-1.11-1.23-.84-.06-2.34-.06-3.73,0-.95-.28-3.23.17-4.18,0-.61.11-.84.39-.84,1.28-.28.78.11,1.78-.06,2.56,0,.78.45,1.22,1.28,1.17,1.45-.06,2.95.39,3.79,0,.78,0,2.95.06,3.73,0s1.28-.17,1.23-.95c-.06-.78.22-2.17-.11-2.84ZM197,73.73c.06,1.11.39,1.39,1.23,1.39h3.79c.72,0,2.34.17,3.73,0,.72,0,1.11-.22,1.28-1.28-.22-1.06-.17-1.62,0-2.34-.17-.95-.28-1.34-1.17-1.34h-3.62c-.5-.06-.84-.61-1.28-.06-1.23,0-2.73-.06-3.56.28-.33.39-.56.84-.33,1.45,0,.83,0,1.23-.06,1.89ZM206.58,66.82c-.5-.45-.84-1.23-1-1.78-.45-.67-.39-1.17-.78-1.89-.39-.61-.61-1.56-.56-2-.22-.45-.39-1-.33-1.78-.17-.67-.06-1.34-.67-1.39-.45-.06-.67.72-1.11,1.67-.28,1.06-1.73,2.84-1.89,3.4-.67.5-.5,1.23-1.06,1.78-.56.33-1.11,1.73-1.39,1.89-.56.56-1,1.28.06,1.78.61.61.72.39,1.39.45,1.06-.06,1.5.06,3.06,0h2.56c.67,0,1.45.06,1.67-.45.56-.5.5-.89.06-1.67ZM218.94,90.27c.72,1.11.72,1.95.89,2.9-.33,1.23-.67,2.34-1.17,2.84-.72.67-1.73,1-2.84,1.11-.67,0-1-.17-1.73-.39-.45.06-1.45-.89-1.5-1.73-.06-.56-.78-.89-.5-1.23-.33-.67,0-1.17-.33-1.28-.39-.56-.5-.72-.95-1.78-.11-.83-.5-1.22-.78-1.67-.72-.33-.84-1.45-1.39-1.73-.78-.22-1.17-.89-1.5-1.11s-.56-.33-.5-.5c.06-.22.56-.17.84-.17.45,0,1.11.06,1.62.28.72.11,1.5.56,1.84.33.67.17,1.5.39,2.9.83,1.23.39,1.5.67,2.67,1.17.61.5,2.01,1.17,2.45,2.12Z"/>
        <path class="cls-1" d="M281.27,82.81c.11.67-.17,2.23-.22,2.79-.11,1.11-.22,1.95-.17,2.9.06.72-.28,1.45-.11,2.17,0,.67-.22,1.84-.17,3.12.11,1.11-.61.78-1.73.78-1.06-.11-3.62-.33-4.62-.33-1.17.17-2.39-.22-3.12-.06-.89.11-2.28.06-3.17.06-1.23-.06-2.28.28-3.06-.06-.89-.11-2.51.17-3.73-.06-.89.22-1.45.33-2.51.17-1.34-.28-2.23.45-3.06.06-1.45-.28-1.5.11-3.06.11-.5-.28-1.17,0-1.84-.06-1.17-.11-1.73.28-2.84,0-1.5-.17-.78-1.73.28-1.62,1.23.11,2.17-.06,3.4-.11.33-.06,1.45-.11,1.45-1.06.06-1,.06-2.45.22-3.62-.28-.89-.11-1.73,0-2.28.28-.39-.33-1.34,0-2.34.11-1.11-.22-1.56,0-2.34.33-.61-.06-1.62,0-2.39.17-.56.11-1.5,0-2.34.06-.83-.22-1.45,0-2.34.06-.45-.11-1.56,0-2.34-.28-.45.11-1.89,0-2.34.28-1,.06-1.39,0-2.34.33-.61.17-1.11,0-2.34.11-1-.17-1.56,0-2.34-.06-.95.22-1.45,0-2.34,0-.95-.17-1.73,0-3.06-.11-.78-1.17-1.34-2.06-1.39-1.78-.06-3.45.39-3.9-.28-.11-.22-.67-1.17.61-1.56.72-.17,1.45.17,2.06.06.89-.17,1.62-.11,2.28.06,1.17-.22,1.56.33,2.45,0,.61-.17,1.5.22,2.51,0,1,.11,1.45,0,2.51,0,.89-.28,1.62.39,2.51,0,.5,0,1.89.11,2.56,0,.56-.11.95-.06,1.89-.06.61,0,1,1.84-.45,1.84-.95,0-2.06-.06-3.06-.11-1.06.06-2,.95-1.78,1.45-.06.72.06,1.95,0,3.01-.17,1.06-.28,1.62,0,2.28-.11,1.39.22,2.12-.11,2.73-.72.89.45,1.45.11,1.89-.33.78-.17,1.95,0,2.34,0,.72-.22,1.5,0,2.34-.11,1.06.17,1.28,0,2.28-.39.89.28,1.5,0,2.34-.17,1.11.17,1.23,0,2.28-.78,1,0,1.34,0,2.34-.06.95-.11,1.89,0,2.34.33,1-.28,1.45,0,2.28.06,1.06-.45,1.39,0,2.28,0,1.45.11,2.39,0,3.45.17.67,1.28,1.34,2.17,1.17,1.34-.06,1.73,0,3.06,0,.95-.06,2.28.11,3.17-.11.84,0,2.34-.39,3.29-.56.72-.17,1.84-.33,2.9-1.34.67-.56,1.78-1.06,2.12-2.39-.11-.45.72-1.5.72-1.89.39-.72.17-1.34.5-1.95.17-.5.06-1,.28-1.5.22-.45.11-.78.11-1.5-.06-1.56,1.73-1.06,1.78-.39.06.83-.28,1.22-.17,2.23Z"/>
        <path class="cls-1" d="M303.22,94.45c-1.39.06-2.01,0-2.84-.06-.45-.45-1.06,0-1.56,0-.56,0-1.62-.06-2.62-.11-.84.17-1.5-.39-2.45,0-.89.39-1.39-.17-2.51,0-1.06.11-1.39-.06-2.34.06-1.17.39-1.11-.17-2.01.17-.89.06-1.23,0-2.12,0-2.06,0-1.28-2.12-.28-1.78,1.28,0,2.17-.06,3.34-.06.89.06,1.67-.39,1.67-.89-.06-1.28.11-2.51.11-3.68.17-.67-.22-1.56,0-2.34.06-1.06-.06-1.17,0-2.34-.33-.61.11-1.5,0-2.34-.28-.83-.17-1.56,0-2.34.22-1.11,0-1.17,0-2.34-.33-.56-.11-1.56,0-2.34.11-1.06-.22-1.28,0-2.34.06-1.06-.39-1.78,0-2.34,0-.84-.06-1.62,0-2.4-.17-.61-.33-1.73,0-2.34.17-.67-.17-1.73,0-2.34-.11-1.06-.33-1.56-.11-2.67.11-1.28-.11-1.84-.11-2.62.17-.95-.56-1.34-1.28-1.45-1.45-.22-2.51-.06-3.45-.06-1.06.06-1.5-1.45-.39-1.67.95-.28,1.5,0,2.62,0,1.06-.17,1.62.11,2.12,0,.67-.33,1.11.33,2.23-.06.61-.28,2.01.28,2.51,0,.84-.17,1.39.11,2.45,0,.45-.17,1.67.33,2.51,0,1.11-.22,1.89.06,2.45,0,.67-.17,1.11-.06,1.95,0,.78.06.61,1.73-.11,1.73-1.11.06-2.51-.17-3.73-.17-.84.06-1.34.5-1.39,1.17-.17,1.23-.11,2.45-.06,3.51-.17.56-.61,1.62-.11,2.28.28.45-.33,1.39.06,2.23.06,1.11-.5,1.11,0,2.28-.06,1.17.11,1.84,0,2.95-.67.83-.11,1-.06,2.06.06.95-.5,1.28.06,2.23.11.56-.28,1.34,0,2.34-.06.61.22,2.17,0,2.84-.28.67.17,1.56-.06,2.45-.22.95.33.95.17,1.73-.45.72.06,1.5,0,2.34-.67,1.11.06,1.78,0,2.34-.11.95,0,2.62,0,3.51-.39.78,1.11,1.17,2,1.17,1.45,0,1.73-.22,3.01,0,.89,0,1,1.78.33,1.67Z"/>
        <path class="cls-1" d="M339.58,63.48c-.28-1.11.33-1.95,0-3.17-.22-1.45.17-2,0-3.01-.33-1.06-.33-1.67-1.62-1.73-.67-.06-1.34-.11-2.23-.06-.67,0-1.5.06-2-.06-.84.28-1.28-1.84.28-1.78.89.11,1.67-.11,3.12.11,1.28.22,2.12-.11,3.4,0,.95.17,2.06-.06,3.23-.06,1.5,0,2.34.11,3.23-.06,1.11-.22,1.06,2.17.11,1.84-1,.06-1.28.06-1.67,0-.39-.39-.72.11-1.28,0-1.28.11-1.89.06-1.95.45-.17.39-.67.28-.56,1.45.22.39-.17.33,0,1,.28.95-.17,1.06-.06,1.56.17.84-.45,1.11.06,1.78.11.84-.5,1.23-.11,2.06.11.33-.06,1.62-.06,2.12-.5.28,0,.56,0,1.28-.06,1-.11,1.95,0,2.4.28,1.06-.06,1.56-.06,2.39-.17,1.11.17,1.28,0,2.39-.11.72-.11,1.45,0,2.4.28,1.22-.33,1.84-.06,2.39.11.5-.22,1.62,0,2.45.33.95-.17,1.23,0,2.4-.22,1.11,0,1.62,0,2.34,0,.56-.56,1.11,0,1.89.11,1-.39,1.34.06,1.84.11.95.06,1.95.06,2.95.11,1.17-.28,1.56-.89,1.39-1.28.17-1.62,0-3.06.06-.72-.06-.95-.95-1.23-1.56-.33-1-.84-1.28-.89-1.73-.45-.78-.95-1.45-1.34-2.17-.45-.67-.61-.89-1-1.62-.84-.56-.84-1.62-1.73-2.67-.39-1.23-.83-1.5-1.73-2.73.06-1.73-1.34-1.45-1.73-2.73-.61-1-1.39-1.89-1.73-2.73-.72-.61-1-2.06-1.73-2.73-1-.83-.89-1.89-1.78-2.73-.72-.61-.95-2.17-1.73-2.73-.95-1.17-1.62-2.34-1.89-3.12.11-1.11-.39-.89-1.06-1.62-.67-.61-1.06-1.67-1.56-2.34-.61-.84-1.34-1.39-1.78-.39-.22.5.06,1.95-.22,3.12,0,1,.11,1.67,0,2.23,0,1.67.06,2.73,0,4.18.06,1.67-.17,2.45,0,4.18-.11,1.78.33,3.17,0,4.18-.11,1.39.33,3.29,0,4.68-.39,1.28,0,2.23.11,4.01-.11,1.67.22,2.45.06,3.45,0,1.56.67,1.61,1.78,1.73,1.11.06,1.28.17,2.17.06.39-.06,1.17.22,1.78.06.45-.11,1.39,1.34-.06,1.73-.84.06-1.95-.06-2.67-.11-1.06-.06-1.73-.56-2.17-.06-1.23.06-3.45.11-4.85.06-1.45,0-2.12.06-3.23,0-.67-.06-1-1.39-.06-1.73.72-.28,1.39.28,2.9.06,1.23-.17,2.12-.33,2.17-1.62,0-1.11.28-3.06,0-4.4-.28-.39,0-1.5,0-2.17-.39-.56.72-1.34,0-2.23-.22-.5.17-1.23,0-2.23.33-1-.33-1.62,0-2.23.33-.67-.17-1.5.06-2.23.17-.33.28-1.56,0-2.23-.28-1.78-.06-2.67,0-4.46-.11-.67.17-1.56,0-2.23-.11-.78.33-1.5,0-2.17-.06-.89-.33-1.89,0-3.29.17-1.17-.22-2.9-.11-3.84-.11-.95-.33-2.06-1.11-1.73-.95.11-1.23-.06-1.84-.11-.56-.11-1.23.17-1.84-.06-1.11-.06-1.11-1.28-.39-1.73.61-.45,1.17-.06,2.12-.06.5.06.84-.06,1.56.06.78-.17,1.84.22,3.01,0,1.17.11,1.84,0,3.06,0,.39.39.78.33,1.34-.06,1.39.22,2.17-.33,3.06.22.78.5.45,1,1,1.62.5.89,1,1.06,1.17,1.78.22.61.45,1.34,1.11,1.78.78.56,0,1.45,1.17,1.84.61.33.56,1.39,1.11,1.84.39,1,.89.95,1.17,1.78,0,.61.67,1.62,1.17,1.84.11.72.95.83,1.11,1.84.06.95.89,1.34,1.17,1.84.17.33.39,1.06,1.11,1.78.11.39,1.06,1.17,1.17,1.84.72.61.56.95,1.17,1.84.39.67.78,1,1.11,1.78.11.95.72,1.5,1.17,1.84.33.17.61.67.61.95.56.78,1.78,1,1.62-.45.17-.39.22-2.73.06-3.34-.28-.67.22-1.78.06-3.17-.17-1.23-.17-1.84,0-3.23-.33-1.28.06-2.23,0-3.23l.06-3.23Z"/>
        <path class="cls-1" d="M367.1,92.28c.72,0,1.84.33,2.9,0,1.17-.28,1.62.06,2.95-.17,1.28-.11,1.78.11,2.95-.45,1.11-.56,1.45-.72,2.78-.95.61-.33,1.39-.61,2.23-1.61.89-.56,1.17-1.78,1.34-2.34.45-.89.61-2.23.84-3.17.11-.56-.06-1.11.28-1.84.39-.78,1.5-.67,1.73-.06.17.33.06.78.06,1.56.06.84-.33,1.17-.33,2.17,0,1.11-.33,1.95-.17,2.28.06,1.11-.33,1.28-.17,2.28.22,1.06-.22,1.34-.11,2.51.22.95-.11,2.17-1.06,2.01-1-.17-1.73.11-3.06-.11-1.39-.39-1.67.22-2.73-.17-.84.33-2.45-.39-3.51-.06-1.06.33-2.56-.11-3.34,0-1.56-.22-2.73.22-3.73-.06-.95.22-1.28-.17-2.28,0-1,.28-1.45-.28-2.28,0-1.28.33-1.67.11-2.78,0-1.28.39-2.51.39-3.4.22-1.06.06-1.45.11-2.45,0-.78.17-1.73.28-2.62.06-1.34,0-.95-2.06.39-1.84.84-.06,1.89.06,3.12,0,.83-.17,1.39-.28,1.56-1.06.17-.89,0-1.67.06-3.06.78-1.06-.17-1.95.17-2.73.33-.89-.11-1.5,0-2.34.28-.83.22-1.84,0-2.34-.17-.61,0-1.17,0-2.34.11-1-.22-1.62.17-2.4.72-.61-.45-1.45-.06-2.28.22-.5-.45-1.17-.11-2.28.11-.67-.22-1.78,0-2.34.72-1.06-.28-1.78,0-2.34.28-.83.33-1.56,0-2.34-.22-1.06,0-1.45,0-2.34.5-.95-.28-1.23,0-2.34.11-.78-.11-1.95-.11-2.78.17-.67-.84-1.56-1.73-1.62-.56-.22-1.39.11-2.67-.06-.67.11-1.34-.22-1-1.45.17-.61.72-.56,1.39-.33,1,.06,1.62.33,2.67.06.56.06.67.39,1.34.06,1.06-.22,2.9-.06,4.4,0,1.06-.11,1.28.39,2.34,0,1.06-.17,1.39-.11,2.34,0,.67.33,1.28-.22,2.39,0,.84-.11,1.17.17,2.34-.06,1.11-.22,1.34-.06,2.4-.06.45.28,1.34-.33,2.34,0,.61.22,1.56.06,2.34-.06,1.06-.06,1.45-.39,2.51-.06,1.34.33,1.95-.61,2.78.06.5.45-.11,1.39.17,2.34.28.95.11,1.39.11,2.45.17.84-.33,1.06.11,1.84.17,1.17.22,1.56.22,2.45,0,.67.22,1.28,0,1.73-.28.56-1.61.78-1.67-.22-.28-1.34-.28-1.84-.5-2.4-.5-1.11-.33-1.67-1.06-2.56-.17-.5-.72-1.5-1.56-1.84-.89-.56-1.62-.89-2.67-1.06-.95-.56-1.73-.17-2.34-.61-.72-.06-1.56-.17-2.45-.11-1.06.11-1.45,0-2.67-.06-.72-.06-1.06.39-1.62.11-.39-.17-.72.22-1.23.45-.56.11-.95.84-.84,1.89-.28,1.17-.06,2.79,0,3.79-.5.5-.39,1,0,1.95-.06.56.22,1.11-.06,1.84-.33.84.17,1.06.11,1.34-.22.89.22,1.11-.06,1.62-.5.95.11,1.34.06,1.73-.22,1.17,1,2,2.23,1.78,1.06.06,1.78.06,2.45-.28.5.06,1.67-.28,2.34-.72.56-.5,1.5-1.22,1.84-2.17.56-.61.11-.89.5-1.84.11-.67,0-1.22.06-1.95.06-.56,1.11-.72,1.5-.33.45.45.28.89.17,1.34-.17,1.11-.06,1.67-.17,3.06-.22,1.39.06,1.95,0,3.34-.17,1.17.22,2,0,3.56,0,1.56.28,2.17.11,3.17-.06.5.28,1.06-.06,1.78-.33.56-1.67.61-1.67-.5,0-1.28-.17-2.51-.56-3.51-.39-.61-.11-1.23-1.06-2-.84-.56-1.11-.39-1.95-.89-.67.06-1.45-.33-2.73-.28-.56,0-1.45-.06-2.06-.06-.78.06-.78.67-.95,1.06-.39.56.06,2.45,0,3.4-.5.89-.22,1.73,0,2.28v2.34c-.33.67.33,1.62,0,2.34-.22.72.17,1.95,0,2.34.11.89-.11,2.62.22,3.51.17.45.39,1.06,1.17,1.11h1.17Z"/>
      </g>
      <path class="cls-1" d="M465.32,2c.06,0,.11.05.11.11v147.29c0,.06-.05.11-.11.11H2.11c-.06,0-.11-.05-.11-.11V2.11c0-.06.05-.11.11-.11h463.21M465.32,0H2.11C.95,0,0,.95,0,2.11v147.29c0,1.17.95,2.11,2.11,2.11h463.21c1.17,0,2.11-.95,2.11-2.11V2.11c0-1.17-.95-2.11-2.11-2.11h0Z"/>
      <path class="cls-2" d="M82.07,44.35c-22.3,0-40.37,13.09-40.37,29.23,0,8.51,5.02,16.16,13.03,21.5-.62,1.49-2.17,4.09-5.95,6.37-.91.55-.66,1.75.42,1.99,3.95.87,11.34,1.6,16.83-3.04,4.92,1.54,10.34,2.4,16.03,2.4,22.3,0,40.37-13.09,40.37-29.23s-18.08-29.23-40.37-29.23Z"/>
    </g>
  </g>
</svg>