<?xml version="1.0" encoding="UTF-8"?>
<svg id="_レイヤー_2" data-name="レイヤー 2" xmlns="http://www.w3.org/2000/svg" viewBox="0 0 467.44 151.52">
  <defs>
    <style>
      .cls-1 {
        fill: #fff;
      }

      .cls-2 {
        fill: none;
        stroke: #fff;
        stroke-miterlimit: 10;
        stroke-width: 2px;
      }
    </style>
  </defs>
  <g id="_レイヤー_1-2" data-name="レイヤー 1">
    <g>
      <g>
        <path class="cls-1" d="M180.58,56.58c-.89,0-1.34-.06-2.45,0-1.11.06-1.84-.06-2.4,0-.95.06-1.11-.06-2.45,0-.72-.22-1.28,0-2.39,0-.84.11-1.95,0-2.4,0-1.22.06-1.78.28-2.45,0-.83.17-1.28.17-2.39,0-1.28.22-1.78.06-2.4.11-1.11-.22-1.56.06-2.39,0-.72-.06-2.34,0-3.12.45-.56.45-.56,1.22-.61,2.28-.22.45.33,1.06,0,1.34-.33.67.11.61,0,1.45-.11.33.17.78,0,1.56-.39.84-.28,1.17-.06,1.84.11,1-.17,2.12,0,2.67-.11,1.39.28,2.39-.06,3.17.33,1.06-.11,1.84-.06,3.06-.33,1.11.06,2.17-.22,3.12-.39,1.39-.17,2.23-.39,3.06-.17.83-.17,1.67-.61,3.01-.11,1.56-.56,1.89-.83,2.95-.17.89-.33,1.62-1.06,2.84-.5,1.34-1.06,1.84-1.39,2.73-.39,1.23-1.17,2.12-1.78,2.62-.22.72-.67.78-1.39,1.78-.61.83-.78.78-1.39,1.56-.28.39-1,.95-1.39,1.22-.17.11-.33.22-.5.11-.22-.11-.17-.33,0-.61.11-.22.45-.67.67-1.11.61-1.11.89-1.73,1.11-2.17.5-.95.5-1.45,1-2.67.28-1.06.45-1.5.56-2.12-.22-1,.78-1.45.5-2.84-.28-.84.39-2.17.33-2.9.33-1.11-.06-1.67.17-2.84.22-1.17-.11-1.67.11-2.67.11-1.28-.11-1.73,0-2.51-.17-1.78.06-2.84,0-4.4-.33-1.22,0-1.73-.06-2.84-.11-1.23.17-1.89-.06-2.9-.06-.67-.39-1.28-.06-2.23.33-.61-.17-1.34,0-2.23-.22-1.39-.22-2.01-.22-3.4.17-.95-.17-1.23.17-1.62.28-.39-.28-.95-.11-1.62.11-.56-.33-1.62-.11-2-.22-.45.28-1.11.83-.95,1.34,0,1.89.39,2.84.5,1.23.11,2.45.72,3.23.89.83.33,1.67.67,1.73,1,.67.17,1.45.11,2.62,0,.67.22,1.78,0,2.62,0,1.28,0,3.01.33,4.29-.06.67-.06,1-.56.95-1.5.06-.78.39-.95.17-1.84-.33-.5-.17-1-.33-2.4-.17-1.17,2.62-.67,3.84-.61,1,.06,1.95.11,3.4.39.67.22,2.56.28,2.78,1.39-.06.95-.72,1.28-1.34,1.62-.28.5-.06,1.28-.06,2,0,.95.45,1,1.23,1,1.28-.06,2.9.28,4.07,0,.61-.06,1.89,0,2.67,0,1.11-.17,1.73.22,2.51-.17.78-.17,1.39-1.45,2.12-2.45.89-.61.84-1.78,2.4-1.84.78,0,.95.45,1.56.56.67.28,1.22.56,1.84,1.28.22.84,1.11.72,1.56,1.62.11.28.67.89.67,1.45,0,.72-.39.78-1.23.83-.95-.11-1.73,0-2.34,0-.72.11-1.84,0-2.39,0-1.06-.28-1.62.28-2.45,0-.83-.22-1.45.11-2.39,0-.95.33-2-.22-2.39,0h-2.4ZM196.96,89.71c.28.28.5.45.45.67s-.28.22-.72.33c-.39.11-1.17.39-1.39.56-.83.17-1.06.61-1.5.89-1.28.56-1.67,1.17-2.06,1.78-.56.89-.78,1.45-1.39,1.39-1.45-.11-1.67-.78-2.06-1.34-.39-.39-1.17-1.62-1.28-2.67-.22-.78-1.06-1.78-.89-3.01.11-.72-.72-.89-.45-2.17.06-.33-.11-1.28-.33-2.12-.17-.45.11-1.39-.28-2.12-.11-.72.06-1.34-.17-2.12-.11-.67,0-1.39-.22-2,0-.83-.22-1.89-.11-2.67.11-.95-.17-1.84-.11-2.51-.06-.83.11-1.56-.28-1.56-.39.06-.17,1.56-.28,2.12,0,1.11,0,1.67.06,2.28-.11,1.28.11,2.67.11,4.29-.06.78.33,1.45.06,2.67-.22,1.17.11,1.89.06,2.67.22,1.06-.11,2.12.11,2.84.17.95-.45,1.78.06,2.84.22,1.17,0,2.12.11,2.84.06.67.06,1.45.11,2.67.06,1.28-.17,2.23-1.22,2.67-1.34.56-2,.67-3.17.67-1.34,0-1.95-.17-2.34-.67-.67-.72-.5-1.89-.33-3.45.17-.45.06-1.17.06-1.67.22-.5.06-.83.06-1.73.17-.5.17-.83.06-1.5.33-.89-.17-1.39-.06-1.78.33-.95-.06-.95.17-1.61-.11-1.17-.5-1.17-1-.56-.72,1.11-1.34,1.78-1.95,2.17,0,.72-.56.11-.89,1.06-.33.33-1.22.83-1.56,1.34-.17.39-.67.61-1.28,1.06-.84.61-1.5,1.06-2.34,1.62-.84.45-1.11.89-1,2.06,0,1.28.06,2.45-1.06,2.9-.5.61-2,1-2.73,1.06-.95.06-1.84,0-2.51-.78-.72-.39-.39-1.06-.45-1.95-.06-.89.22-1.39.06-1.73-.22-.72-.06-1.17,0-1.73-.11-.78,0-1.5.06-2.17-.06-1.17-.11-1.62.11-2.28-.06-.78,0-1.73-.11-2.12.06-1.11-.17-1.5-.89-.72-.33.56-.78,1.06-1.11,1.62-.89.78-1.28,1.45-1.95,1.95-.56.5-.83,1.11-1.56,1.62-.45.28-.39.5-1.45,1.17-.61.5-1.45.95-1.89,1.17-.33.17-.56.28-.72.11-.17-.22-.06-.33.17-.56.45-.45,1.06-1,1.45-1.5.33-.67,1.28-1.39,1.62-2.17.33-.67.95-2.06,1.45-2.67.56-.83.56-1.5,1.22-2.84.5-1.06.39-2,1-2.84.33-1.34.33-2,.89-3.01.45-.67.78-1.89.72-3.06.22-.56.17-1.17.33-2.12.17-.61.28-1.84.39-2.62,0-.83,0-1.34-.56-1.34-.72.06-1.17.06-1.67.11-.56-.67-.61,0-1.62,0-.61.06-.84-.22-1.17-.78-.28-.45-.06-.89.78-.78.61.06,1.39.06,1.73.06.83,0,1.62.06,2.23.06.61-.06.78-.11.89-.89-.11-.28-.11-.67,0-1.11.11-.5-.39-1-.06-1.56.22-.78-.06-1.56,0-1.78.17-1.17-.28-2.79-.11-3.62-.28-1.34,1-.89,1.56-.84.56,0,2.56.11,3.62.39,1.17.5,2.28.45,2.73,1.45.06.84-.33,1.06-1.11,1.5-.45.28-.56.39-.56,1.39-.45.5.06.95-.06,1.34-.28.56.22.78-.22,1.22-.22.56.28.5.17,1-.06.67,0,1,.33,1,.61-.11.56-.61,1-1.34.33-.72.67-1.39,1.39-1.56.84.06,1.11.72,1.84,1.62.45.95,1.23,1.73,1,2.28.17.33-.67.95-1.39.72-.78,0-1.67-.11-2.95.11-.67.06-1.06.06-1.22.72.22.89.06,1.56-.06,2.28.11.95.5,1.23,1.28,1.34.95.11,1.78.22,2.84.72.84.39,1.28.72,2,1.06.61.33.67.78,1.06,1.45.45.83.28,1.28.39,1.73.22,1-.33,1.62-1.06,2.45-.61.61-1.95,1.23-2.62.89-.89.28-1.28,0-1.89-.72-.45-.72-.22-1.95-.28-2.78.11-.78-.17-1.39-.45-2.45-.61-.95-1.17-.72-1.17.33.06.95-.06,2.34.06,2.84.11.61-.06,1.5,0,2.39-.17,1-.33,1.34.06,2.45.39,1.17-.39,1.39,0,2.39.33,1.06-.11,1.5.17,2,0,1.06,0,2.34-.11,3.23.17,1.28.5,1.5,1.17.95.67-.56.95-1.06,1.28-1.45.45-.5.39-.72.78-1.28s.67-1.17,1.22-2c.61-1.28,1.06-2.12,1.39-2.95.28-.72.61-1.73,1.11-3.06.33-.89.39-2,.83-3.12.45-1.28.33-2.17.72-3.23-.11-.45.45-1.17.33-2.23.11-.67-.11-1.56.33-2.17.11-1.22.11-1.95-.39-1.95-.45.06-.5-.06-.95,0-.56.06-.83.17-1.34.11-.33-.17-.67-.39-.61-.67-.39-.39-.06-1.06.56-.89.72.22.78.45,1.34.17.95.17.95.33,1.34.06.78.06.89-.33.78-1.34.45-.95-.22-1.39.11-1.95.28-1-.28-1.28-.11-2.28-.28-.72.06-1.84-.11-2.56-.06-.78-.06-1.17.06-1.45.33-.67,1.45-.45,2.12-.28,1,.17,1.84.39,2.95.56.5.06,1.06.39,1.62.45.67.22,1.17.61,1.34,1.22.28,1.11-1.28,1.17-1.56,2.34,0,1.34.06,2.23,0,3.62,0,.45.11,1.39.78,1.5.72-.06,1.28.33,1.95,0,.67,0,1.39-1.06,1.78-1.89.78-.61,1.11-1.28,1.39-1.84.22-.45.67-.67,1-.5.39,0,.56.11,1.34.56.61.22,1.11.78,1.5,1.28.5.5.45.95,1,1.34.39.28.78.89.84,1.5.06.45-.61,1.06-1.23.89-.72-.11-1.17,0-2.23,0-.89,0-1.5-.06-2.28,0-.95-.11-2.17.06-2.95,0-.89.17-1.34.5-1.28,1.39.17.67.5,2,.72,2.51.33.28.39,1.56.67,1.89.45.72.39,1.22.72,1.89.61.5.22,1.67.84,1.89.67.72.33,1.28.95,1.78.33.28.78,1.39,1,1.73.56.72.67,1.17,1.17,1.62.78.83,1.34,1.84,2,2.45.45.78,1.39,1.56,2.23,2.34.45.11.78.72,1.17,1.11Z"/>
        <path class="cls-1" d="M212.22,95.78c.22,1.84-.5,2.67-1.06,2.84-.61.5-1.11.67-1.95.83-1,.17-1.56.22-1.95.22-1.17,0-2-.22-2.17-1.5-.06-.67,0-.56.06-1-.17-.39.06-.95.06-1.56-.17-.67.33-1.06,0-1.5-.22-.78.22-.72.06-1.56-.28-1.11,0-1.22.06-2.62-.33-.83.39-2.34.11-3.23-.33-1.28.11-2.17.06-3.17-.17-1.17.67-1.28.11-2.39-.28-.67.11-2.06-.06-2.62.06-.89-.61-1.11-1.28-.45-.28.33-.89.72-1.39,1.06-.61.67-.84.56-1.28.89-.28.33-1.17.33-1.73,1.06-.72.45-1.45.89-1.95,1.11-.39.17-.78.22-.84,0-.11-.33.11-.5.45-.78.28-.28.89-.45.95-.67.17-.61.72-.5.78-1,.67-.5,1.06-.78,1.39-1.39.67-.39.78-1.06,1.45-1.89.72-.67,1.11-1.39,1.73-2.56.84-.72.95-1.78,1.5-2.67.22-.72-.06-1.73,0-2.73.06-.56,1-.45,1.28-.17.61.06.83-.22,1.34-.84.56-.56.22-.95.89-1.39.67-.39.11-.95.56-1.34.72-.45.28-.84.61-1.23.39-.61.45-1.17.95-1.84.22-.61,0-1-.83-1.17-1.17,0-2.28.06-3.01.06-1-.06-1.73-.06-2.56-.06-.72,0-1.17.11-2.12.06-1.28.11-1.67.17-2.73.22-.5.06-1.11-.28-1.23-1.11-.06-.45.17-.72,1.06-.56.89,0,1.39.06,1.95.06,1.28.11,1.62.11,2.67.11.78,0,.89-.33.89-1.06-.06-.72.45-1.06.11-1.56-.39-.56,0-.83-.11-1.22-.28-.56-.06-1,0-1.39.39-.5-.28-1.11,0-2.28-.17-.28-.06-.84-.06-1.67-.17-.39-.11-1.11.5-1.23.95-.11,1.28.11,1.78.11.78,0,1.45.22,2.62.33,1.06.22,1.62.45,2.39.61.72.45,1.11.33,1.06,1.06-.06.89-.56,1-1,1.56-.33.22-.28.5-.5,1-.06.78.33,1.11.06,1.56.06.89.11,1.56-.11,2.17,0,.89-.06,1.56.22,1.62.67-.06.95-.67,1.45-1.28.5-.89.95-1.28,1.78-1.28.5.06.5,0,1.34.61.84.61,1.23,1.06,1.5,1.5.5.78.89,1.23,1.28,1.73.39.5.72.78.5,1.39-.11.39-.11,1.06-.72,1.06-.33.33-1.56.28-1.78.39-.45.56-.72.67-.78,1.11-.61.67-.61,1.45-1.17,1.89-.84.67-.78,1.17-1.23,1.67-.33.45-.56,1.11-1.06,1.56-.33.78-.17,1.11.06,1.39.45.61-.22.89-.67,1.11-.39.45-.45.22-.56.89-.06.33,1.11.39,1.67.56,1.39,0,3.17.5,3.73.78,1.06.5,2.06,1.06,2.34,1.45.67.39.72,1.5.95,2.56.11.89-.33,2-1.11,2.67-.45.39-1.62,1.28-2.62,1.17-.61-.22-1.34-.17-1.67-.67-.67-.11-.95-1.11-.72-1.73-.45-.56,0-1.73-.28-2.12-.33-.83-.5-1.56-.78-2.06-.95-1-1.67-.39-1.73.45.17.72.06,1.28.17,1.78,0,.72-.28,1.73-.11,1.95.33,1.17-.33,1.28.06,2.51,0,.5-.33,1.84.06,2.23.22.83-.22,1.28.06,2.23.39,1.56-.06,2.51.11,3.62-.11.89.17,2.62.11,3.62l.06,2.12ZM231.22,70.89c-.61.56-.39.95-.61,2-.17.67-.45,1.11-.11,1.45.45.45.89.22,1.95.33.89-.11,1.73,0,2.4-.06,1.56.22,2-.06,3.17,0,.95.06,1.23-.11,1.39-.61.5-.45.17-.67.5-.78.28-.39.39-.72.61-1,.22-.56.83-.83,1.39-.89.67-.06,1,.22,1.67.56.83.61,1.34.95,2,1.34.28.45,1,1.06,1.73,1.67.56.5.89.89.72,1.45,0,.78-.33.61-.67,1-.95.67-.67,1.06-.78,1.34-.17.67.28.83,0,1.22-.22.5.06.78.06,1.23-.06,1.11.22,1.34.06,1.84-.28.95.28,1.06,0,2.06-.11.72.28,1,.22,1.67-.06.45-.39.95.11,1.84.33.61-.11,1.28.06,1.89.39.95-.45,1.45.06,1.95.28.78,0,1.62.17,2.67.33.95-.11,1.28-.33,1.78-.83,1.11-1.34,1.39-2.17,1.62-.95.39-1.84.5-2.73.45-1-.06-1.56-.06-2.17-.61-.39-.33-.45-.56-.5-1.5-.11-.45-.28-.78,0-1.23-.06-.67-.61-.83-1.17-.78-1.06.17-2.23-.06-3.56,0-1.39.06-2.73,0-3.56,0-.45.06-1.06.11-1.17.89.11.56.22,1.67,0,2-.17.39-.33,1-1.62,1.23-.56.33-1.84.39-2.79.5-1.28.28-2.28-.39-2.39-1.89.11-.95-.17-2,.11-2.84.11-.78-.17-1.34.11-1.73.5-.67-.33-.72,0-1.62,0-.72-.06-1.45.11-1.95-.06-.5-.11-1.62.11-2.67-.11-.78-.45-1.11-1.11-.39-.5.33-1.34,1.17-1.84,1.5-.28.06-1.06,1.11-1.5,1.23-.67.33-.5.78-1.17,1.06-.67.06-.61.56-1.28.72-.67.39-1,.72-1.78,1.06-.45.22-1.11.67-1.45.78-.33.11-.72.28-.89,0-.17-.28.11-.45.5-.78.45-.39.89-.72,1.5-1.28.39-.45.89-.95,1.34-1.45.56-.22.72-1.17,1.34-1.39.61-.45.83-1,1.45-1.95.39-.5.5-1,1.11-1.78.56-.61.67-1.28,1.06-1.95.61-.5.5-1.5,1-2.06.06-.72.45-.95.89-2.06.06-.39.56-1.62.78-2.12-.17-.95.11-1.56-.22-2.9-.06-.56.28-1,.84-.95.67.06.45-.72.78-1.11.06-.5.45-1.95.61-3.4.06-.61.89-.95.33-2.06,0-.72.17-2.39.33-3.01.11-1.06-.28-1.11-.84-1.17h-2.23c-1.11,0-1.45,0-2,.06-.5.17-1-.33-1-.84-.22-.5.17-1,.61-.83.95.06,1.5.22,2.45.28,1.06.06,1.56.17,2.34.06.67.11,1.11-.45,1.06-1.45-.06-1,.22-2.23.22-3.51.28-1-.06-2,.11-3.17-.17-.67-.06-.95.06-1.89-.06-.72-.17-1.28.5-1.45.78-.06,2.56.39,3.68.56.95.33,1.28.11,1.95.5.28.22.78.28,1.62.45,1,.28,1.78.78,1.84,1.56,0,1.06-1.28,1.39-1.67,2.12,0,.78-.28,1.06-.45,2.17.06,1.23-.28,1.89-.39,2.78-.06,1.23.06,1.23,1.17,1.34.78-.11,1.73-.06,2.51,0,1.23-.06,1.84,0,2.17,0,.84-.17.89-.5,1.28-1.22.39-.72.67-.89,1.34-1.73.39-.22.45-.61.61-.84.56-.61.5-1.11,1.39-1.23.72-.17.95.06,1.78.61.67.45,1.23.78,1.73,1.45.56.78.78,1,1.5,1.78.33.61.78.78.67,1.56-.06.56-.33,1-1.5.95-1.5,0-2.06.06-3.79-.06-1.62-.06-2.67.17-3.79,0-1.06.17-1.62,0-3.12,0-.89-.11-1.95.11-2.73.11-.95,0-1.62.22-1.89,1-.06,1.17-.61,1.95-.61,2.73-.17,1.06-.67,2.12-.61,2.73l-.95,3.06ZM229.94,77.52c.28.56-.06,2.06,0,3.34-.33,1.17.06,3.12,0,4.18-.17,1.23-.06,2.23,0,3.12.28,1.45-.17,3.23.11,3.79-.06,1.17.39,1.62,1.06,1.45,1.28,0,2.45.06,3.56,0,1.45.11,2.39,0,3.56,0,.78,0,1.17-.11,1.17-1.17-.06-.83-.28-1,0-1.62.17-.56-.17-1.11-.06-1.62,0-.45-.39-1,0-1.67.22-.78-.39-1.06-.11-1.67.22-.72.39-1.67,0-2.23-.39-.45.5-.72.06-1.95-.33-.39.33-1.62,0-2.17-.22-.78-.22-1.39-.22-2.12-.17-.89-.45-1.34-1.28-1.28-.83-.06-1.5.06-3.23,0-1.39-.06-2.23-.06-3.06,0-1.06.06-1.56.5-1.56,1.62Z"/>
        <path class="cls-1" d="M310.42,82.81c.11.67-.17,2.23-.22,2.79-.11,1.11-.22,1.95-.17,2.9.06.72-.28,1.45-.11,2.17,0,.67-.22,1.84-.17,3.12.11,1.11-.61.78-1.73.78-1.06-.11-3.62-.33-4.62-.33-1.17.17-2.39-.22-3.12-.06-.89.11-2.28.06-3.17.06-1.23-.06-2.28.28-3.06-.06-.89-.11-2.51.17-3.73-.06-.89.22-1.45.33-2.51.17-1.34-.28-2.23.45-3.06.06-1.45-.28-1.5.11-3.06.11-.5-.28-1.17,0-1.84-.06-1.17-.11-1.73.28-2.84,0-1.5-.17-.78-1.73.28-1.62,1.22.11,2.17-.06,3.4-.11.33-.06,1.45-.11,1.45-1.06.06-1,.06-2.45.22-3.62-.28-.89-.11-1.73,0-2.28.28-.39-.33-1.34,0-2.34.11-1.11-.22-1.56,0-2.34.33-.61-.06-1.62,0-2.39.17-.56.11-1.5,0-2.34.06-.83-.22-1.45,0-2.34.06-.45-.11-1.56,0-2.34-.28-.45.11-1.89,0-2.34.28-1,.06-1.39,0-2.34.33-.61.17-1.11,0-2.34.11-1-.17-1.56,0-2.34-.06-.95.22-1.45,0-2.34,0-.95-.17-1.73,0-3.06-.11-.78-1.17-1.34-2.06-1.39-1.78-.06-3.45.39-3.9-.28-.11-.22-.67-1.17.61-1.56.72-.17,1.45.17,2.06.06.89-.17,1.62-.11,2.28.06,1.17-.22,1.56.33,2.45,0,.61-.17,1.5.22,2.51,0,1,.11,1.45,0,2.51,0,.89-.28,1.62.39,2.51,0,.5,0,1.89.11,2.56,0,.56-.11.95-.06,1.89-.06.61,0,1,1.84-.45,1.84-.95,0-2.06-.06-3.06-.11-1.06.06-2,.95-1.78,1.45-.06.72.06,1.95,0,3.01-.17,1.06-.28,1.62,0,2.28-.11,1.39.22,2.12-.11,2.73-.72.89.45,1.45.11,1.89-.33.78-.17,1.95,0,2.34,0,.72-.22,1.5,0,2.34-.11,1.06.17,1.28,0,2.28-.39.89.28,1.5,0,2.34-.17,1.11.17,1.23,0,2.28-.78,1,0,1.34,0,2.34-.06.95-.11,1.89,0,2.34.33,1-.28,1.45,0,2.28.06,1.06-.45,1.39,0,2.28,0,1.45.11,2.39,0,3.45.17.67,1.28,1.34,2.17,1.17,1.34-.06,1.73,0,3.06,0,.95-.06,2.28.11,3.17-.11.83,0,2.34-.39,3.29-.56.72-.17,1.84-.33,2.9-1.34.67-.56,1.78-1.06,2.12-2.39-.11-.45.72-1.5.72-1.89.39-.72.17-1.34.5-1.95.17-.5.06-1,.28-1.5.22-.45.11-.78.11-1.5-.06-1.56,1.73-1.06,1.78-.39.06.83-.28,1.22-.17,2.23Z"/>
        <path class="cls-1" d="M332.37,94.45c-1.39.06-2,0-2.84-.06-.45-.45-1.06,0-1.56,0-.56,0-1.61-.06-2.62-.11-.84.17-1.5-.39-2.45,0-.89.39-1.39-.17-2.51,0-1.06.11-1.39-.06-2.34.06-1.17.39-1.11-.17-2,.17-.89.06-1.23,0-2.12,0-2.06,0-1.28-2.12-.28-1.78,1.28,0,2.17-.06,3.34-.06.89.06,1.67-.39,1.67-.89-.06-1.28.11-2.51.11-3.68.17-.67-.22-1.56,0-2.34.06-1.06-.06-1.17,0-2.34-.33-.61.11-1.5,0-2.34-.28-.83-.17-1.56,0-2.34.22-1.11,0-1.17,0-2.34-.33-.56-.11-1.56,0-2.34.11-1.06-.22-1.28,0-2.34.06-1.06-.39-1.78,0-2.34,0-.84-.06-1.62,0-2.4-.17-.61-.33-1.73,0-2.34.17-.67-.17-1.73,0-2.34-.11-1.06-.33-1.56-.11-2.67.11-1.28-.11-1.84-.11-2.62.17-.95-.56-1.34-1.28-1.45-1.45-.22-2.51-.06-3.45-.06-1.06.06-1.5-1.45-.39-1.67.95-.28,1.5,0,2.62,0,1.06-.17,1.62.11,2.12,0,.67-.33,1.11.33,2.23-.06.61-.28,2,.28,2.51,0,.83-.17,1.39.11,2.45,0,.45-.17,1.67.33,2.51,0,1.11-.22,1.89.06,2.45,0,.67-.17,1.11-.06,1.95,0,.78.06.61,1.73-.11,1.73-1.11.06-2.51-.17-3.73-.17-.84.06-1.34.5-1.39,1.17-.17,1.23-.11,2.45-.06,3.51-.17.56-.61,1.62-.11,2.28.28.45-.33,1.39.06,2.23.06,1.11-.5,1.11,0,2.28-.06,1.17.11,1.84,0,2.95-.67.83-.11,1-.06,2.06.06.95-.5,1.28.06,2.23.11.56-.28,1.34,0,2.34-.06.61.22,2.17,0,2.84-.28.67.17,1.56-.06,2.45-.22.95.33.95.17,1.73-.45.72.06,1.5,0,2.34-.67,1.11.06,1.78,0,2.34-.11.95,0,2.62,0,3.51-.39.78,1.11,1.17,2,1.17,1.45,0,1.73-.22,3.01,0,.89,0,1,1.78.33,1.67Z"/>
        <path class="cls-1" d="M368.73,63.48c-.28-1.11.33-1.95,0-3.17-.22-1.45.17-2,0-3.01-.33-1.06-.33-1.67-1.62-1.73-.67-.06-1.34-.11-2.23-.06-.67,0-1.5.06-2-.06-.83.28-1.28-1.84.28-1.78.89.11,1.67-.11,3.12.11,1.28.22,2.12-.11,3.4,0,.95.17,2.06-.06,3.23-.06,1.5,0,2.34.11,3.23-.06,1.11-.22,1.06,2.17.11,1.84-1,.06-1.28.06-1.67,0-.39-.39-.72.11-1.28,0-1.28.11-1.89.06-1.95.45-.17.39-.67.28-.56,1.45.22.39-.17.33,0,1,.28.95-.17,1.06-.06,1.56.17.84-.45,1.11.06,1.78.11.84-.5,1.23-.11,2.06.11.33-.06,1.62-.06,2.12-.5.28,0,.56,0,1.28-.06,1-.11,1.95,0,2.4.28,1.06-.06,1.56-.06,2.39-.17,1.11.17,1.28,0,2.39-.11.72-.11,1.45,0,2.4.28,1.22-.33,1.84-.06,2.39.11.5-.22,1.62,0,2.45.33.95-.17,1.23,0,2.4-.22,1.11,0,1.62,0,2.34,0,.56-.56,1.11,0,1.89.11,1-.39,1.34.06,1.84.11.95.06,1.95.06,2.95.11,1.17-.28,1.56-.89,1.39-1.28.17-1.62,0-3.06.06-.72-.06-.95-.95-1.23-1.56-.33-1-.83-1.28-.89-1.73-.45-.78-.95-1.45-1.34-2.17-.45-.67-.61-.89-1-1.62-.84-.56-.84-1.62-1.73-2.67-.39-1.23-.84-1.5-1.73-2.73.06-1.73-1.34-1.45-1.73-2.73-.61-1-1.39-1.89-1.73-2.73-.72-.61-1-2.06-1.73-2.73-1-.83-.89-1.89-1.78-2.73-.72-.61-.95-2.17-1.73-2.73-.95-1.17-1.62-2.34-1.89-3.12.11-1.11-.39-.89-1.06-1.62-.67-.61-1.06-1.67-1.56-2.34-.61-.84-1.34-1.39-1.78-.39-.22.5.06,1.95-.22,3.12,0,1,.11,1.67,0,2.23,0,1.67.06,2.73,0,4.18.06,1.67-.17,2.45,0,4.18-.11,1.78.33,3.17,0,4.18-.11,1.39.33,3.29,0,4.68-.39,1.28,0,2.23.11,4.01-.11,1.67.22,2.45.06,3.45,0,1.56.67,1.61,1.78,1.73,1.11.06,1.28.17,2.17.06.39-.06,1.17.22,1.78.06.45-.11,1.39,1.34-.06,1.73-.84.06-1.95-.06-2.67-.11-1.06-.06-1.73-.56-2.17-.06-1.23.06-3.45.11-4.85.06-1.45,0-2.12.06-3.23,0-.67-.06-1-1.39-.06-1.73.72-.28,1.39.28,2.9.06,1.23-.17,2.12-.33,2.17-1.62,0-1.11.28-3.06,0-4.4-.28-.39,0-1.5,0-2.17-.39-.56.72-1.34,0-2.23-.22-.5.17-1.23,0-2.23.33-1-.33-1.62,0-2.23.33-.67-.17-1.5.06-2.23.17-.33.28-1.56,0-2.23-.28-1.78-.06-2.67,0-4.46-.11-.67.17-1.56,0-2.23-.11-.78.33-1.5,0-2.17-.06-.89-.33-1.89,0-3.29.17-1.17-.22-2.9-.11-3.84-.11-.95-.33-2.06-1.11-1.73-.95.11-1.22-.06-1.84-.11-.56-.11-1.22.17-1.84-.06-1.11-.06-1.11-1.28-.39-1.73.61-.45,1.17-.06,2.12-.06.5.06.84-.06,1.56.06.78-.17,1.84.22,3.01,0,1.17.11,1.84,0,3.06,0,.39.39.78.33,1.34-.06,1.39.22,2.17-.33,3.06.22.78.5.45,1,1,1.62.5.89,1,1.06,1.17,1.78.22.61.45,1.34,1.11,1.78.78.56,0,1.45,1.17,1.84.61.33.56,1.39,1.11,1.84.39,1,.89.95,1.17,1.78,0,.61.67,1.62,1.17,1.84.11.72.95.83,1.11,1.84.06.95.89,1.34,1.17,1.84.17.33.39,1.06,1.11,1.78.11.39,1.06,1.17,1.17,1.84.72.61.56.95,1.17,1.84.39.67.78,1,1.11,1.78.11.95.72,1.5,1.17,1.84.33.17.61.67.61.95.56.78,1.78,1,1.62-.45.17-.39.22-2.73.06-3.34-.28-.67.22-1.78.06-3.17-.17-1.23-.17-1.84,0-3.23-.33-1.28.06-2.23,0-3.23l.06-3.23Z"/>
        <path class="cls-1" d="M396.25,92.28c.72,0,1.84.33,2.9,0,1.17-.28,1.62.06,2.95-.17,1.28-.11,1.78.11,2.95-.45,1.11-.56,1.45-.72,2.79-.95.61-.33,1.39-.61,2.23-1.61.89-.56,1.17-1.78,1.34-2.34.45-.89.61-2.23.83-3.17.11-.56-.06-1.11.28-1.84.39-.78,1.5-.67,1.73-.06.17.33.06.78.06,1.56.06.84-.33,1.17-.33,2.17,0,1.11-.33,1.95-.17,2.28.06,1.11-.33,1.28-.17,2.28.22,1.06-.22,1.34-.11,2.51.22.95-.11,2.17-1.06,2.01-1-.17-1.73.11-3.06-.11-1.39-.39-1.67.22-2.73-.17-.83.33-2.45-.39-3.51-.06-1.06.33-2.56-.11-3.34,0-1.56-.22-2.73.22-3.73-.06-.95.22-1.28-.17-2.28,0-1,.28-1.45-.28-2.28,0-1.28.33-1.67.11-2.79,0-1.28.39-2.51.39-3.4.22-1.06.06-1.45.11-2.45,0-.78.17-1.73.28-2.62.06-1.34,0-.95-2.06.39-1.84.83-.06,1.89.06,3.12,0,.84-.17,1.39-.28,1.56-1.06.17-.89,0-1.67.06-3.06.78-1.06-.17-1.95.17-2.73.33-.89-.11-1.5,0-2.34.28-.83.22-1.84,0-2.34-.17-.61,0-1.17,0-2.34.11-1-.22-1.62.17-2.4.72-.61-.45-1.45-.06-2.28.22-.5-.45-1.17-.11-2.28.11-.67-.22-1.78,0-2.34.72-1.06-.28-1.78,0-2.34.28-.83.33-1.56,0-2.34-.22-1.06,0-1.45,0-2.34.5-.95-.28-1.23,0-2.34.11-.78-.11-1.95-.11-2.78.17-.67-.83-1.56-1.73-1.62-.56-.22-1.39.11-2.67-.06-.67.11-1.34-.22-1-1.45.17-.61.72-.56,1.39-.33,1,.06,1.62.33,2.67.06.56.06.67.39,1.34.06,1.06-.22,2.9-.06,4.4,0,1.06-.11,1.28.39,2.34,0,1.06-.17,1.39-.11,2.34,0,.67.33,1.28-.22,2.4,0,.83-.11,1.17.17,2.34-.06,1.11-.22,1.34-.06,2.39-.06.45.28,1.34-.33,2.34,0,.61.22,1.56.06,2.34-.06,1.06-.06,1.45-.39,2.51-.06,1.34.33,1.95-.61,2.79.06.5.45-.11,1.39.17,2.34.28.95.11,1.39.11,2.45.17.84-.33,1.06.11,1.84.17,1.17.22,1.56.22,2.45,0,.67.22,1.28,0,1.73-.28.56-1.62.78-1.67-.22-.28-1.34-.28-1.84-.5-2.4-.5-1.11-.33-1.67-1.06-2.56-.17-.5-.72-1.5-1.56-1.84-.89-.56-1.62-.89-2.67-1.06-.95-.56-1.73-.17-2.34-.61-.72-.06-1.56-.17-2.45-.11-1.06.11-1.45,0-2.67-.06-.72-.06-1.06.39-1.62.11-.39-.17-.72.22-1.23.45-.56.11-.95.84-.83,1.89-.28,1.17-.06,2.79,0,3.79-.5.5-.39,1,0,1.95-.06.56.22,1.11-.06,1.84-.33.84.17,1.06.11,1.34-.22.89.22,1.11-.06,1.62-.5.95.11,1.34.06,1.73-.22,1.17,1,2,2.23,1.78,1.06.06,1.78.06,2.45-.28.5.06,1.67-.28,2.34-.72.56-.5,1.5-1.22,1.84-2.17.56-.61.11-.89.5-1.84.11-.67,0-1.22.06-1.95.06-.56,1.11-.72,1.5-.33.45.45.28.89.17,1.34-.17,1.11-.06,1.67-.17,3.06-.22,1.39.06,1.95,0,3.34-.17,1.17.22,2,0,3.56,0,1.56.28,2.17.11,3.17-.06.5.28,1.06-.06,1.78-.33.56-1.67.61-1.67-.5,0-1.28-.17-2.51-.56-3.51-.39-.61-.11-1.23-1.06-2-.83-.56-1.11-.39-1.95-.89-.67.06-1.45-.33-2.73-.28-.56,0-1.45-.06-2.06-.06-.78.06-.78.67-.95,1.06-.39.56.06,2.45,0,3.4-.5.89-.22,1.73,0,2.28v2.34c-.33.67.33,1.62,0,2.34-.22.72.17,1.95,0,2.34.11.89-.11,2.62.22,3.51.17.45.39,1.06,1.17,1.11h1.17Z"/>
      </g>
      <path class="cls-1" d="M465.32,2c.06,0,.11.05.11.11v147.29c0,.06-.05.11-.11.11H2.11c-.06,0-.11-.05-.11-.11V2.11c0-.06.05-.11.11-.11h463.21M465.32,0H2.11C.95,0,0,.95,0,2.11v147.29c0,1.17.95,2.11,2.11,2.11h463.21c1.17,0,2.11-.95,2.11-2.11V2.11c0-1.17-.95-2.11-2.11-2.11h0Z"/>
      <path class="cls-2" d="M77.82,44.35c-22.3,0-40.37,13.09-40.37,29.23,0,8.51,5.02,16.16,13.03,21.5-.62,1.49-2.17,4.09-5.95,6.37-.91.55-.66,1.75.42,1.99,3.95.87,11.34,1.6,16.83-3.04,4.92,1.54,10.34,2.4,16.03,2.4,22.3,0,40.37-13.09,40.37-29.23s-18.08-29.23-40.37-29.23Z"/>
    </g>
  </g>
</svg>