<?xml version="1.0" encoding="UTF-8"?>
<svg id="_レイヤー_2" data-name="レイヤー 2" xmlns="http://www.w3.org/2000/svg" viewBox="0 0 629.61 416.98">
  <defs>
    <style>
      .cls-1 {
        fill: #fff;
      }
    </style>
  </defs>
  <g id="_レイヤー_1-2" data-name="レイヤー 1">
    <g>
      <g>
        <path class="cls-1" d="M107.83,157.98c1.02,2.25,2.25,3.27,2.45,5.31.41,3.47-2.45,3.68-5.72,3.68-3.68-.2-5.51.61-9.8,0-2.25.82-5.52-.41-9.8,0-2.45.41-7.15.82-9.8,0-2.86,0-5.52.61-10.01,0-2.04.41-6.94,0-9.8,0-3.88,0-7.97-.82-10.01,0-3.06-.2-7.15-.82-9.8,0-4.49,1.23-5.92.2-9.8,0-3.06.82-6.13.2-10.21.2-2.66.82-4.7.82-8.78.82-3.27.82-4.7-3.27-4.49-5.11.2-2.86,2.86-2.04,4.7-1.84,3.06.61,4.29-.61,5.72.61,3.27,1.23,4.9-.2,7.15,0,6.54-.41,8.38.41,11.23,0,3.47,0,10.42-.41,13.89,0h21.65c4.29-.2,5.72.82,7.35-1.63,1.84-2.66,3.47-5.31,5.72-8.58,2.25-1.84,2.66-4.7,5.31-6.74.41-1.84,2.45-2.25,4.29-2.25s3.68.82,5.72,2.66c2.45,2.45,4.08,2.45,6.94,5.92,1.84,3.68,4.7,3.47,5.92,6.94ZM91.28,15.42c-.2-2.25-1.43-7.35,1.84-7.76,4.49-.61,7.15.41,11.23.82s10.01,1.02,13.48,2.25c3.06,1.02,8.78,2.45,8.58,5.92-.2,2.45-1.43,4.29-4.08,5.72-1.43,1.02-1.43,3.06-1.43,6.94,0,3.27-.61,8.99.2,11.44.2,3.68,0,8.99,0,13.28,1.23,4.08,2.45,4.7,6.54,5.72,2.25-.41,4.29,0,7.97,0,5.31.2,10.83,0,11.64-.2,3.88.41,3.88-.41,6.13-2.04,1.02-2.04,2.25-2.04,3.47-4.29,2.04-.82,3.68-2.04,4.08-5.11,3.68-2.66,3.06-6.54,6.95-6.74,3.27-.2,5.51-.41,7.56,1.84.82,1.43,4.9,3.68,7.15,5.51,2.45,1.84,4.49,2.66,5.92,6.74,1.84,2.04,3.27,3.68,2.45,5.31-.82,3.27-3.27,3.68-5.92,4.08-5.92,0-9.6.61-15.73,0-5.11.2-11.85,1.23-15.73,0-4.49,0-8.78,1.23-11.23,0-4.49.41-9.8,0-13.28.61-4.49.2-6.33,1.23-6.13,5.31.82,2.25,1.02,6.54.82,9.8.82,1.43.82,6.13,1.23,7.76,1.84,2.86,1.84,5.31,1.63,7.76.41,3.68,2.45,6.33,1.84,7.76,1.63,3.27.41,5.92,2.25,7.56,2.25,2.86,1.63,5.51,2.66,7.35,2.04,3.06,1.02,6.13,3.27,7.35,1.84,4.08,4.08,5.31,5.31,8.99,2.45,2.66.61,5.11,3.47,5.11,1.63,1.84,2.45,3.88,4.08,4.7,3.06,3.47,6.54,6.95,8.99,7.76,2.66,1.63,5.92,2.86,10.01,3.06,3.47.2,5.11-1.02,7.76-4.7,2.86-1.43,2.45-5.51,4.49-6.33.61-1.02,2.66-4.29,4.08-6.94,1.23-2.25,2.25-4.9,4.09-4.29,1.63.61.61,3.06,0,5.72-.41,1.63-2.86,6.13-2.45,7.76.41,2.86-.82,5.92-1.63,7.15-.2,2.86-1.84,2.45-.61,4.29-.41,2.45-.2,3.68-.41,5.51-.61,4.29.61,4.9,2.66,7.76,1.43,2.04,2.04,4.49,2.45,8.58-.21,4.7-2.25,8.38-4.9,9.4-1.63,3.27-7.56,3.06-10.21,3.27-2.45,1.43-3.88,1.02-7.76-.82-2.45.82-4.9-2.45-7.35-2.25-3.27.2-5.92-2.66-6.94-3.68-3.06-1.84-3.68-4.49-6.74-4.7-3.27-1.23-1.84-4.29-5.72-5.72-4.29-1.63-1.43-3.27-4.29-4.9-3.47-2.04-2.25-3.88-6.74-6.74-2.86-1.84-2.04-5.31-4.29-6.33-1.63-1.84-4.29-3.47-4.08-6.54,0-1.63-3.06-4.08-3.47-6.94-2.25-3.27-2.04-4.08-3.27-6.94-1.43-3.27-1.02-4.7-2.86-7.35-1.22-1.43-2.66-3.68-2.45-7.15-1.02-2.86-.41-6.33-2.25-7.56-1.43-1.43-1.23-4.7-2.04-7.35-1.23-3.27-.82-5.11-1.84-7.56-1.63-1.84-1.43-4.9-1.84-8.78,1.23-2.86-1.43-3.06-1.63-7.76-.41-2.66-2.25-5.92-1.43-8.17,0-3.06-1.43-4.29-1.02-6.33-.41-2.66-2.86-3.68-5.51-3.88-4.9.82-10.21.2-13.48-.61-5.51,1.23-8.99-.2-12.87,0-6.74.82-10.62-.41-15.93,0-5.72.2-10.01-.41-15.93,0l-11.64.61c-5.72-.61-8.17.41-12.46.41-2.04,1.23-5.51-3.88-4.08-6.54,1.23-2.25,4.29-.82,6.74-.61,2.66.2,4.29.41,6.95.41,3.06,0,4.49.61,7.97.2,2.86-.41,6.54.61,9.4,0,1.63,0,3.68,0,8.17.41,1.84.2,6.13-.2,8.58,0,3.27.41,4.7,1.43,8.78,0,3.47.2,4.7.2,8.58,0,1.63,1.02,6.33.2,8.78,0,2.25.82,7.97,0,12.05,0,3.68-.2,4.29-2.25,4.49-6.13-1.02-4.09.82-6.95-.82-10.21-1.43-4.08,1.23-6.74-1.02-10.21-2.04-3.06.41-6.54-.61-10.21l-.61-7.56ZM73.31,114.07c-5.11.82-9.8-1.02-12.46,0-3.06.41-7.35,0-12.46,0-5.72.41-7.97.61-11.44.61-3.27-.2-5.11.2-9.6-.2-3.68.41-6.74.2-9.8.61-4.09.82-5.92-3.88-5.52-5.31.41-2.45,3.06-2.45,4.9-1.84,4.08,1.23,4.49.2,6.94.61,2.66.41,5.11-.41,6.95.2,4.7.61,7.97.2,11.85.2,6.94,0,8.37-.41,11.23,0,3.68-.2,4.7-1.43,6.33-3.47,2.25-2.66,4.08-4.7,5.31-7.97,1.23-1.02,2.86-4.7,5.92-5.11,2.66-.41,3.47.82,5.31,2.25.61,2.04,5.72,2.04,6.54,4.9,1.23,1.63,3.68,3.68,5.72,5.72,1.63,1.84,2.45,2.45,2.45,5.11-.41,4.7-2.45,3.27-5.72,3.68h-12.46ZM130.91,17.66c-1.02-.82-2.45-1.43-2.45-2.45s2.04-1.63,3.68-1.84c1.84-.2,5.11-.82,5.92-.2,2.45,1.23,6.54-.41,8.58.61,2.04-.61,5.11,2.04,8.99,2.45,2.45,1.63,4.9,2.25,6.94,4.9,1.43,1.84,2.66,4.7,2.86,8.17-.21,3.47-1.02,5.92-3.88,9.19-2.66,2.86-7.35,4.7-11.85,4.29-2.04.61-4.49.41-6.95-2.25-1.02-2.25-2.86-3.68-2.86-6.74-.2-2.66-1.23-7.35-2.86-8.99-.41-3.68-4.9-6.13-6.13-7.15Z"/>
        <path class="cls-1" d="M236.61,138.79c-1.63,1.43-3.68,1.23-6.74,1.23-1.84-.2-3.06-.41-3.88-2.45-1.63-4.7-2.66-6.74-2.45-10.01,0-4.29-1.23-6.54-1.63-10.01.82-1.63-1.23-2.04-1.02-3.88-.41-4.09,3.06-3.27,5.31-3.47,3.47-.2,6.54.82,11.23-.2,2.45,1.02,6.94-.61,10.62-.82,2.04.61,5.92.82,10.42-1.02,3.06-.2,7.15-.61,10.01-.61,3.47-1.63,7.97-.41,13.07-2.25,4.7-.41,6.33-.82,10.42-1.43,1.63-.2,2.45-.61,4.09-1.02,2.66.82,3.47-1.02,4.9-1.43,2.66-.61,4.29-1.23,4.9-.2,1.02,1.43-.61,2.66-4.29,5.11s-7.15,5.51-8.99,5.31c-3.47,1.63-5.11,2.25-7.97,4.49-2.45,1.63-6.33,4.09-7.76,4.29-3.68,1.43-6.74,4.08-8.17,4.29-2.04,2.45-4.09.2-6.33,2.66-1.84,1.84-4.9.2-8.37,4.49-3.06,1.23-6.74,3.27-8.58,3.68-4.08,2.25-5.31,1.23-8.78,3.27ZM412.48,171.06c0,1.43-1.43,1.63-2.66,2.04-4.7,1.63-7.15,2.45-10.62,5.11-3.68,2.45-7.35,5.92-8.78,7.56-.61,2.86-3.47,7.76-6.95,6.54-3.68,0-6.13-3.06-9.4-4.49-3.68-1.43-5.31-6.54-7.56-7.56-2.66-2.45-4.08-3.27-6.13-8.17-.2-5.72-2.45-2.04-3.88-5.92-.41-2.66-3.47-3.68-3.88-7.56-.61-3.88-3.68-6.13-3.06-8.17-1.22-2.25-1.63-3.47-1.84-6.54-.41-1.02-1.43-5.31-1.63-6.54.41-3.68-.82-9.8-2.04-13.28.61-3.27-2.25-8.99-1.43-13.48-.82-3.06-.61-9.19-.82-13.48.21-3.68-2.66-6.13-2.86-1.84-.2,3.88-.61,7.35-.82,9.6-1.63,3.06-2.04,4.49-1.23,8.37-1.43,3.27-.61,4.49-1.43,7.97,0,3.06-3.47,3.06-1.63,7.15,0,2.66-2.66,5.11-2.25,7.76-2.04,3.47-1.23,4.9-2.86,6.94-1.43,2.04-1.22,3.88-3.27,6.33-1.02,3.27-4.29,1.63-4.08,6.13-.61,2.45-3.47,4.7-4.7,5.72-1.02,1.63-2.45,3.27-5.51,5.11-4.49.41-4.29,4.08-6.33,4.7-2.25.41-6.13,2.04-7.56,4.29-2.66,2.25-5.92,1.63-8.37,3.68-4.08,2.45-6.54,3.68-9.4,3.27-1.84.82-7.97,1.43-10.21,3.06-4.9.21-6.13,2.25-9.6,1.84-3.47-.41-5.31.61-7.76,1.43-3.47.41-8.17,1.02-10.83,1.23-4.29.41-8.17,1.23-8.17-1.23,0-1.63,1.84-1.84,5.31-2.66,3.27-.82,4.9-1.02,9.4-2.45,4.49-.2,6.94-1.63,10.42-3.06,2.04-1.84,4.49-1.02,7.15-2.66,2.45-1.84,6.33-2.04,8.17-3.68,2.25-.61,4.08-1.84,7.56-4.49,2.25-2.04,5.72-4.7,6.94-5.31,1.43-.82,4.49-3.68,6.13-5.92,1.43-2.86,4.29-4.49,5.51-6.95,1.84-3.27,3.88-5.51,5.51-9.8,1.84-3.68,3.06-5.92,4.09-10.62.41-4.7,1.63-5.72,2.86-11.03,2.04-2.25,1.02-7.15,2.04-11.03-.41-3.47.82-7.97,1.43-12.66.61-3.88-.61-8.37,1.02-12.66,1.63-3.06-1.23-2.86-.2-7.76,1.84-4.29-.82-5.52.61-9.19,0-3.68-1.84-4.29-3.27-2.66-2.04,3.68-5.72,8.37-7.76,10.21-2.66,3.68-4.9,3.27-6.33,7.56-1.23,1.63-4.49,3.88-6.94,6.74-2.66,2.86-4.9,1.63-5.31,4.29-1.63,1.63-4.7,2.45-5.31,3.88-.82,1.23-4.9,3.68-6.54,4.9-3.68,2.45-5.92,3.88-7.15,2.66-1.23-1.43,1.43-2.86,4.29-5.72,2.25-2.25,4.29-3.27,5.51-6.33,3.06-2.86,2.86-4.9,4.49-5.72,2.45-2.66,2.66-5.31,5.31-9.8,2.45-1.84,3.47-5.92,4.7-8.78,1.43-4.09,1.63-5.72,3.88-10.42,1.02-2.45,1.43-6.13,3.27-10.62,1.63-2.45,2.04-7.76,3.06-10.62-.41-4.08,2.86-6.94,2.45-10.83,0-2.86,1.22-5.11.82-6.74.41-1.63,1.84-5.11,1.63-9.19.21-4.08,2.25-5.31,4.29-4.08,2.25-.41,3.06,1.23,7.56,1.43,3.88,1.02,4.9,1.43,7.97,2.25,2.66.61,7.56,2.04,11.03,3.27,3.27,1.63,7.97,2.86,7.76,7.15-.41,4.7-5.51,4.29-7.97,6.33-2.25,1.84-1.84,4.09-4.29,6.33-2.04,1.23-2.25,4.9-3.68,6.74-2.86,1.84-2.25,6.74-5.51,8.38-1.43,3.27-.21,3.88,4.29,3.88,3.68.2,10.62.41,15.52.41,4.7-.41,6.33,2.45,7.97-.2,5.11.2,11.85.41,14.09-.41,1.63-1.43,4.49-4.49,5.31-6.13,1.84-1.23,3.47-5.11,6.54-4.29,3.47-.21,3.88,1.84,7.56,3.27,4.09,3.27,4.7,5.92,8.58,7.56,3.27,3.27,4.49,5.11,7.15,8.99.41,2.66,3.68,4.9,2.86,8.17.82,3.88-1.43,5.72-4.49,6.33-1.84,1.23-3.06,1.02-6.94,1.02-2.04.61-4.29,2.04-8.38,4.08-2.86,2.25-2.04,1.43-5.11,3.27-2.66,1.63-3.88,2.25-5.52,3.27-2.86,1.23-8.37,4.9-10.42,5.92-3.88,1.84-5.72,3.27-6.94,2.45-1.63-1.23,0-2.86,1.02-4.49,1.43-2.25,4.7-3.88,4.9-7.97.41-2.66,3.88-5.72,3.27-8.78,1.43-2.86,2.45-9.6,3.47-12.87,1.23-3.27-.41-4.29-3.06-4.7-2.66,0-12.66,1.02-18.59,0-4.08.61-4.9,1.63-1.02,3.47,3.68,2.25,2.66,5.92.21,7.97-3.06,1.84-2.86,3.88-2.25,7.15.41,4.29,1.23,8.37,1.63,12.05.61,4.7,3.06,6.13,1.84,9.4-.82,3.47,2.66,4.49,2.45,7.35-.41,3.06,1.84,5.51,3.06,7.97,1.23,3.88,3.27,6.74,3.47,7.97,1.84,2.45,2.86,5.72,4.49,7.56.41,2.45,3.47,3.27,4.29,6.74-.2,3.88,3.47,5.11,6.33,7.35,1.63,1.43,0,4.7,5.11,6.13,1.23.2,2.25,2.86,4.9,4.29,2.45,3.68,5.72,5.31,7.56,6.54,2.25,2.04,1.84,3.88,5.92,4.7,2.66,0,1.02,2.45,4.9,2.66,2.66-.2,3.88,3.47,5.92,2.86,1.02.41,2.45,1.23,3.47,1.63,1.84.82,2.25.41,2.25,1.22ZM232.94,25.83c0-1.43,3.06-1.84,4.9-2.25,2.66-.61,5.92-1.23,6.74-.41,4.49,0,9.4.41,11.85,1.02,2.25,3.27,3.88,0,8.38,2.25,4.29,1.84,7.15,3.06,8.17,5.51.41,5.11,3.88,4.49,3.47,9.6-.41,5.31-1.43,7.76-4.7,11.64-3.68,3.06-7.15,4.49-11.44,5.11-4.49.82-6.94-.61-8.78-3.06-3.27-3.06-1.63-4.29-4.08-8.58-1.84-2.86-2.25-5.72-4.29-10.21-2.25-3.27-4.49-5.51-7.56-7.97-1.02-.82-2.66-1.23-2.66-2.66Z"/>
        <path class="cls-1" d="M628.44,66.68c-3.06,2.04-4.9,3.68-5.72,4.7-3.27,2.45-4.29,3.06-5.31,5.51-.82,2.04-2.45,1.43-3.27,4.29-.82,3.88-1.84,2.25-2.66,6.13-.41,2.25-.82,6.13-5.31,5.92-3.88,1.23-6.94-.61-9.6-1.63-3.27-2.04-6.74-2.45-10.42-4.29-4.29-2.04-7.76-3.68-9.8-5.51-1.23-3.27-5.31-2.66-8.17-5.51-1.84-2.86-4.29-2.45-6.74-5.72-.82-3.27-3.68-3.06-6.13-5.92-.61-2.86-3.06-3.47-5.31-6.33-2.04-2.45-3.06-4.29-4.49-6.54s-3.68-3.88-3.88-6.94c-1.23-2.25-3.27-3.88-3.06-7.56-.41-3.88-3.47-6.33-3.68-9.6-.41-1.43-2.45-3.68-4.49-1.43-1.43,1.63-2.25,3.47-4.9,6.33-2.45,3.06-3.47,3.68-5.11,6.74-1.84,3.27-5.31,5.72-7.35,8.78-1.63,3.27-4.29,6.33-7.97,8.17-1.63,2.25-4.49,5.51-8.17,7.56-3.47,3.47-5.31,4.9-8.99,7.35-2.04,1.63-5.11,4.7-9.19,6.54-3.27,2.04-6.54,3.88-9.8,5.92-2.04,1.23-5.31,3.27-8.37,4.7-3.47,1.63-7.97,4.29-11.44,5.11-3.47,1.23-8.17,3.27-11.23,3.88-4.49.82-7.35,2.25-7.97,1.02-1.23-2.45.82-2.45,2.66-3.47,2.45-1.23,3.88-1.84,6.13-3.47,2.66-2.04,3.88-2.86,5.51-4.09,1.84-1.43,3.88-2.66,5.92-4.7,2.04-.82,3.06-2.45,5.92-4.49.82-1.63,2.45-3.06,5.31-5.31,1.84-2.66,3.68-3.06,4.9-5.31,3.06-2.25,3.47-4.08,4.49-5.51,3.47-.41,1.63-2.45,4.08-5.31,2.45-4.29,4.29-2.45,5.72-7.76,1.02-2.86,4.29-1.84,5.11-8.17,1.84-3.06,2.04-5.72,4.9-8.58,2.86-3.27.61-5.51,4.49-8.58,2.86-2.25,1.43-4.7,4.08-9.4,2.04-5.11,3.06-7.35,3.88-11.03,1.02-4.49,5.11-3.06,6.33-2.45,3.06.82,6.74.61,8.99,2.66,2.45.41,6.54,1.02,10.62,2.45,1.63,1.02,4.49,1.23,7.97,2.04,4.08,2.25,5.11,2.45,5.11,5.72,0,2.86-1.43,2.66-2.66,4.08-1.84,1.43,0,4.08.2,5.31,1.23,1.84,4.29,3.47,5.51,6.54.41,1.23,3.47,2.66,4.7,4.49,1.43,3.27,4.49,2.25,5.31,4.7,1.63,2.86,2.45,1.43,4.7,2.86,1.43,1.84,3.88,3.27,5.51,3.27,1.43,0,3.27,1.23,5.92,2.86,1.23.61,3.68,2.66,6.54,2.86,2.04-.41,4.49,2.25,6.13,2.25,2.66,1.23,3.68,1.63,6.13,2.04,4.7.82,7.76,2.25,12.46,3.47,5.31.82,7.35,2.86,12.66,3.06,2.86-.21,9.4,2.04,12.66,2.45,1.23,0,1.84,2.04.61,2.86ZM536.52,160.84c2.86,1.02,7.35,0,12.46-.82,3.27,0,4.29,0,8.58-.61,3.27.2,4.08-2.04,1.02-4.9-2.04-2.45-5.11-7.35-6.13-8.17-2.45-.82-2.25-3.27-5.31-5.92-1.23-2.86-3.06-2.25-6.54-4.9-2.04-1.63-.82-3.88,1.63-3.47,2.04.41,4.29,1.02,6.54,1.63,3.06.82,4.9,1.43,6.95,1.63,3.27.61,3.06,2.04,6.33,1.84,1.43.41,5.31,1.43,8.38,2.66,3.88-.21,4.9,3.27,8.58,3.47,2.86,1.43,3.47,4.29,8.17,4.08,3.27,0,3.47,3.88,7.15,5.31,4.29,1.63.82,4.9,5.72,6.13,1.63,1.02,2.45,4.9,4.08,6.33.61,2.04,2.45,5.72,1.23,9.6-.41,4.08.61,5.31-.82,7.15-1.63,2.04.2,4.29-4.08,6.13-2.25,2.04-3.88,3.06-5.51,3.88-2.86,2.04-5.72,1.63-7.35,1.43-6.74-.61-8.17-1.63-11.03-5.31-1.23-.41-1.84-3.47-2.86-5.31-.82-1.02-2.25-5.51-2.66-6.54.2-1.43-2.25-3.47-3.47-6.94-.41-1.84-2.25-2.66-3.88-2.66-3.06,1.23-3.47,2.25-7.35,3.68-3.88-.41-7.76,2.04-11.23,3.27-3.88-1.84-4.29,2.04-6.13,2.25-4.49,1.02-6.33,1.63-9.19,2.66-3.47,0-4.49,1.23-6.95,2.04-3.06-.21-4.08-1.84-5.92,1.23-2.86,1.84-4.9,1.43-7.15,1.84-3.88,1.23-5.31-1.43-8.37,1.84-3.06,1.23-5.72,0-7.15,1.43-2.25,1.22-4.9.82-7.15,1.43-6.13,1.63-9.6,1.43-14.5,2.25-4.9,1.23-6.54,2.66-11.85,2.66-1.63.61-3.68-.41-5.92-3.68-.82-2.86-2.45-4.9-2.66-7.15-.61-1.63-1.84-2.86-1.84-5.92.61-1.84-1.63-2.86-2.25-7.15,0-3.88-1.63-3.88-1.23-6.13.41-1.84,2.45-2.86,4.08-2.04,1.02.61,2.66.82,4.29.82,3.68,0,5.72,1.02,6.54.21,2.86-1.02,3.27.41,6.33.2,2.25-.2,2.66.82,5.92.2,3.06-.61,3.06.61,6.33.2,1.43.41,3.88.41,4.9-2.66.61-4.49,1.84-6.74,2.66-10.21-.61-2.66,3.06-7.76,2.66-10.01-.61-2.66-.2-4.29,1.63-7.97-.41-4.08,1.63-7.15,2.04-10.83-.41-3.27-1.84-4.08-4.7-4.49-4.7.61-6.74-.82-10.21.2-3.88.82-4.29-1.23-6.74,0-2.86.61-4.9-.61-8.17.41-3.68-.41-8.17.2-12.26-.2-3.88.2-5.11.2-8.99.41-2.86.82-4.7-2.25-5.11-4.29-.41-2.45-.21-4.08,3.47-3.27,4.7.2,8.38.61,13.07.61,5.51.2,10.83.2,15.93.61,5.52.41,11.44.2,15.93.2,4.9.41,7.76.2,12.66.2,6.13-.41,10.21.82,15.32,0,5.92-.61,9.8,1.02,15.52,0,3.88-.61,10.83,1.23,15.32,0,4.9-.2,10.62-.41,15.32,0,5.72-.2,10.21-.41,13.89,0,2.04-.61,2.45-2.66,4.49-4.29,2.04-.41,3.47-2.86,4.09-4.49,2.25-3.27,4.49-5.11,5.51-6.54,1.02-1.84,2.04-1.84,4.29-2.25,1.43-.2,3.68.21,6.13,2.04,2.04,1.43,3.06,2.45,5.92,3.27,3.47,2.25,7.76,6.74,8.99,7.76,1.84,1.43,2.66,3.47,2.86,5.52.2,3.47-3.27,4.29-6.33,4.49-3.47.2-6.54,0-9.4,0-4.49,0-6.74.61-11.03-.41-3.27.41-8.17-.2-10.21,0-4.49-.2-6.54,0-10.42,0-2.86-.61-4.08-1.02-7.56,0-4.08.2-9.8-.2-14.3.2-3.88-1.43-3.88.2-5.92,0-7.35,0-8.58.41-8.17,4.29.61,4.7-2.66,5.72-6.13,5.92-2.45,1.23-3.88,3.88-6.13,7.35-3.06,2.86-4.29,7.56-6.94,10.42l-3.27,4.49c-2.04,2.66-3.06,3.27-3.88,6.13-.61,2.04-2.04,1.23-3.27,4.09-1.63,2.04.41,3.88,3.47,2.86,1.02-.41,3.47-.2,6.33,0,2.86.2,5.52,0,9.8-.61l13.07-.82ZM483.42,75.67c.61-.61,2.25-.41,6.13-.2,4.7.2,9.19,0,11.85.41,3.06,0,7.56.61,9.8.41,4.9-1.02,6.33,2.66,10.62.2,3.88-.41,6.94,1.02,10.62-.41,1.43-1.23,3.27-2.45,3.47-4.49.41-1.63,2.66-3.06,3.68-5.11.61-2.45,3.06-4.9,5.51-4.7,2.66.2,3.27,1.23,4.9,1.84,1.23.41,2.66,2.45,6.13,4.49,1.02,1.02,4.9,3.47,5.31,5.51,2.66,1.84,1.63,2.45,2.45,4.7,1.43,2.25-3.47,3.68-5.51,3.06-3.68,0-10.62.41-14.09,0-4.9.2-10.21.41-14.3,0-4.08.41-9.19,0-14.3,0-4.7,0-9.19.41-12.87.41-6.74.2-8.78.61-14.91,1.02-4.08.82-6.95-4.7-4.49-7.15Z"/>
      </g>
      <g>
        <path class="cls-1" d="M173.44,315.14c0,3.14-.79,5.89-1.77,7.07-3.54,2.55-1.38,4.13-3.93,5.7-2.16,1.38-1.38,3.14-4.52,4.72-2.55.98-3.34,2.55-6.48,3.73-2.36,1.57-4.52,2.16-7.27,2.95-3.73,1.18-5.7-.59-6.48,1.77-5.3,1.38-9.23.98-14.34,1.77-3.54.59-6.68-.39-10.61-.98-4.32-.59-6.09-1.57-10.61-2.16-3.34-1.18-7.47-2.16-10.02-3.14-3.73.2-6.09-3.14-10.02-3.54-4.52-.98-5.5-2.95-9.63-4.32-3.73-.39-3.73-2.16-7.47-2.75-2.36-1.77-5.11-1.18-6.09.98-1.38,2.95.2,3.34,1.38,3.34.59,2.75,1.57,3.54,3.93,5.11.59,2.75,3.73,3.93,3.93,4.91,0,3.34,2.75,2.75,4.13,4.91,1.18,1.96,1.96,4.52,3.73,4.91,1.77,2.95,2.55,2.95,4.71,6.29,1.38,3.54,3.54,3.54,4.91,6.48.98,2.36,4.13,4.52,4.32,6.68,0,1.96,1.38,3.73,3.93,6.88,2.16,2.55,3.34,6.29,3.54,9.43,1.38,3.93,1.77,6.29,1.57,9.04-.39,1.38,0,4.13-.98,6.29-1.57,3.54-2.16,4.91-5.7,5.89-2.95,1.18-5.89.79-7.47-.59-1.96-1.57-3.93-2.16-3.93-5.5-1.57-1.77-1.38-3.93-2.55-6.09-1.18-2.36.2-4.32-1.57-5.7-2.16-1.57-2.55-5.11-3.14-7.66-.59-1.18-.98-3.54-3.34-7.27-2.36-2.55-1.38-5.31-3.73-7.27-2.75-1.77-.79-5.11-4.13-7.27-2.55-1.38-1.18-4.72-4.13-7.07-1.38-.98-1.77-3.54-3.54-5.11-2.55-1.77-1.77-5.7-4.52-7.47-2.16-1.57-1.77-2.16-3.93-5.11-1.38-1.96-3.14-2.75-4.72-1.38-3.34,1.18-5.89,1.18-7.86,2.36-2.55,1.18-7.27,1.57-10.22,1.77-4.13-.2-8.65-.98-12.38-2.55-1.38.2-4.91-1.18-5.7-3.14-1.96-1.96-3.93-1.38-4.72-3.73-.79-2.36-2.95-2.36-4.13-5.11-1.18-2.36-2.55-5.31-1.57-7.07.98-1.77,3.73-.39,4.91.39,2.16.98,5.7,3.14,8.84,2.16,1.96,1.18,5.89.39,9.43.39,2.36.39,7.86-1.57,11.4-2.16,1.38-.2,1.77-.79,1.96-2.75,0-.59,0-2.95-.2-3.93-.59-1.57-.98-2.75-1.57-5.3-.39-1.96-.39-3.34.2-5.89.39-1.77,1.57-3.34,3.14-5.11,1.38-1.96,2.55-2.75,6.29-4.91,1.38-1.57,5.7-2.95,8.84-3.54,3.54-1.18,5.5-1.38,8.06-1.57,1.38-.39,3.14.79,4.13-.98.79-.79,7.27-.79,7.66-3.93.2-1.77-1.96-4.32-5.5-6.68-4.32-2.16-7.27-4.13-8.45-5.11-3.34-1.77-4.52-2.55-6.29-3.93-1.96-1.57-4.32-2.36-4.91-5.5-.2-1.57,1.77-2.75,2.55-1.57,4.13,1.96,5.7,4.13,8.45,3.73,1.77.2,4.32,2.16,7.27,1.77,1.77-.39,3.54,2.16,5.7,1.18,4.13-.39,6.68,1.38,10.81,2.36,2.55.59.59,2.75,5.5,2.75,1.77.79,1.96,3.34,4.72,3.54,1.38.98,3.93,3.93,4.32,5.7,0,1.77,1.96,5.31,1.57,7.27-.59,2.36-.98,3.93-1.77,6.09-.79,1.57-3.54,3.93-5.3,3.93-.98-.2-.98.98-3.14-.79-2.16-.39-4.13-2.16-5.5-2.16-3.93,0-7.07-2.16-10.61-2.95-2.55-.59-5.7-.2-8.25-.98-3.14-.2-8.25.79-11,1.96-3.34,2.55-6.48,3.93-6.09,8.25-.59,3.34.79,6.48,1.77,9.63.79,2.75,3.54,3.14,4.32,3.54,1.18.39,2.75-.79,3.73-.98,2.55.59,3.54-1.38,5.11-1.18s2.36-1.38,5.7-2.16c2.75-.39,6.29-3.14,8.45-2.95,2.75.2,3.54-1.57,6.48-2.16,3.34-.2,3.73-2.75,6.48-2.36,4.91-.59,8.65-2.95,11.2-3.93,3.73-.39,4.52-2.55,8.84-2.55,5.3,0,5.7-2.55,9.82-2.55,4.72.39,9.23-2.36,12.77-2.36,3.54-.39,4.32,1.57,6.09-.2,2.75-.2,7.07.2,11.99,1.77,3.14.79,4.72,1.38,5.89,2.36,3.14.98,2.36,1.96,5.5,2.95,1.38,1.18,2.36,3.34,4.71,4.13.98,1.77,2.75,3.54,3.73,4.72,1.96,3.93,3.34,8.45,3.34,11.59ZM152.02,301.97c-1.96-1.77-2.36-3.54-4.32-4.32-4.91-1.77-7.66-2.95-12.18-3.14-3.54.39-5.7.2-9.63.98-3.73.39-6.88,2.95-9.24,2.95-4.32.98-5.89,2.55-8.84,4.13-4.32,2.36-4.72,2.36-8.65,4.71-2.75,1.96-3.93.98-5.7,3.34-1.96,1.38-5.11,1.77-5.89,3.34-.79,1.18-4.52,2.36-6.48,3.34-2.95.2-1.77,1.18-5.5,3.14-1.96.98-.59,2.95,1.77,3.73,3.14.39,9.04,2.55,13.36,2.36,1.77.39,9.82.98,14.15.79,3.34.39,3.54,2.36,6.09.2,1.77-.2,5.5.98,11.2-.59,1.38-.39,5.7-1.57,7.07-1.18,3.73-.2,4.91-1.77,7.07-1.77,3.73-.79,5.11.59,6.68-2.55,3.14-1.57,3.54-2.75,5.5-3.34,2.36-2.16,3.34-4.52,4.32-8.84.98-1.77-.2-4.91-.79-7.27Z"/>
        <path class="cls-1" d="M278.15,317.49c.2,4.32-.2,7.07-.59,10.61-1.18,3.34-.59,4.32-.98,8.45.39,3.93-1.96,4.91-1.38,9.63.39,3.73-2.55,4.32-2.36,9.23-.39,2.36-2.55,6.09-3.14,9.04-1.18,2.36-1.57,6.29-3.93,8.65s-2.36,5.89-4.91,8.25c-1.57,2.36-3.14,4.72-4.13,5.31-.39,2.55-3.14,2.16-3.93,4.71-2.36,2.75-3.14.98-4.32,3.93-1.96,2.16-4.32,3.54-6.29,4.72-1.18,1.57-3.73,1.18-6.29,3.93-2.36,2.55-5.11,1.57-6.09,2.95-1.96,2.16-4.13,1.57-5.89,3.14-2.95,1.57-4.13,2.16-6.48,2.75-2.75,1.18-5.89,2.36-9.43,2.95-3.14.59-6.88,2.36-7.47.2-.59-1.96,1.38-1.96,3.93-3.14.98-.39,3.34-.98,5.7-2.36,2.55-1.57,3.93-.2,4.32-2.16,1.96-1.38,5.31-2.55,7.86-5.11,2.16-1.38,3.54-2.16,5.5-3.93,1.57-1.38,5.11-3.34,6.09-5.9.98-1.77,3.54-2.55,3.93-4.13.79-2.75,3.14-3.14,3.93-5.7.98-1.38,2.55-3.14,3.93-7.07,1.18-1.96,2.75-2.36,3.34-7.27,1.18-2.36,3.54-3.14,3.14-6.68-.2-2.36,2.36-3.73,1.77-7.27-.39-2.16,1.96-3.34.98-7.66-.39-2.36,1.77-5.7.79-9.82-.2-2.55,1.57-5.31.59-8.06-1.38-3.14.39-3.93.2-8.06-.59-1.77-.2-6.88.2-10.41,2.16-3.54.2-4.91-.2-8.25-.39-3.73-.98-6.29-.39-11.59-.98-3.54-.39-8.06-.98-11.4.59-2.95-1.77-7.86-2.16-10.41-.2-3.73-2.16-3.93-3.93-6.88-1.57-3.34-5.89-3.73-7.47-3.73-3.54,0-4.52.98-6.68,2.95-3.34,2.55-2.55,3.54-5.31,7.47-2.75,2.95-2.36,6.09-3.93,10.02-1.38,2.75-.98,5.3-1.96,7.27-.2,1.77-1.96,3.73-1.96,5.89,0,2.55-1.77,4.32-1.38,6.88.2,3.73-.59,3.73-1.18,6.88-.79,3.73-1.77,9.83-1.77,12.97-.39,5.11.2,7.07-.98,10.81-1.77,2.36.39,4.13,0,5.89-1.18,1.96-.59,3.54-.39,4.91-.79,4.13.79,8.25-1.57,11-.2,3.14-2.75,7.47-7.27,6.88-1.96.59-4.91-.79-7.07-1.96-1.18-.79-2.16-3.34-4.13-5.5-1.38-.79-1.96-3.73-3.14-6.29-.79-2.16-1.77-3.93-1.18-5.7,1.38-3.14,0-4.52.98-6.09,1.96-2.36.79-4.91,1.18-7.86,1.57-3.73.2-8.06,1.77-11.2.98-3.34.2-8.06.98-11.2,0-4.72-.2-6.29.59-11.2,1.96-2.55,0-4.13.39-7.47,1.18-3.93-.39-9.82-.59-15.52.59-2.36-.98-3.93-2.55-7.07-1.57-2.16-2.95-2.55-4.72-4.72-1.96-1.38-.39-3.93,1.96-3.54,3.34.79,4.72.79,6.29,1.77,1.77.98,2.75,1.38,5.5,3.14,1.57,1.96,3.73,3.93,5.5,6.88,1.77,1.77,1.77,7.07,3.14,9.63.98,2.36-.2,6.09,1.38,10.22.2,2.95,0,4.72.2,7.47-.59,2.75,1.18,4.52,1.96,3.14.39-1.57,1.77-2.36,1.96-4.71.59-2.36,1.38-1.57,1.18-4.72,0-2.36.79-3.73,2.16-7.27,1.57-2.16,1.18-5.11,2.95-7.66,1.38-3.54,2.16-3.54,3.73-7.07.2-1.57,3.14-3.93,4.32-5.7.79-1.96,2.75-2.36,5.5-3.93,2.95-1.96,4.13-.59,6.68-1.38,3.34-.2,5.89.39,8.45,1.18,3.93.39,5.5,2.95,7.86,3.14,2.36.2,3.73,3.73,6.68,5.11,1.96.98,3.54,3.73,5.5,7.07,1.96,3.93.39,5.5,3.34,8.65.59,1.96.39,7.27,1.77,9.82.59,4.52-.79,5.89.59,10.02,1.18,3.73-.79,5.89,0,9.82.2,2.75-1.38,5.31-.2,9.43Z"/>
        <path class="cls-1" d="M439.27,398.45c-.59,4.13-1.38,5.89-5.3,6.68-3.34.59-3.34-.98-4.91-.79-4.13.2-5.11-1.57-9.23-1.57-3.73,0-7.66-.79-10.22-.59-1.18,0-4.32-.2-6.09.39s-2.75-.2-4.52.39c-.59.2-1.77-.79-2.95,0-1.18.79-3.93.59-5.11.98-1.77.59-2.75-.59-1.18-1.57.59-.39,1.96-.59,2.55-1.18,1.18-.79,1.96-.39,3.54-1.57,1.38-.79,2.95-.59,4.13-2.36,2.16-1.38,4.72-.98,4.13-4.32-.39-2.55-1.96-3.14-3.73-3.93s-3.34-1.38-4.32-2.55c-1.38-.59-2.95-.59-4.13.59-.79,2.95-3.73,4.32-6.29,7.66-.98,1.77-1.96,1.96-4.52,3.93-1.18.79-4.32,1.96-4.91,3.34-2.75,3.14-8.06,4.32-10.81,4.52-4.91,1.96-9.24,2.36-12.38,1.57-2.16.79-5.31.2-8.25-.59-1.96-1.77-2.36-.2-6.09-1.96-3.34-1.57-7.47-4.52-8.84-7.07-1.18-2.55-4.72-6.48-3.93-10.02-.2-2.16,1.18-4.72,3.54-8.06,1.18-1.38,4.72-4.72,7.07-5.3,2.75-1.77,3.73-1.77,7.47-3.54,1.77-.79,5.11-1.77,7.86-2.36,2.75-.39,4.13.2,8.06-1.38,1.57-.2,3.93.79,8.06-.39,1.57,0,6.88.39,8.65.59,1.77,0,2.95-.79,2.75-2.95,0-1.57,1.57-3.34.59-5.11-.98-1.96.59-2.55-.39-5.5,0-.98,0-2.36.39-3.34,1.57-1.57-1.18-3.93-.59-5.11.39-2.16.59-2.55-.59-3.54-1.38-1.18-3.14-1.77-4.52-.79-1.38.39-3.73.79-5.31,1.18-1.18-1.18-1.96.39-3.34.79-3.34,1.38-4.72.39-6.88,1.77-5.31,1.57-6.09.39-7.47.79-3.14.2-6.68-2.16-8.84-3.34-2.95-1.77-4.91-5.7-5.11-8.84,0-2.55.98-4.91,2.75-6.88,1.18-1.18,1.77-3.14,4.91-6.09,1.77-2.36,3.34-3.93,6.29-6.68.98-.98,2.95-1.96,4.13-3.73,1.96-2.36,2.95-1.57,4.13-4.32.79-.59,1.77-1.18,3.34-3.34.79-.98-.2-2.55-1.38-2.16-1.38.39-2.95.39-3.73,1.18-1.18.59-2.36.79-3.73,1.38-2.55,0-2.75.79-4.52,1.18-1.77-.2-3.54.2-5.89,1.77-1.38.59-2.75,1.18-4.91,1.77-2.36,0-1.96,1.18-4.13,1.38-2.55.2-.79,1.18-3.34,1.18-1.96.2-2.95,1.57-6.48,1.57-2.36,0-3.34-.39-5.7-1.38-2.95-.2-4.72-1.38-7.07-3.54-3.34-1.38-8.84-5.11-8.45-7.07.39-1.57,1.38-1.57,2.36-.98,3.14.59,3.93.39,6.09.39,3.54,0,5.89,0,7.47-.39,1.18.2,4.91-.39,7.27-1.18,2.75.59,4.32,0,5.89-1.38,2.95-.79,6.29-1.38,8.65-2.75,2.36-.39,5.7-1.77,10.22-3.54,4.32-.79,6.48-1.96,8.84-3.14,1.77-1.57,4.32.39,6.29-1.57,1.96-1.77,3.73.2,4.91-1.38,1.77-1.77,4.72-1.38,6.29-3.73.59-1.38.39-2.95.39-4.72.2-1.77,2.16-2.55,0-5.11-.39-1.96.59-3.93-.79-6.29-1.18-1.96.98-3.14-.98-4.91-2.36-4.13-4.13-3.54-8.06-4.32-1.57-.39-4.72,1.18-4.52-1.18.2-2.16,1.96-2.36,4.72-3.93,3.73-2.16,7.27-2.55,11.4-2.95,2.16-.2,8.25,2.55,10.41,3.54,3.54,1.96,6.29,5.7,5.89,8.65.2,2.16-.59,2.55-.79,4.52-1.18,1.96.2,2.36-.98,4.52-1.18,1.96.98,2.75-.2,4.91-1.18,2.16,1.57,2.95,2.55,3.73.98.59,1.77.2,3.93.39,1.77.2,2.36,1.18,4.32.79,1.77-.39,2.55,1.38,4.32,1.57,2.55.2,5.5,3.54,5.11,6.09-.59,2.75-1.77,3.34-2.75,4.32-2.36,1.77-3.73,1.77-5.9,3.14-3.34.2-6.88,1.57-8.45,1.96-3.54.98-3.93,2.16-3.93,4.72-.2,2.75,0,2.55-.2,4.52-.98,1.57.59,1.57.2,3.73-1.57,2.16.2,3.14.2,4.91-.79,1.57.98,1.96.2,2.95-.98,1.38.2,2.16.2,3.93,1.57,1.77,2.75.98,4.91,0,.98-1.18,1.96-1.18,2.75-2.16.59-.79-.39-2.36-.59-3.54-.39-1.57-1.77-3.93-3.54-6.29-1.18-1.57-2.95-3.14-1.57-3.93,1.38-.79,1.38.39,3.14,1.38.98.59.79,2.36,2.95,1.96,1.77.98,4.52,2.36,6.48,3.34,3.73.79,5.5,1.96,8.65,1.38,1.77-.59,2.95.79,3.93-.2,4.72-.39,8.06,3.54,8.45,6.68.2,1.77-.59,3.54-2.75,5.11-1.38,2.95-2.95,2.16-6.29,4.32-2.36,2.36-4.91,1.18-7.07,3.34-3.14,1.96-4.32,1.77-5.5,1.96-3.14.39-2.95,1.57-4.91,1.77-1.77-.2-2.36,1.57-5.11,2.16-2.16.79-1.96,2.36-2.36,3.34-.59,1.57.39,2.16-.2,3.54-.59,1.57,1.18,2.55.59,4.32-1.57,5.5.39,6.09,0,8.45-.39,2.55,1.18,2.75.2,5.3-.79,2.95.2,3.93.2,5.7,0,2.16,2.36,3.14,4.72,3.73,2.55.59,4.52,2.16,8.06,2.95,2.16,1.77,3.73.59,6.88,2.16,2.16,3.34,6.68,2.75,9.04,4.32.79,2.16,3.93,1.96,6.48,4.52,1.77,1.97,4.52,3.14,5.31,5.7.79,1.96,2.95,3.93,2.36,7.07ZM371.87,377.81c-2.75-.79-5.89-.79-9.82-1.18-2.16-.39-5.3.59-9.43.2-2.75-1.38-2.36.59-5.5.59-4.52,1.18-10.02,3.14-11.79,4.52-1.96,1.38-3.34,3.14-3.14,6.48.2,4.13,1.77,5.31,4.72,6.88,3.34,1.77,5.11,1.77,7.07,1.57,1.38.98,5.7,0,7.86-.79,2.16-.59,6.09-.59,7.66-2.16,4.13-1.38,5.89-2.75,7.07-3.93,2.95-1.18,3.54-2.55,5.7-5.5,1.38-1.96,2.16-2.16,2.55-3.34.79-1.18-.79-2.75-2.95-3.34ZM378.95,319.85c.2-.79-.39-2.16.2-3.14,1.18-1.96-1.18-3.14,0-5.3,1.38-2.75-.98-4.52-.39-6.88-.79-4.52-1.96-3.73-4.71-2.75-4.52,1.96-8.45,5.3-11.4,7.27-1.38,0-2.16,2.16-4.72,3.54-2.16,2.55-4.72,4.52-5.7,5.5-1.96,1.57-2.55,2.95-4.91,5.89-2.16,2.75-1.57,3.34-1.77,4.32-.59,3.93,3.54,4.72,5.89,4.91,1.77-.2,4.32.59,6.88-.59,2.16-.2,3.34-.2,7.27-1.57,2.95,0,5.89-.98,8.65-2.36,1.57-.59,3.93-.39,4.91-2.75,0-1.38-.79-2.75-.2-6.09Z"/>
        <path class="cls-1" d="M600.41,292.15c-.2,2.16-1.57,4.72-2.55,5.7-2.75.79-3.14,2.75-5.89,2.36-3.14.98-4.91.59-7.27-.79-3.93-.98-4.91-.98-7.47-.98-3.93.79-8.25-1.18-11.79-1.38-4.32-.39-7.66-1.38-11.99-.39-3.93,1.18-4.32-.39-7.07.59-2.16.79-3.93,3.54-3.14,5.31-.98,5.3-.2,8.25,0,11.59-1.57,4.13-.59,9.43,0,11.79.39,3.54-.98,6.48.2,10.02-.39,3.34,1.38,5.7,1.38,10.02.98,5.31,1.38,6.09,1.38,9.24-.2,3.54,0,5.11-.59,7.47.2,3.34-.98,4.13-1.77,6.88-1.96,1.96-.59,4.72-2.75,6.68-1.96,1.96-1.77,5.5-3.73,6.09-3.54,1.77-1.18,3.54-4.52,5.5-1.18,2.95-4.13,3.14-5.31,5.11-2.36,2.75-4.91,2.16-5.89,4.32-1.77,1.18-2.95,2.36-6.29,3.93-3.54.59-4.91,2.95-6.48,2.95-3.14-.2-3.14,1.77-6.48,2.36-2.95-.2-4.52,1.77-6.68,1.96-2.95-.39-5.5,2.16-6.88,1.38-3.73,1.77-4.13,0-6.88,1.18-3.34.98-5.89.59-7.66.79-5.3.2-7.47.98-12.18.59-1.96-.2-4.52.39-4.52-1.18,0-2.36,3.14-1.57,6.68-2.16,4.32-.79,10.41-1.77,14.34-2.75,4.32-1.38,5.11-1.96,9.63-3.14,2.95-.39,5.11-2.16,8.65-4.13,5.11-.98,4.72-2.16,8.25-5.3,2.55-2.36,4.72-2.95,6.68-6.29.79-2.55,4.13-2.95,4.32-5.7.59-1.96,2.75-3.34,3.73-6.09s.2-5.11-.98-4.52c-3.54-.2-5.5-.59-6.88-1.96-1.77-1.18-3.93-2.55-4.91-4.91-1.38-2.95-3.54-6.68-2.36-11.2.39-2.55-1.18-4.32.98-8.06,1.57-2.75.59-6.88,3.14-9.23,2.36-2.16,1.96-5.5,5.11-7.47,1.57-.59,4.32-2.75,7.07-2.95,1.96-.39,3.54.79,4.13.59,1.38.2,2.75,1.18,3.34-1.18,0-2.16,1.38-3.54,0-6.09-.98-1.77.98-3.54-.39-5.89,0-1.57-.79-2.75-.2-5.3.79-2.16.39-3.14-.79-4.72-1.57-1.77-2.75-2.36-5.11-1.38-3.14.59-4.72-.2-7.27,1.57-.98.59-4.13,1.38-6.48,2.16-3.54-.39-2.95,1.38-6.09,1.77-1.18.79-3.93,0-6.88,2.95-2.75.79-3.93,1.77-6.29,2.75-3.54-.2-1.77.98-4.52,2.16-.79.59-4.72,2.75-7.66,4.13-1.57,1.77-3.14,2.95-7.47,2.75-3.73.79-5.7-.39-9.23-1.96-3.73-1.18-5.31-3.93-7.86-5.11-4.32-2.16-2.16-4.32-5.31-6.09-2.16-1.38-5.5-5.7-3.54-7.66,1.38-1.38,2.16-.39,3.54.39,2.95,1.38,2.95,1.18,6.48,1.96,3.34.98,5.3,1.18,7.47.79,2.36-.39,5.3.98,8.65-.79,4.32.59,5.11-.98,8.25-1.96,4.13-.79,5.7-1.96,9.82-2.36,2.36,1.18,3.34-1.57,6.88-2.16,3.93-.59,4.52-1.57,8.25-2.16,1.57.39,5.11-1.38,8.45-1.96,1.57-.2,3.14-1.38,7.27-1.77,2.36,1.57,3.93-.98,6.48-1.38,1.38-.59,2.55-2.36,2.55-5.31.98-5.5-.79-4.52.2-7.66,1.38-2.36,0-3.34,0-5.9,1.18-3.73-1.38-5.5-.59-7.86,1.18-3.73-.59-5.7-1.38-6.48-.39-.98-3.73-3.93-7.27-4.13-2.75-.2-5.5.98-5.11-1.96.2-3.73,6.09-3.93,7.47-4.13,1.38-1.18,3.54-1.77,6.29-1.18,1.18.2,4.52-.59,6.68.98,1.57,1.38,3.54,1.38,7.07,2.55,1.96.98,4.13,3.54,5.5,4.32,1.77,1.57,2.55,4.91,2.55,6.48.79,3.93-.98,4.72-1.96,9.43-.79,2.36,1.57,3.34,2.55,4.13,2.55,0,2.16,2.36,5.5,2.55,3.54.79,3.93,2.95,7.07,2.36,3.34-.59,2.36,1.57,7.27,1.18,1.77,0,4.32,1.96,8.45.59,2.95.2,5.31-.59,7.07,0,2.95.2,5.11,1.18,6.88,1.57,1.77.39,4.13,1.38,6.09,4.13.79,3.14,2.55,3.34,2.55,7.07ZM526.53,341.27c-.79-1.57,0-3.54-1.18-7.27-1.38-2.36-3.14-2.55-4.72-3.73-2.16-.39-4.52,2.75-4.52,3.93-.39,2.75-.98,5.11-1.18,6.88-1.18,2.75.59,3.73,1.18,7.27.2,2.55,3.93,5.11,5.5,4.52,3.54-1.18,2.75-2.55,4.32-4.72.2-3.14,1.57-4.13.59-6.88ZM550.7,279.77c-1.38-.79-2.16-1.77-3.54-2.55-1.18-1.57-2.75-1.18-2.95.98-.2,1.57-1.38,2.55-.59,3.54.2,2.36,2.16,3.14,3.73,2.55,1.77.39,1.38-.59,3.54-.39,1.57-.2,2.36-.2,2.75-1.77.2-.98-.59-2.16-2.95-2.36Z"/>
        <path class="cls-1" d="M627.51,402.01c-.18,3.95-3.05,4.67-4.85,7.91-1.26,1.8-2.88,1.08-4.13,3.41-2.34,2.16-7.91,3.41-12.22,3.41-3.95-.18-5.21-.18-8.98-1.8-3.41-.72-5.39-2.34-7.37-5.03-3.05-1.8-3.95-3.95-5.21-7.37-.72-3.77-3.05-6.11-1.8-8.98-.18-3.77.9-6.83,1.8-8.98.36-3.77,3.41-5.57,5.03-7.55.9-.9,3.59-4.13,7.55-5.03,3.77-.54,5.21-1.98,10.42-1.8,4.31.72,4.49,2.16,7.01,1.98,2.34-.18,4.67,3.05,7.91,5.03,2.52,2.16,3.77,4.31,5.03,7.37.9,3.41,2.34,6.11,1.8,8.98.54,4.13-1.8,5.75-1.98,8.45ZM621.94,393.56c-.72-1.8.9-4.13-.72-5.39-2.88-2.16-1.08-4.13-3.95-5.75-.9-.9-2.52-2.34-4.85-3.41-2.34-.18-4.49-1.62-7.73-1.08-1.98-1.26-3.41.54-4.49,1.08-3.23.18-2.34,2.34-5.03,3.41-3.95,1.08-1.8,3.23-3.41,5.03-1.08,1.26-1.08,4.49-1.26,6.11-1.62,1.8.54,3.05,1.26,6.11,2.34,2.7,1.08,5.03,3.59,5.39,1.98,1.26,1.98,3.41,4.85,2.88,1.26,0,5.03,2.16,6.11,1.26,2.16-.18,5.03-.9,6.11-1.26.9-.36,3.77-2.34,4.85-3.41.36-.9,1.98-1.8,3.41-4.85.18-1.8,2.16-3.77,1.26-6.11Z"/>
      </g>
    </g>
  </g>
</svg>