<?xml version="1.0" encoding="UTF-8"?>
<svg id="_レイヤー_2" data-name="レイヤー 2" xmlns="http://www.w3.org/2000/svg" viewBox="0 0 975.59 582.22">
  <defs>
    <style>
      .cls-1 {
        fill: #fff;
      }
    </style>
  </defs>
  <g id="_レイヤー_1-2" data-name="レイヤー 1">
    <g>
      <g>
        <path class="cls-1" d="M0,130.8c0-1.04,1.48-1.56,4.45-1.56,2.67,0,6,.15,10,.44,4,.3,7.7.44,11.11.44,2.52,0,5.04-.07,7.56-.22,2.52-.15,4.96-.22,7.33-.22,2.96,0,4.45.52,4.45,1.56s-1.33,1.78-4,2.22c-3.11.59-4.86,1.52-5.22,2.78-.37,1.26-.11,2.93.78,5,2.22,5.78,5.19,12.89,8.89,21.34,3.7,8.45,7.7,17.38,12,26.79,4.3,9.41,8.63,18.97,13,28.67,4.37,9.71,8.48,18.71,12.34,27.01.29.74.67,1.08,1.11,1,.44-.07.81-.41,1.11-1,3.11-6.37,6.08-12.52,8.89-18.45,2.81-5.92,5.7-12.45,8.67-19.56.29-.29.45-.74.45-1.33v-1.33c-.89-2.07-2.37-5.52-4.45-10.34-2.08-4.81-4.3-9.93-6.67-15.34-2.37-5.41-4.71-10.63-7-15.67-2.3-5.04-4.04-8.89-5.22-11.56-1.63-3.41-3-6.19-4.11-8.34-1.11-2.15-2.19-3.89-3.22-5.22-1.04-1.33-2.15-2.33-3.33-3-1.19-.67-2.67-1.22-4.45-1.67-1.78-.29-3-.67-3.67-1.11-.67-.44-1-.96-1-1.56,0-.89,1.41-1.33,4.22-1.33,3.26,0,6.19.15,8.78.44,2.59.3,5.89.44,9.89.44s7.41-.15,10.22-.44c2.81-.3,5.48-.44,8-.44s3.78.44,3.78,1.33c0,1.04-1.41,1.85-4.22,2.44-2.97.59-4.93,1.71-5.89,3.33-.96,1.63-.63,4.52,1,8.67,1.78,4.74,4.26,10.71,7.45,17.89,3.18,7.19,6.56,15,10.11,23.45.15.3.41.44.78.44s.7-.29,1-.89c2.67-5.48,5.19-10.82,7.56-16,2.37-5.19,4.74-10.52,7.11-16,1.78-4,3.07-7.22,3.89-9.67.81-2.45,1.11-4.41.89-5.89-.22-1.48-.93-2.56-2.11-3.22-1.19-.67-2.96-1.3-5.33-1.89-2.08-.44-3.41-.89-4-1.33-.59-.44-.89-.89-.89-1.33,0-.74,1.33-1.11,4-1.11,2.81,0,5.26.11,7.33.33,2.07.22,4.59.33,7.56.33,3.85,0,6.92-.15,9.22-.44,2.29-.3,4.7-.44,7.22-.44s3.78.37,3.78,1.11c0,1.04-1.41,1.85-4.22,2.45-2.08.44-3.93,1.11-5.56,2-1.63.89-3.19,2.08-4.67,3.56-1.48,1.48-3,3.33-4.56,5.56s-3.22,4.97-5,8.22c-1.48,2.82-3.19,6.15-5.11,10-1.93,3.86-3.89,7.71-5.89,11.56-2,3.86-3.85,7.45-5.56,10.78-1.71,3.33-3,5.89-3.89,7.67-.3.59-.22,1.48.22,2.67,1.33,3.26,2.92,6.97,4.78,11.11,1.85,4.15,3.81,8.48,5.89,13,2.07,4.52,4.15,9.08,6.22,13.67,2.07,4.6,4.07,8.97,6,13.11.74,1.19,1.41,1.19,2,0,1.78-3.85,3.96-8.67,6.56-14.45,2.59-5.78,5.3-11.96,8.11-18.56,2.81-6.59,5.7-13.37,8.67-20.34,2.96-6.96,5.7-13.59,8.22-19.89,2.52-6.3,4.74-11.93,6.67-16.89,1.92-4.96,3.26-8.85,4-11.67.59-2.52.59-4.67,0-6.45-.59-1.78-2.74-3.26-6.45-4.45-3.26-1.04-4.89-1.85-4.89-2.44,0-.44.22-.78.67-1,.45-.22,1.48-.33,3.11-.33,2.96,0,5.45.15,7.45.44,2,.3,4.7.44,8.11.44,3.11,0,6.07-.15,8.89-.44,2.81-.3,5.26-.44,7.34-.44,2.67,0,4,.37,4,1.11,0,.44-.33.89-1,1.33-.67.44-2.04.82-4.11,1.11-2.37.59-4.45,1.48-6.22,2.67-1.78,1.19-3.67,3.11-5.67,5.78-2,2.67-4.19,6.41-6.56,11.23-2.37,4.82-5.33,11.15-8.89,19-3.56,7.71-7.26,15.93-11.11,24.67-3.86,8.75-7.67,17.49-11.45,26.23-3.78,8.75-7.37,17.12-10.78,25.12-3.41,8-6.37,15.04-8.89,21.12-.74,1.92-1.33,3.22-1.78,3.89-.44.67-.96,1-1.56,1-1.33,0-2.59-1.63-3.78-4.89-1.19-3.41-2.78-7.52-4.78-12.34-2-4.81-4.15-9.81-6.45-15-2.3-5.19-4.56-10.26-6.78-15.23-2.22-4.96-4.15-9.22-5.78-12.78-.44-1.04-.97-1.11-1.56-.22-2.08,4.15-4.33,8.75-6.78,13.78-2.45,5.04-4.82,10.11-7.11,15.23-2.3,5.11-4.45,9.97-6.45,14.56-2,4.6-3.59,8.52-4.78,11.78-1.33,3.41-2.52,5.11-3.56,5.11-.74,0-1.3-.33-1.67-1-.37-.67-.93-2.04-1.67-4.11-.74-1.78-1.67-4.07-2.78-6.89-1.11-2.81-2.3-5.67-3.56-8.56-1.26-2.89-2.44-5.67-3.56-8.34-1.11-2.67-2.04-4.81-2.78-6.45-3.11-7.11-6.3-14.41-9.56-21.89-3.26-7.48-6.56-14.82-9.89-22.01-3.33-7.19-6.52-14.11-9.56-20.78-3.04-6.67-5.89-12.74-8.56-18.23-2.08-4.3-3.78-7.85-5.11-10.67-1.33-2.81-2.63-5.04-3.89-6.67-1.26-1.63-2.59-2.81-4-3.56-1.41-.74-3.15-1.26-5.22-1.56-1.33-.15-2.44-.41-3.33-.78-.89-.37-1.33-.78-1.33-1.22Z"/>
        <path class="cls-1" d="M222.36,130.58c0-.3.33-.59,1-.89.67-.3,1.45-.44,2.33-.44,2.67,0,5.63.15,8.89.44,3.26.3,6.52.44,9.78.44,2.96,0,6.85-.03,11.67-.11,4.81-.07,9.78-.11,14.89-.11s9.89-.03,14.34-.11c4.45-.07,7.78-.11,10-.11,4.15,0,7.15-.07,9-.22,1.85-.15,3.37-.22,4.56-.22,1.04,0,1.78,1.19,2.22,3.56,0,.59.07,1.52.22,2.78.15,1.26.26,2.59.33,4,.07,1.41.18,2.89.33,4.45.15,1.56.37,2.85.67,3.89.15.74.15,1.48,0,2.22-.15.74-.44,1.11-.89,1.11-.3,0-.63-.22-1-.67-.37-.44-.85-1.26-1.45-2.44-1.93-4.74-3.89-8.08-5.89-10-2-1.92-4.04-3.11-6.11-3.56-1.33-.15-3.89-.3-7.67-.44-3.78-.15-7.89-.26-12.34-.33-4.45-.07-8.71-.07-12.78,0-4.08.08-7,.11-8.78.11-.89.15-1.56.63-2,1.44-.45.82-.67,3.22-.67,7.22v50.9c0,2.37.45,3.56,1.33,3.56h28.01c5.18,0,8.7-.11,10.56-.33,1.85-.22,3.3-.63,4.33-1.22,1.78-1.04,3.7-3.85,5.78-8.45.74-1.63,1.48-2.45,2.22-2.45s1.11.82,1.11,2.45c0,.74-.15,2.45-.45,5.11-.3,2.67-.59,4.89-.89,6.67-.15,1.04-.22,2.19-.22,3.45s.04,2.48.11,3.67c.07,1.19.18,2.26.33,3.22.14.97.22,1.67.22,2.11.3,1.63.22,2.78-.22,3.45-.45.67-.82,1-1.11,1-.45,0-.82-.33-1.11-1-.3-.67-.82-1.89-1.56-3.67-.3-1.04-.89-2.37-1.78-4-.89-1.63-2.15-2.67-3.78-3.11-1.33-.29-2.82-.52-4.45-.67-1.63-.15-3.89-.3-6.78-.45-2.89-.15-6.71-.22-11.45-.22h-18.45c-.74,0-1.22.22-1.45.67-.22.44-.33,1.62-.33,3.54,0,2.81.04,6.61.11,11.41.07,4.8.15,9.64.22,14.51.07,4.87.15,9.27.22,13.18.07,3.92.11,6.39.11,7.42,0,1.18.44,2.92,1.33,5.21.89,2.29,2.37,3.88,4.45,4.76.89.44,1.85.78,2.89,1,1.04.22,2.33.44,3.89.66,1.55.22,3.56.37,6,.44,2.44.08,5.52.11,9.22.11,4.59,0,8.41-.04,11.45-.11,3.04-.07,5.52-.26,7.45-.56,1.92-.29,3.48-.74,4.67-1.33,1.18-.59,2.37-1.41,3.56-2.44,1.18-1.18,2.52-2.85,4-5,1.48-2.15,2.81-4.04,4-5.67,1.18-1.48,2.04-2.48,2.56-3s1-.78,1.44-.78c1.19,0,1.26,1.33.22,4-.3,1.33-.67,2.82-1.11,4.45-.44,1.63-.89,3.3-1.33,5-.44,1.71-.89,3.23-1.33,4.58s-.82,2.34-1.11,2.96c-1.04,1.86-2.22,2.79-3.56,2.79-11.86,0-23.67-.15-35.45-.44-11.78-.3-22.19-.44-31.23-.44-1.93,0-4.04.07-6.34.22-2.3.15-4.56.26-6.78.33-2.22.07-4.19.18-5.89.33-1.71.15-2.85.22-3.45.22-2.82,0-4.22-.52-4.22-1.56,0-.59,1.33-1.26,4-2,3.85-.59,6.81-1.81,8.89-3.67,2.07-1.85,3.18-5.3,3.33-10.34.29-8.89.52-17.23.67-25.01.15-7.78.26-15.67.33-23.67.07-8,.11-16.37.11-25.12v-29.56c0-3.11-.19-5.7-.56-7.78-.37-2.07-.96-3.7-1.78-4.89-.82-1.18-1.93-2.11-3.33-2.78-1.41-.67-3.08-1.22-5-1.67-2.22-.44-3.33-1.11-3.33-2Z"/>
        <path class="cls-1" d="M332.83,131.25c0-.89,1.26-1.33,3.78-1.33,4.74,0,9.48-.03,14.23-.11,4.74-.07,9.41-.33,14-.78,2.96-.3,6.37-.63,10.22-1,3.85-.37,7.04-.56,9.56-.56,8.89,0,17.34.82,25.34,2.44,8,1.63,15.85,4.82,23.56,9.56,4.45,2.82,8.67,6.11,12.67,9.89,4,3.78,7.52,8.11,10.56,13,3.04,4.89,5.45,10.34,7.22,16.34,1.78,6,2.67,12.64,2.67,19.89,0,11.11-1.74,20.78-5.22,29.01-3.48,8.22-8,15.19-13.56,20.89-5.56,5.71-11.82,10.3-18.78,13.78-6.97,3.48-13.93,6.11-20.89,7.89-2.97.74-6.37,1.22-10.22,1.44-3.86.22-7.26.33-10.23.33-2.52,0-5.15-.08-7.89-.22-2.74-.15-5.67-.37-8.78-.67-3.41-.3-6.67-.56-9.78-.78-3.11-.22-6.37-.33-9.78-.33-2.97,0-5.97.07-9,.22-3.04.15-5.15.22-6.34.22-2.82,0-4.22-.59-4.22-1.78,0-.89,1.26-1.41,3.78-1.56,4-.74,6.67-1.85,8-3.33,1.33-1.48,2.15-4.37,2.44-8.67.15-1.33.3-3.56.44-6.67.15-3.11.26-6.7.33-10.78.07-4.07.11-8.45.11-13.11v-13.89c0-9.93-.04-18.63-.11-26.12-.08-7.48-.15-13.89-.22-19.23-.08-5.33-.19-9.67-.33-13-.15-3.33-.3-5.81-.44-7.45-.15-1.92-.33-3.56-.56-4.89-.22-1.33-.71-2.44-1.44-3.33-.74-.89-1.74-1.59-3-2.11-1.26-.52-2.93-1-5-1.44-2.08-.29-3.11-.89-3.11-1.78ZM381.07,131.25c-2.97,0-5.82.26-8.56.78-2.74.52-4.71,1-5.89,1.44-.45.15-.97.67-1.56,1.56-.59.89-.89,2.37-.89,4.45-.15,1.93-.26,3.97-.33,6.11-.08,2.15-.15,5.19-.22,9.11-.08,3.93-.11,9.08-.11,15.45v24.9c0,11.56.15,21.04.44,28.45.29,7.41.59,13.86.89,19.34.45,5.78,1.15,10.15,2.11,13.11.96,2.97,2.85,5.48,5.67,7.56,1.63,1.19,4,2.3,7.11,3.33,3.11,1.04,6.74,1.56,10.89,1.56,9.78,0,17.93-1.78,24.45-5.33,3.41-1.78,7-4.26,10.78-7.45,3.78-3.18,7.26-7.19,10.45-12,3.18-4.81,5.81-10.63,7.89-17.45,2.07-6.81,3.11-14.82,3.11-24.01,0-10.22-1.63-19.93-4.89-29.12-3.26-9.19-8.45-17.04-15.56-23.56-6.22-5.63-12.86-10.08-19.89-13.34-7.04-3.26-15.67-4.89-25.9-4.89Z"/>
        <path class="cls-1" d="M478.22,131.25c0-.89,1.26-1.33,3.78-1.33,4.74,0,9.48-.03,14.23-.11,4.74-.07,9.41-.33,14-.78,2.96-.3,6.37-.63,10.22-1,3.85-.37,7.04-.56,9.56-.56,8.89,0,17.34.82,25.34,2.44,8,1.63,15.86,4.82,23.56,9.56,4.45,2.82,8.67,6.11,12.67,9.89,4,3.78,7.52,8.11,10.56,13,3.04,4.89,5.45,10.34,7.22,16.34,1.78,6,2.67,12.64,2.67,19.89,0,11.11-1.74,20.78-5.22,29.01-3.48,8.22-8,15.19-13.56,20.89-5.56,5.71-11.82,10.3-18.78,13.78-6.97,3.48-13.93,6.11-20.89,7.89-2.97.74-6.37,1.22-10.22,1.44-3.86.22-7.26.33-10.23.33-2.52,0-5.15-.08-7.89-.22-2.74-.15-5.67-.37-8.78-.67-3.41-.3-6.67-.56-9.78-.78-3.11-.22-6.37-.33-9.78-.33-2.97,0-5.97.07-9,.22-3.04.15-5.15.22-6.33.22-2.82,0-4.22-.59-4.22-1.78,0-.89,1.26-1.41,3.78-1.56,4-.74,6.67-1.85,8-3.33,1.33-1.48,2.15-4.37,2.45-8.67.15-1.33.29-3.56.44-6.67.15-3.11.26-6.7.33-10.78.07-4.07.11-8.45.11-13.11v-13.89c0-9.93-.04-18.63-.11-26.12-.08-7.48-.15-13.89-.22-19.23-.08-5.33-.19-9.67-.33-13-.15-3.33-.3-5.81-.44-7.45-.15-1.92-.33-3.56-.56-4.89s-.71-2.44-1.44-3.33c-.74-.89-1.74-1.59-3-2.11-1.26-.52-2.93-1-5-1.44-2.08-.29-3.11-.89-3.11-1.78ZM526.46,131.25c-2.96,0-5.82.26-8.56.78-2.74.52-4.71,1-5.89,1.44-.45.15-.96.67-1.56,1.56-.59.89-.89,2.37-.89,4.45-.15,1.93-.26,3.97-.33,6.11-.08,2.15-.15,5.19-.22,9.11-.08,3.93-.11,9.08-.11,15.45v24.9c0,11.56.14,21.04.44,28.45.3,7.41.59,13.86.89,19.34.44,5.78,1.15,10.15,2.11,13.11.96,2.97,2.85,5.48,5.67,7.56,1.63,1.19,4,2.3,7.11,3.33,3.11,1.04,6.74,1.56,10.89,1.56,9.78,0,17.93-1.78,24.45-5.33,3.41-1.78,7-4.26,10.78-7.45,3.78-3.18,7.26-7.19,10.45-12,3.19-4.81,5.81-10.63,7.89-17.45,2.07-6.81,3.11-14.82,3.11-24.01,0-10.22-1.63-19.93-4.89-29.12-3.26-9.19-8.45-17.04-15.56-23.56-6.22-5.63-12.86-10.08-19.89-13.34-7.04-3.26-15.67-4.89-25.9-4.89Z"/>
        <path class="cls-1" d="M623.5,130.36c0-.74,1.11-1.11,3.33-1.11,3.7,0,6.93.15,9.67.44,2.74.3,5.81.44,9.22.44,3.7,0,7.19-.15,10.45-.44,3.26-.3,6.15-.44,8.67-.44,2.22,0,3.33.37,3.33,1.11,0,1.19-1.11,1.85-3.33,2-2.22.3-3.97.78-5.22,1.44-1.26.67-2.22,1.52-2.89,2.56-.67,1.04-1.08,2.37-1.22,4-.15,1.63-.3,3.56-.45,5.78-.15,2.82-.26,6.37-.33,10.67-.08,4.3-.11,8.86-.11,13.67v26.34c0,16.45.07,29.38.22,38.79.15,9.41.37,15.82.67,19.23.15,2.08.37,3.78.67,5.11.29,1.33.74,2.41,1.33,3.22.59.82,1.41,1.45,2.45,1.89,1.04.44,2.37.89,4,1.33,1.63.3,2.67.63,3.11,1,.44.37.67.85.67,1.44,0,.89-1.41,1.33-4.22,1.33-1.78,0-4-.11-6.67-.33-2.67-.22-5.63-.33-8.89-.33-5.63,0-10.15.18-13.56.56-3.41.37-6.15.56-8.22.56-2.37,0-3.56-.52-3.56-1.56,0-.3.33-.63,1-1,.67-.37,1.96-.78,3.89-1.22,2.07-.45,3.74-1.04,5-1.78,1.26-.74,2.22-1.81,2.89-3.22.67-1.41,1.15-3.18,1.44-5.33.3-2.15.45-4.92.45-8.34,0-2.07.04-5.41.11-10,.07-4.59.11-9.74.11-15.45v-59.24c0-5.48-.08-10-.22-13.56-.15-3.56-.37-6.15-.67-7.78-.44-3.7-1.37-6.07-2.78-7.11-1.41-1.03-4.04-2-7.89-2.89-1.63-.44-2.45-1.03-2.45-1.78Z"/>
        <path class="cls-1" d="M681.27,130.58c0-.44.33-.81,1-1.11.67-.29,1.89-.44,3.67-.44,3.41,0,7.63.19,12.67.56,5.04.37,9.7.56,14,.56.59,0,1.18.26,1.78.78.59.52,1.7,1.82,3.33,3.89,2.37,3.11,5.85,7.37,10.45,12.78,4.59,5.41,9.74,11.37,15.45,17.89,5.7,6.52,11.74,13.41,18.12,20.67,6.37,7.26,12.56,14.26,18.56,21.01,6,6.74,11.59,13,16.78,18.78,5.19,5.78,9.48,10.52,12.89,14.23.29.3.59.41.89.33.29-.07.45-.63.45-1.67v-8c0-4-.04-8.78-.11-14.34-.08-5.56-.15-11.52-.22-17.89-.08-6.37-.15-12.63-.22-18.78-.08-6.15-.19-11.85-.33-17.12-.15-5.26-.22-9.52-.22-12.78s-.3-5.89-.89-7.89c-.59-2-1.41-3.63-2.45-4.89-1.04-1.26-2.3-2.18-3.78-2.78-1.48-.59-3.11-1.11-4.89-1.56-2.82-.74-4.22-1.41-4.22-2s.44-1,1.33-1.22c.89-.22,1.92-.33,3.11-.33,2.07,0,4.52.15,7.33.44,2.81.3,5.48.44,8,.44,3.26,0,6.19-.15,8.78-.44,2.59-.3,4.48-.44,5.67-.44,2.37,0,3.56.44,3.56,1.33,0,.59-.37,1.04-1.11,1.33-.74.3-1.63.59-2.67.89-4.3,1.48-6.93,3.33-7.89,5.56-.96,2.22-1.67,4.82-2.11,7.78-.15,1.48-.3,3.86-.45,7.11-.15,3.26-.26,7.15-.33,11.67-.08,4.52-.15,9.37-.22,14.56-.08,5.19-.15,10.37-.22,15.56-.08,5.19-.11,10.15-.11,14.89v12.23c0,10.08-.08,18.56-.22,25.45-.15,6.89-.08,13.23.22,19,.15,4.59-.52,6.89-2,6.89-1.19,0-3.63-2.45-7.34-7.33-2.08-2.67-5.3-6.56-9.67-11.67-4.37-5.11-9.45-11-15.23-17.67s-12-13.85-18.67-21.56c-6.67-7.7-13.34-15.45-20-23.23-6.67-7.78-13.15-15.3-19.45-22.56-6.3-7.26-11.97-13.78-17-19.56-.59-.74-1.04-1.04-1.33-.89-.3.15-.44.59-.44,1.33v8.56c0,4.52-.04,9.86-.11,16-.08,6.15-.15,12.75-.22,19.78-.08,7.04-.15,13.71-.22,20.01-.08,6.3-.11,11.86-.11,16.67v9.67c.15,4.89.37,8.71.67,11.45.29,2.74.89,5.08,1.78,7,.89,2.08,2.48,3.63,4.78,4.67,2.3,1.04,4.41,1.85,6.34,2.45,2.52.74,3.78,1.63,3.78,2.67,0,.59-.44.96-1.33,1.11-.89.15-1.85.22-2.89.22-2.08,0-4.56-.19-7.45-.56-2.89-.37-6.04-.56-9.45-.56s-6.63.18-9.67.56c-3.04.37-5,.56-5.89.56-1.63,0-2.67-.15-3.11-.44-.44-.3-.67-.59-.67-.89,0-.74,1.41-1.48,4.22-2.22,1.92-.59,3.59-1.22,5-1.89,1.41-.67,2.56-1.59,3.45-2.78.89-1.18,1.59-2.78,2.11-4.78.52-2,.92-4.56,1.22-7.67.15-1.33.29-4.26.44-8.78.15-4.52.33-9.89.56-16.11.22-6.22.41-12.93.55-20.12.15-7.19.3-14.12.45-20.78.15-6.67.26-12.78.33-18.34.07-5.56.11-9.82.11-12.78,0-3.26-.11-5.85-.33-7.78-.22-1.92-.52-3.45-.89-4.56-.37-1.11-.82-1.92-1.33-2.44-.52-.52-1-1-1.45-1.44-1.48-1.18-3-2.07-4.56-2.67-1.56-.59-3.59-1.11-6.11-1.56-2.82-.44-4.22-1.11-4.22-2Z"/>
        <path class="cls-1" d="M922.69,126.13c5.48,0,10.37.48,14.67,1.44,4.29.97,7.85,1.82,10.67,2.56,2.81.74,5.7,1.67,8.67,2.78,2.96,1.11,5.11,1.97,6.45,2.56.74.3,1.3.93,1.67,1.89.37.97.55,2.04.55,3.22,0,.44.11,1.33.33,2.67.22,1.33.45,2.78.67,4.33.22,1.56.41,3.04.56,4.45.15,1.41.29,2.41.45,3,.29,1.48.26,2.56-.11,3.22-.37.67-.71,1-1,1-.59,0-1-.18-1.22-.56-.22-.37-.71-1.37-1.45-3-3.11-8.15-8.08-14.56-14.89-19.23-6.82-4.67-16.08-7-27.79-7-7.86,0-15.38,1.56-22.56,4.67-7.19,3.11-13.38,7.48-18.56,13.11-5.33,5.78-9.78,13.19-13.34,22.23-3.56,9.04-5.33,19.49-5.33,31.34,0,6.67.81,12.86,2.45,18.56,1.63,5.71,3.67,10.93,6.11,15.67,2.45,4.74,5.19,8.97,8.22,12.67,3.04,3.71,6.04,6.75,9,9.11,5.19,4.3,10.7,7.52,16.56,9.67,5.85,2.15,11.67,3.22,17.45,3.22,4.74,0,9.37-.85,13.89-2.56,4.52-1.7,8.19-3.96,11-6.78,1.19-1.48,1.96-3.15,2.33-5,.37-1.85.7-4.19,1-7,.14-1.04.26-2.63.33-4.78.07-2.15.15-4.45.22-6.89.07-2.45.07-4.89,0-7.33-.08-2.45-.19-4.56-.33-6.33-.3-3.85-1.3-6.56-3-8.11-1.71-1.56-4.93-2.7-9.67-3.45-1.19-.15-2.19-.37-3-.67-.82-.29-1.22-.67-1.22-1.11s.41-.81,1.22-1.11c.81-.29,2.26-.44,4.33-.44,2.52,0,5.3.15,8.34.44,3.04.3,6.78.44,11.22.44,3.7,0,6.81-.11,9.34-.33,2.52-.22,4.15-.33,4.89-.33,2.52,0,3.78.44,3.78,1.33,0,.74-.48,1.26-1.44,1.56-.97.3-1.97.59-3,.89-.89.3-1.63.63-2.22,1-.59.37-1.11,1.08-1.55,2.11-.45,1.04-.74,2.44-.89,4.22-.15,1.78-.22,4.15-.22,7.11,0,2.67.07,5.48.22,8.45.15,2.97.26,5.78.33,8.45.07,2.67.18,5,.33,7,.14,2,.22,3.37.22,4.11,0,1.48-.04,2.63-.11,3.45-.08.82-.56,1.44-1.45,1.89-1.19.59-2.71,1.33-4.56,2.22-1.86.89-3.97,1.93-6.34,3.11-4.89,2.08-10.26,3.97-16.11,5.67-5.86,1.7-11.67,2.56-17.45,2.56-11.86,0-22.42-1.82-31.68-5.45-9.26-3.63-17.38-8.56-24.34-14.78-8-6.67-14-14.48-18-23.45-4-8.96-6-18.78-6-29.45,0-11.56,2.37-22.19,7.11-31.9,4.74-9.7,12.37-18.56,22.89-26.56,2.52-1.78,5.34-3.63,8.45-5.56,3.11-1.92,6.7-3.63,10.78-5.11,4.07-1.48,8.74-2.7,14-3.67,5.26-.96,11.3-1.44,18.12-1.44Z"/>
      </g>
      <g>
        <path class="cls-1" d="M274.77,37.85c-.92,0-1.72-.55-1.78-.92-.06-.31.12-1.1.74-1.66,2.82-2.52,7.3-7.05,10.55-10.67,3.19-3.68,5.89-7.85,5.89-12.33s-3.13-6.87-6.38-6.87c-3.01,0-5.89,2.15-7.42,3.68-.61.67-1.29,1.1-1.53,1.1s-.92-.37-.92-.98c0-.31.25-1.04.8-1.96,1.96-3.07,6.26-6.44,10.86-6.44,6.07,0,10.49,4.29,10.49,10.43,0,3.01-1.17,6.01-4.66,9.94-2.76,3.07-9.88,10.12-10.49,10.73-.12.12.06.61.25.74,1.29.61,7.36.61,9.63.61,1.1,0,2.33-.06,2.94-.25.43-.18,1.9-.86,3.43-2.64.55-.61,1.1-1.23,1.29-1.23.67,0,1.23,1.23.86,1.84-1.1,2.39-2.33,5.58-2.51,6.44-.06.25-.49.61-.92.61-8.34,0-14.91-.18-17.85-.18h-3.25Z"/>
        <path class="cls-1" d="M304.17,37.85c-.92,0-1.72-.55-1.78-.92-.06-.31.12-1.1.74-1.66,2.82-2.52,7.3-7.05,10.55-10.67,3.19-3.68,5.89-7.85,5.89-12.33s-3.13-6.87-6.38-6.87c-3.01,0-5.89,2.15-7.42,3.68-.61.67-1.29,1.1-1.53,1.1s-.92-.37-.92-.98c0-.31.25-1.04.8-1.96,1.96-3.07,6.26-6.44,10.86-6.44,6.07,0,10.49,4.29,10.49,10.43,0,3.01-1.17,6.01-4.66,9.94-2.76,3.07-9.88,10.12-10.49,10.73-.12.12.06.61.25.74,1.29.61,7.36.61,9.63.61,1.1,0,2.33-.06,2.94-.25.43-.18,1.9-.86,3.43-2.64.55-.61,1.1-1.23,1.29-1.23.67,0,1.23,1.23.86,1.84-1.1,2.39-2.33,5.58-2.51,6.44-.06.25-.49.61-.92.61-8.34,0-14.91-.18-17.85-.18h-3.25Z"/>
        <path class="cls-1" d="M345.51,0c2.45,0,7.18.37,9.02.37.31,0,1.17.8,1.23.92.61,1.04,2.94,3.93,5.89,7.12,3.25,3.5,14.78,16.68,17.11,18.83.18.18.55-.12.61-.43.12-1.23.43-12.33.12-17.3-.31-5.15-.37-5.95-4.54-6.87-1.47-.31-1.72-.98-1.72-1.35,0-.43.55-.98,1.84-.98,2.21,0,2.7.06,4.29.06,2.51,0,5.7-.37,6.93-.37,1.29,0,1.9.61,1.9,1.1,0,.37-.18.8-2.27,1.41-2.09.67-2.94,1.72-3.07,3.07-.18,1.96-.55,14.91-.55,20.86,0,2.7.12,6.75.12,9.57,0,2.58-.55,3.01-1.29,3.01-.31,0-1.59-.67-2.33-1.78-1.53-2.15-4.72-6.2-6.44-8.1-2.33-2.7-14.17-16.32-16.87-19.26-.37-.31-.61,0-.67.61-.06,1.35-.25,3.99-.25,6.62s.18,9.51.25,11.16c.18,5.4.49,6.01,3.93,7.12,1.41.43,2.02.86,2.02,1.66,0,.74-1.17,1.04-1.96,1.04-1.72,0-2.94-.25-4.42-.25-2.88,0-6.62.37-7.42.37-.98,0-1.96-.25-1.96-1.04,0-.55.55-1.04,1.66-1.35,3.99-1.04,4.35-2.58,4.54-5.03.31-4.11.8-21.65.8-23.62,0-.8-.43-1.72-2.08-3.25-.86-.92-2.7-1.41-3.86-1.59-.98-.12-1.84-.86-1.84-1.59,0-.43.49-.74,1.29-.74Z"/>
        <path class="cls-1" d="M416.47,25.03c0,4.66-1.9,7.97-3.99,9.88-2.21,2.02-5.21,3.68-9.26,3.68-3.62,0-7.12-1.47-9.69-3.99-2.64-2.58-3.62-6.32-3.62-9.08,0-4.29,2.21-8.04,4.91-10.18,2.02-1.72,5.4-3.13,8.59-3.13,8.46,0,13,7.18,13.07,12.82ZM398.31,16.5c-.61.67-2.51,3.44-2.51,8.1,0,3.44,1.17,7.67,3.68,9.81.61.49,2.39,1.66,4.66,1.66,1.47,0,3.44-.86,4.66-2.39,1.29-1.66,1.66-4.66,1.66-8.22,0-5.21-2.76-10.67-7.97-10.67-1.35,0-3.31.8-4.17,1.72Z"/>
        <path class="cls-1" d="M418.91,12.64c.61,0,3.25.31,4.66.31h4.78c.8,0,1.35.49,1.35.92,0,.8-.61,1.04-2.02,1.47-.8.18-1.17.61-.8,1.96.18.61,2.51,6.38,5.09,12.64.12.25.43.25.49,0,1.47-3.56,3.8-8.96,4.91-11.96.55-1.53.37-2.39-1.41-2.76-1.41-.31-1.72-.86-1.72-1.29,0-.8.8-1.04,1.78-1.04,1.04,0,2.27.06,3.37.06s2.76-.31,4.29-.31c.92,0,1.53.55,1.53.92,0,.67-.67,1.17-1.59,1.35-1.04.25-2.33.92-3.13,2.76-1.1,2.39-2.7,5.46-5.03,11.04-1.59,3.86-2.76,7.3-3.25,8.83-.31.92-1.29,1.23-1.53,1.23-.49,0-1.23-.67-1.41-1.04-.18-.43-1.41-4.91-2.64-8.22-1.17-3.13-4.85-11.65-5.27-12.39-.43-.74-.8-1.53-2.82-2.21-.86-.31-1.53-.67-1.53-1.23,0-.43.74-1.04,1.9-1.04Z"/>
        <path class="cls-1" d="M465.76,15.89c.8,1.17,1.04,2.76,1.04,4.29,0,.67-1.04,1.84-1.66,1.84-.43,0-12.08.18-13.19.18-.18,0-.86.37-.98.67-.25.43-.31,1.53-.31,1.9,0,5.46,4.11,9.63,9.39,9.63,2.39,0,5.03-1.53,6.2-2.33.25-.18.74.12.74.8s-.31,1.35-.8,1.9c-2.27,2.39-5.52,3.8-8.77,3.8-7.67,0-12.02-5.21-12.02-12.7,0-4.97,2.27-9.2,5.95-11.59,2.02-1.35,4.6-2.09,7.18-2.09,2.94,0,5.77,1.29,7.24,3.68ZM451.41,19.38c-.06.25.25.61.37.61.67.06,2.7.12,4.48.12,2.33,0,5.15-.12,5.15-2.21,0-1.84-1.47-3.5-4.72-3.5-1.53,0-4.48,1.9-5.28,4.97Z"/>
        <path class="cls-1" d="M472.26,14.54c1.35-.55,2.7-1.1,4.72-2.39.43-.31.55-.37.67-.37.43,0,.98.55.98.67v2.58c0,.25.31.55.61.31,1.72-1.17,5.15-3.13,8.46-3.13,3.62,0,5.52,1.9,6.44,3.31.06.12.55.31.8.18.92-.67,2.94-1.96,4.54-2.64,1.35-.55,2.33-.86,4.23-.86,5.4,0,7.42,5.03,7.61,9.26.18,3.86.43,10.61.43,12.15,0,1.04,1.29,1.78,2.33,2.15.8.31,1.41.61,1.41,1.23,0,.74-.8.98-1.35.98-1.41,0-3.31-.12-4.72-.12s-3.13.12-4.54.12c-.98,0-1.72-.55-1.72-1.04,0-.25.31-.92,1.47-1.23,1.53-.43,1.96-1.35,1.96-2.7,0-2.94-.06-7.73-.06-10.37-.06-2.39-.25-3.37-.98-4.54-.74-1.1-2.21-2.02-4.48-2.02-2.64,0-4.97,1.17-5.4,1.53-.25.25-.61,1.17-.61,1.9,0,9.63.06,11.9.18,13.31.06,1.41.8,2.21,2.15,2.64,1.23.43,1.59.8,1.59,1.47s-.74,1.04-1.47,1.04c-1.6,0-3.56-.12-5.15-.12-1.35,0-3,.12-4.35.12-.98,0-1.84-.61-1.84-1.1s.55-.86,1.53-1.23c1.66-.61,2.39-.98,2.45-3.37l.18-11.78c0-1.23-.86-2.58-.92-2.7-.86-1.1-2.33-1.9-4.72-1.9s-4.05.8-5.28,1.66c-.12.12-.67,1.41-.67,1.59,0,10.8,0,12.21.12,13.8.12,1.72.92,2.15,2.02,2.7,1.17.61,1.35.92,1.35,1.35,0,.61-.61,1.04-1.53,1.04-1.47,0-3.5-.18-5.34-.18-1.41,0-2.76.31-4.17.31-1.04,0-1.72-.49-1.72-1.04s.55-.92,1.47-1.29c2.39-.98,2.64-1.47,2.7-3.44.12-2.27.25-7.24.25-12.88,0-.61-.31-1.41-1.35-2.21-1.1-.86-1.35-1.1-1.35-1.29,0-.49.55-1.23,1.04-1.47Z"/>
        <path class="cls-1" d="M516.64,12.64c.61,0,3.25.31,4.66.31h4.78c.8,0,1.35.49,1.35.92,0,.8-.61,1.04-2.02,1.47-.8.18-1.17.61-.8,1.96.18.61,2.51,6.38,5.09,12.64.12.25.43.25.49,0,1.47-3.56,3.8-8.96,4.91-11.96.55-1.53.37-2.39-1.41-2.76-1.41-.31-1.72-.86-1.72-1.29,0-.8.8-1.04,1.78-1.04,1.04,0,2.27.06,3.37.06s2.76-.31,4.29-.31c.92,0,1.53.55,1.53.92,0,.67-.67,1.17-1.59,1.35-1.04.25-2.33.92-3.13,2.76-1.1,2.39-2.7,5.46-5.03,11.04-1.59,3.86-2.76,7.3-3.25,8.83-.31.92-1.29,1.23-1.53,1.23-.49,0-1.23-.67-1.41-1.04-.18-.43-1.41-4.91-2.64-8.22-1.17-3.13-4.85-11.65-5.28-12.39-.43-.74-.8-1.53-2.82-2.21-.86-.31-1.53-.67-1.53-1.23,0-.43.74-1.04,1.9-1.04Z"/>
        <path class="cls-1" d="M563.5,15.89c.8,1.17,1.04,2.76,1.04,4.29,0,.67-1.04,1.84-1.66,1.84-.43,0-12.08.18-13.19.18-.18,0-.86.37-.98.67-.25.43-.31,1.53-.31,1.9,0,5.46,4.11,9.63,9.39,9.63,2.39,0,5.03-1.53,6.2-2.33.25-.18.74.12.74.8s-.31,1.35-.8,1.9c-2.27,2.39-5.52,3.8-8.77,3.8-7.67,0-12.02-5.21-12.02-12.7,0-4.97,2.27-9.2,5.95-11.59,2.02-1.35,4.6-2.09,7.18-2.09,2.94,0,5.77,1.29,7.24,3.68ZM549.14,19.38c-.06.25.25.61.37.61.67.06,2.7.12,4.48.12,2.33,0,5.15-.12,5.15-2.21,0-1.84-1.47-3.5-4.72-3.5-1.53,0-4.48,1.9-5.28,4.97Z"/>
        <path class="cls-1" d="M569.36,14.48c.98-.55,2.88-1.41,4.17-2.09.8-.37,1.29-.61,1.78-.61.25,0,.74.67.74.86.06.86.06,2.09.12,3.01,0,.18.43.43.61.18,1.78-1.96,4.23-3.62,6.62-3.62,1.78,0,3.37,1.23,3.37,1.9,0,1.35-1.59,3.07-2.45,3.74-.31.31-.74.49-.98.49-.43,0-.8-.18-1.41-.61-.49-.37-1.41-.74-2.21-.74-1.1,0-2.02.37-2.82,1.41-.25.31-.55,1.04-.55,1.41,0,.61-.06,9.45.12,11.59.18,2.88.67,3.5,3.43,4.23,1.41.37,2.21.86,2.21,1.41,0,.49-.8,1.04-1.53,1.04-1.9,0-5.03-.25-6.81-.25-2.15,0-3.25.18-4.97.18-1.1,0-1.66-.67-1.66-.98,0-.67.67-1.04,1.41-1.29,2.39-.86,2.58-1.78,2.64-3.19.12-2.76.18-10.31.18-13.56,0-.37-.06-.8-1.53-1.84-.67-.49-1.35-1.04-1.35-1.41,0-.55.37-1.04.86-1.29Z"/>
        <path class="cls-1" d="M604.45,37.85c-.92,0-1.72-.55-1.78-.92-.06-.31.12-1.1.74-1.66,2.82-2.52,7.3-7.05,10.55-10.67,3.19-3.68,5.89-7.85,5.89-12.33s-3.13-6.87-6.38-6.87c-3.01,0-5.89,2.15-7.42,3.68-.61.67-1.29,1.1-1.53,1.1s-.92-.37-.92-.98c0-.31.25-1.04.8-1.96,1.96-3.07,6.26-6.44,10.86-6.44,6.07,0,10.49,4.29,10.49,10.43,0,3.01-1.17,6.01-4.66,9.94-2.76,3.07-9.88,10.12-10.49,10.73-.12.12.06.61.25.74,1.29.61,7.36.61,9.63.61,1.1,0,2.33-.06,2.94-.25.43-.18,1.9-.86,3.43-2.64.55-.61,1.1-1.23,1.29-1.23.67,0,1.23,1.23.86,1.84-1.1,2.39-2.33,5.58-2.52,6.44-.06.25-.49.61-.92.61-8.34,0-14.91-.18-17.85-.18h-3.25Z"/>
        <path class="cls-1" d="M658.49,19.2c0,8.53-3.13,19.38-13.19,19.38s-12.51-10.92-12.51-18.52c0-9.32,3.99-19.26,13.37-19.26s12.33,10.92,12.33,18.4ZM641.31,5.95c-1.17,2.09-2.64,5.95-2.64,14.35,0,5.46,1.84,15.76,7.36,15.76,1.41,0,3.25-.74,4.48-3.13,1.23-2.51,2.09-7.85,2.09-13.56,0-6.99-1.84-16.19-7.36-16.19-1.59,0-2.88,1.04-3.93,2.76Z"/>
        <path class="cls-1" d="M663.31,37.85c-.92,0-1.72-.55-1.78-.92-.06-.31.12-1.1.74-1.66,2.82-2.52,7.3-7.05,10.55-10.67,3.19-3.68,5.89-7.85,5.89-12.33s-3.13-6.87-6.38-6.87c-3.01,0-5.89,2.15-7.42,3.68-.61.67-1.29,1.1-1.53,1.1s-.92-.37-.92-.98c0-.31.25-1.04.8-1.96,1.96-3.07,6.26-6.44,10.86-6.44,6.07,0,10.49,4.29,10.49,10.43,0,3.01-1.17,6.01-4.66,9.94-2.76,3.07-9.88,10.12-10.49,10.73-.12.12.06.61.25.74,1.29.61,7.36.61,9.63.61,1.1,0,2.33-.06,2.94-.25.43-.18,1.9-.86,3.43-2.64.55-.61,1.1-1.23,1.29-1.23.67,0,1.23,1.23.86,1.84-1.1,2.39-2.33,5.58-2.52,6.44-.06.25-.49.61-.92.61-8.34,0-14.91-.18-17.85-.18h-3.25Z"/>
        <path class="cls-1" d="M707.8,36.56c-3.99,3.13-10.67,4.66-14.11,4.66-.55,0-2.09-.37-2.09-1.35,0-.31.61-.92.86-.98,4.97-.67,15.03-3.07,15.03-10.98,0-2.76-1.29-5.21-4.66-6.75-3.19-1.53-6.32-2.33-10.73-3.13-.74-.06-1.29-1.53-1.29-2.02,0-2.27,2.27-8.77,3.25-11.1.25-.61,1.47-1.84,1.96-2.02,1.53-.49,10.24-2.09,14.29-2.09.37,0,.8.49.8.74,0,1.84-2.02,4.66-3.5,4.97-3.56.37-8.46.49-10.49.74-.86.18-1.47.55-1.84,1.9-.25.74-.86,2.27-.86,2.51-.12.49.12,1.35.98,1.53,3.68.8,8.1,2.02,11.41,3.68,4.48,2.33,6.5,6.07,6.5,9.75,0,4.42-2.76,7.73-5.52,9.94Z"/>
      </g>
      <g>
        <path class="cls-1" d="M411.99,540.21c.19,0,.47-.02.86-.05.39-.03.81-.07,1.26-.12.45-.05.92-.09,1.4-.12.48-.03.91-.05,1.28-.05,2.2,0,3.97.45,5.31,1.35.75.56,1.3,1.2,1.65,1.93.36.73.54,1.62.54,2.68s-.19,2.01-.56,2.86c-.37.85-.88,1.61-1.54,2.26-.65.65-1.41,1.21-2.28,1.68-.87.47-1.8.85-2.79,1.16-.28.12-.39.31-.33.56.12.59.32,1.34.58,2.26.26.92.55,1.88.86,2.89.31,1.01.65,2.02,1.03,3.03.37,1.01.75,1.9,1.12,2.68.28.59.54,1.08.77,1.47.23.39.5.71.82.95.31.25.69.43,1.14.54.45.11,1,.16,1.65.16.5,0,.76.09.79.26.03.17-.22.3-.75.4-.25.06-.57.11-.96.14-.39.03-1.09.05-2.12.05-.31,0-.61-.02-.88-.05-.28-.03-.56-.12-.84-.28s-.55-.39-.82-.7c-.26-.31-.54-.76-.81-1.35-.37-.99-.85-2.31-1.44-3.94s-1.3-3.81-2.14-6.54c-.06-.25-.21-.56-.44-.93-.23-.37-.44-.57-.63-.61-.34-.06-.74-.09-1.19-.07-.45.02-1.02.02-1.7.02-.12,0-.28.16-.47.47-.09.12-.25.53-.46,1.21-.22.68-.47,1.5-.75,2.45-.28.95-.57,1.96-.86,3.03s-.55,2.06-.77,2.96c-.37,1.37-.44,2.27-.21,2.7.23.44.92.71,2.07.84.53.06.75.19.67.37-.08.19-.37.28-.86.28-.65,0-1.41-.03-2.26-.09-.85-.06-1.62-.09-2.31-.09s-1.21.03-1.68.09c-.47.06-.95.09-1.44.09-.68,0-.97-.1-.86-.3s.44-.33,1-.4c.4-.03.75-.1,1.05-.21.29-.11.56-.28.79-.51.23-.23.45-.56.65-.98.2-.42.41-.97.63-1.65.5-1.46.99-2.96,1.49-4.52.5-1.55.97-3.07,1.42-4.54.45-1.47.88-2.88,1.28-4.21.4-1.33.76-2.52,1.07-3.56.31-1.04.56-1.89.75-2.54.19-.65.29-1.06.33-1.21.22-.75.37-1.34.46-1.79.09-.45.08-.8-.05-1.05-.12-.25-.37-.42-.72-.51-.36-.09-.88-.16-1.56-.19-.5-.03-.79-.15-.88-.35-.09-.2.17-.3.79-.3h2.84ZM416.09,540.68c-.53,0-.87.09-1.03.26-.16.17-.28.37-.37.58-.19.37-.42.95-.7,1.75-.28.79-.59,1.73-.93,2.82-.34,1.09-.71,2.28-1.12,3.59-.4,1.3-.82,2.64-1.26,4.01,0,.34.06.51.19.51,1.21,0,2.27-.09,3.17-.26.9-.17,1.69-.38,2.38-.63.68-.25,1.24-.51,1.68-.79s.79-.53,1.07-.75c.4-.34.77-.76,1.09-1.26.33-.5.6-1.01.82-1.54.22-.53.38-1.04.49-1.54.11-.5.16-.93.16-1.3,0-.75-.1-1.44-.3-2.1s-.52-1.23-.95-1.72c-.44-.5-1.02-.89-1.75-1.19-.73-.29-1.61-.44-2.63-.44Z"/>
        <path class="cls-1" d="M428.73,551.63c.62,0,1.14.23,1.56.7.42.47.77,1.1,1.05,1.91.34,1.02.54,2.14.61,3.35.06,1.21.09,2.51.09,3.91,0,.37,0,.8-.02,1.28-.02.48-.05.98-.09,1.49-.05.51-.1,1.02-.16,1.54-.06.51-.12.97-.19,1.37-.06.37-.04.55.07.54.11-.02.24-.15.4-.4.65-1.3,1.27-2.73,1.86-4.28.59-1.55,1.11-3.06,1.56-4.52.45-1.46.8-2.79,1.05-3.98.25-1.19.37-2.09.37-2.68,0-.06.04-.13.12-.21.08-.08.15-.12.21-.12.19,0,.35.06.49.19.14.12.26.28.35.47.09.19.15.37.19.56s.05.34.05.47c0,.71-.23,1.75-.7,3.12-.47,1.37-1.01,2.8-1.63,4.31-.62,1.51-1.25,2.93-1.89,4.28s-1.12,2.35-1.47,3c-.5.93-.9,1.66-1.21,2.19-.31.53-.54.92-.7,1.16-.5.84-1.03,1.67-1.61,2.49-.58.82-1.17,1.61-1.77,2.35s-1.2,1.42-1.77,2.03c-.58.61-1.11,1.11-1.61,1.51-1.37,1.09-2.49,1.78-3.38,2.1-.88.31-1.62.47-2.21.47s-1.09-.16-1.49-.49c-.4-.33-.61-.8-.61-1.42,0-.53.16-.95.49-1.26.33-.31.61-.47.86-.47s.4.05.44.14c.05.09.1.31.16.65.12.34.33.65.61.93.28.28.68.42,1.21.42.84,0,1.65-.25,2.45-.75.79-.5,1.65-1.3,2.58-2.42.31-.37.64-.78,1-1.21.36-.44.73-.97,1.12-1.61.39-.64.79-1.41,1.21-2.33.42-.92.85-2.06,1.28-3.42.22-1.09.39-2.24.51-3.45s.19-2.41.19-3.61-.06-2.35-.19-3.47c-.12-1.12-.33-2.13-.61-3.03-.43-1.21-.95-1.82-1.54-1.82-.34,0-.64.12-.88.35-.25.23-.47.51-.65.84-.19.33-.33.64-.44.95-.11.31-.18.54-.21.7-.12.53-.24.75-.35.68-.11-.08-.16-.32-.16-.72,0-.68.11-1.32.33-1.91.22-.59.5-1.09.84-1.51.34-.42.71-.75,1.09-1,.39-.25.77-.37,1.14-.37Z"/>
        <path class="cls-1" d="M448.77,551.58c.68,0,1.24.19,1.68.56.43.37.77.83,1,1.37.23.54.39,1.13.47,1.75.08.62.12,1.18.12,1.68,0,1.21-.19,2.4-.56,3.56-.37,1.16-.84,2.24-1.4,3.21-.56.98-1.16,1.84-1.79,2.58-.64.75-1.2,1.3-1.7,1.68-.81.59-1.53.99-2.17,1.21-.64.22-1.28.33-1.93.33-.78,0-1.49-.4-2.14-1.21-.65-.81-.98-2.1-.98-3.87,0-.62.08-1.33.23-2.12.15-.79.37-1.6.65-2.42.28-.82.63-1.63,1.05-2.42.42-.79.89-1.51,1.42-2.17,1.09-1.37,2.15-2.33,3.19-2.89,1.04-.56,2-.84,2.86-.84ZM448.86,552.18c-1.34,0-2.93,1.51-4.8,4.52-.87,1.4-1.58,2.9-2.12,4.49-.54,1.6-.81,3.19-.81,4.77,0,.9.14,1.61.42,2.12.28.51.68.77,1.21.77.43,0,.92-.18,1.47-.54.54-.36,1.14-.95,1.79-1.79.53-.68,1.04-1.49,1.54-2.42.5-.93.94-1.89,1.33-2.89.39-.99.7-1.98.93-2.96.23-.98.35-1.87.35-2.68,0-.28,0-.61-.02-1-.02-.39-.06-.76-.14-1.12-.08-.36-.2-.66-.37-.91-.17-.25-.43-.37-.77-.37Z"/>
        <path class="cls-1" d="M482.21,540.45c0,1.02-.2,2.04-.61,3.05-.4,1.01-.94,1.99-1.61,2.93-.67.95-1.43,1.87-2.28,2.77-.85.9-1.72,1.75-2.58,2.56-.34.31-.82.71-1.42,1.19-.61.48-1.28.99-2.03,1.54-.75.54-1.5,1.09-2.26,1.63-.76.54-1.47,1.03-2.12,1.47-.65.44-1.2.81-1.65,1.12-.45.31-.72.48-.81.51-.16.16-.23.36-.23.61,0,1.18.21,2.24.63,3.17s.96,1.72,1.63,2.38c.67.65,1.41,1.16,2.21,1.51.81.36,1.6.54,2.38.54,1.71,0,3.34-.41,4.89-1.23,1.55-.82,2.93-1.87,4.12-3.14,1.19-1.27,2.14-2.69,2.84-4.24.7-1.55,1.05-3.07,1.05-4.56,0-.25-.02-.5-.05-.75-.03-.25-.12-.4-.28-.47-.12-.06-.33-.12-.61-.16-.28-.05-.75-.07-1.4-.07s-1.23.1-1.63.3c-.4.2-.71.44-.93.7-.22.26-.36.54-.42.82-.06.28-.09.5-.09.65,0,.4.11.82.33,1.26.22.44.39.78.51,1.02.03.19.02.36-.05.51-.12.19-.36.28-.7.28-.44,0-.86-.18-1.28-.54-.42-.36-.63-.77-.63-1.23,0-.53.18-1.04.54-1.54.36-.5.85-1.1,1.47-1.82,1.55-1.3,3.07-1.96,4.56-1.96.75,0,1.41.12,2,.35s1.1.51,1.54.84c.43.33.79.64,1.07.95.28.31.48.54.61.7.37.37.73.56,1.07.56.25,0,.46-.13.63-.4.17-.26.26-.61.26-1.05,0-.47-.09-.92-.26-1.37-.17-.45-.41-.89-.72-1.33-.16-.19-.19-.31-.09-.37.09-.06.22-.09.37-.09.28,0,.54.09.79.28.25.19.48.43.7.72.22.3.39.63.51,1s.19.75.19,1.12c0,.4-.07.75-.21,1.02-.14.28-.29.45-.44.51-.12.03-.33.1-.61.21-.28.11-.57.23-.88.35-.31.12-.61.25-.91.37-.29.12-.52.23-.67.33-.31.12-.53.11-.65-.05-.25-.5-.64-.98-1.16-1.44-.53-.47-1.01-.81-1.44-1.02-.16-.09-.23-.03-.23.19-.03,1.89-.42,3.8-1.17,5.71-.75,1.91-1.71,3.58-2.89,5.01-.81.96-1.65,1.78-2.54,2.45-.88.67-1.77,1.21-2.65,1.63s-1.74.72-2.56.91c-.82.19-1.58.28-2.26.28-1.77,0-3.22-.32-4.36-.95-1.13-.64-2.02-1.42-2.65-2.35-.64-.93-1.08-1.92-1.33-2.96-.25-1.04-.37-1.96-.37-2.77,0-1.58.34-3.24,1.02-4.98.68-1.74,1.72-3.26,3.12-4.56.25-.28.58-.59,1-.93.42-.34.86-.65,1.33-.93.47-.28.94-.51,1.42-.7s.91-.28,1.28-.28c.43,0,.89.33,1.37.98.48.65.82,1.49,1,2.52.03.16.11.17.23.05.62-.5,1.29-1.12,2-1.89.71-.76,1.37-1.58,1.98-2.45.61-.87,1.11-1.77,1.51-2.7.4-.93.61-1.85.61-2.75,0-.53-.07-.94-.21-1.23-.14-.29-.26-.55-.35-.77-.09-.28-.08-.54.05-.79.16-.19.37-.38.63-.58.26-.2.49-.3.68-.3.31,0,.58.23.81.7.23.47.35.96.35,1.49ZM470.1,549.67c-.56,0-1.15.22-1.77.65-.62.44-1.19,1.02-1.7,1.77s-.94,1.61-1.28,2.61c-.34.99-.54,2.05-.61,3.17,0,.06.02.13.05.21.03.08.11.09.23.02.28-.12.73-.4,1.35-.81.62-.42,1.26-.85,1.93-1.28.67-.43,1.26-.84,1.79-1.21.53-.37.84-.61.93-.7.5-.5.75-1.09.75-1.77,0-.19-.02-.43-.05-.75-.03-.31-.11-.61-.23-.89-.12-.28-.3-.52-.51-.72-.22-.2-.51-.3-.88-.3Z"/>
        <path class="cls-1" d="M528.18,568.86c-.44,0-.99.02-1.65.07-.67.05-1.34.07-2.03.07-.62,0-.94-.1-.95-.3-.02-.2.3-.35.95-.44.47-.06.87-.15,1.21-.26.34-.11.64-.31.91-.61.26-.29.48-.7.65-1.21.17-.51.33-1.19.49-2.03.09-.53.23-1.25.42-2.17.19-.92.4-1.96.63-3.12.23-1.16.48-2.39.75-3.68.26-1.29.52-2.56.77-3.82.25-1.26.48-2.44.7-3.54.22-1.1.4-2.04.56-2.82.06-.31.05-.5-.02-.58-.08-.08-.15-.08-.21-.02-.68.93-1.49,2.06-2.42,3.38-.93,1.32-1.9,2.7-2.91,4.15s-2,2.86-2.98,4.26-1.84,2.65-2.58,3.77c-.71,1.06-1.42,2.07-2.12,3.03-.7.96-1.42,2-2.17,3.12-.68.93-1.16,1.58-1.44,1.96s-.45.56-.51.56c-.25,0-.37-.26-.37-.79,0-.06-.02-.54-.07-1.44-.05-.9-.11-2.03-.19-3.4-.08-1.37-.16-2.89-.26-4.59-.09-1.69-.19-3.37-.3-5.03-.11-1.66-.22-3.23-.33-4.7-.11-1.47-.21-2.69-.3-3.66,0-.19-.02-.3-.05-.35-.03-.05-.07-.05-.12,0-.05.05-.09.11-.14.19-.05.08-.07.13-.07.16-.28.5-.64,1.21-1.09,2.14-.45.93-.95,1.97-1.49,3.12-.54,1.15-1.13,2.38-1.75,3.68-.62,1.3-1.23,2.6-1.82,3.89-.59,1.29-1.15,2.52-1.68,3.7-.53,1.18-.98,2.22-1.35,3.12-.34.75-.53,1.34-.56,1.79-.03.45.04.81.21,1.07.17.26.43.44.79.54.36.09.78.17,1.28.23.53.09.8.24.82.44.01.2-.29.3-.91.3-.65,0-1.26-.03-1.82-.09-.56-.06-1.18-.09-1.86-.09s-1.4.03-2.14.09c-.75.06-1.3.09-1.68.09-.47,0-.67-.09-.63-.28.05-.19.23-.31.54-.37.96-.16,1.8-.49,2.51-1,.71-.51,1.41-1.45,2.1-2.82.96-1.89,1.96-3.87,3-5.92,1.04-2.05,2.03-4.04,2.96-5.96.93-1.92,1.79-3.69,2.56-5.31.78-1.61,1.4-2.93,1.86-3.96.34-.81.39-1.37.14-1.68-.25-.31-.64-.51-1.17-.61-.25-.06-.53-.11-.84-.14-.31-.03-.64-.08-.98-.14-.71-.09-1.03-.23-.95-.42.08-.19.44-.28,1.09-.28.59,0,1.36.02,2.3.07s1.78.07,2.49.07c.19,0,.3.07.35.21.05.14.07.24.07.3,0,.47.04,1.27.12,2.4.08,1.13.18,2.45.3,3.94.12,1.49.26,3.07.4,4.75s.28,3.28.42,4.82c.14,1.54.26,2.92.35,4.15.09,1.23.17,2.14.23,2.72.03.34.2.34.51,0,.28-.4.68-.98,1.21-1.72.53-.75,1.14-1.61,1.84-2.58.7-.98,1.45-2.04,2.26-3.19.81-1.15,1.63-2.31,2.47-3.47.84-1.16,1.67-2.33,2.49-3.49.82-1.16,1.59-2.24,2.31-3.24.81-1.06,1.51-2.02,2.12-2.89.61-.87,1.05-1.55,1.33-2.05.16-.28.29-.46.42-.54.12-.08.33-.12.61-.12s.63,0,1.05-.02c.42-.02.84-.04,1.26-.07.42-.03.82-.05,1.19-.07.37-.02.65-.02.84-.02.34,0,.57.03.7.09.12.06.18.13.16.21-.02.08-.1.15-.26.21-.16.06-.33.11-.51.14-.84.09-1.5.22-1.98.37-.48.16-.86.37-1.14.65-.28.28-.49.64-.63,1.07-.14.44-.3.99-.49,1.68-.09.34-.23.99-.42,1.93-.19.95-.4,2.05-.65,3.31-.25,1.26-.5,2.61-.75,4.05-.25,1.44-.5,2.84-.75,4.19-.25,1.35-.47,2.58-.65,3.7-.19,1.12-.33,1.97-.42,2.56-.12.81-.18,1.44-.16,1.91s.12.84.3,1.12c.19.28.47.49.84.63.37.14.84.27,1.4.4.53.12.79.28.79.47s-.28.28-.84.28-1.27-.04-2.12-.12c-.85-.08-1.64-.12-2.35-.12Z"/>
        <path class="cls-1" d="M549.32,552.56c.12,0,.28.04.47.12.19.08.33.16.42.26.09.09.17.06.23-.09.28-.53.5-.88.67-1.05.17-.17.29-.26.35-.26.25,0,.54.12.88.37.16.09.17.34.05.75-.09.25-.33.87-.7,1.86-.37.99-.82,2.17-1.33,3.54-.51,1.37-1.05,2.82-1.61,4.35-.56,1.54-1.06,2.97-1.49,4.31-.06.22.03.33.28.33.62,0,1.3-.31,2.03-.93.73-.62,1.4-1.37,2.03-2.24.12-.12.23-.18.3-.16.08.02.1.1.07.26,0,.12-.08.34-.23.65-.25.5-.6,1.03-1.05,1.61-.45.57-.95,1.11-1.51,1.61-.56.5-1.15.91-1.77,1.23-.62.33-1.21.49-1.77.49-.25,0-.47-.05-.68-.14-.2-.09-.3-.25-.3-.47,0-.16.08-.47.26-.95.17-.48.39-1.06.65-1.75.26-.68.56-1.44.88-2.28s.64-1.68.96-2.51c.06-.12.07-.19.02-.21-.05-.02-.1,0-.16.07-2.64,2.92-4.8,5.02-6.47,6.31s-2.86,1.93-3.54,1.93c-.37,0-.7-.16-.98-.49-.28-.33-.42-.8-.42-1.42,0-.56.19-1.31.56-2.26.37-.95.92-1.95,1.63-3,.81-1.21,1.79-2.46,2.96-3.75,1.17-1.29,2.38-2.41,3.66-3.38.47-.34.94-.68,1.42-1,.48-.33.94-.61,1.37-.86.43-.25.81-.45,1.14-.61.33-.16.57-.23.72-.23ZM548.39,554.47c-.53,0-1.06.12-1.61.35-.54.23-1.08.54-1.61.91-.53.37-1.03.78-1.51,1.23-.48.45-.91.88-1.28,1.28-.5.53-.99,1.17-1.49,1.93-.5.76-.94,1.55-1.33,2.35-.39.81-.71,1.58-.96,2.31-.25.73-.37,1.31-.37,1.75,0,.16.04.33.12.54.08.2.24.3.49.3.43,0,.95-.19,1.56-.56s1.31-.92,2.12-1.63c1.52-1.4,2.91-2.99,4.17-4.77,1.26-1.79,2.2-3.61,2.82-5.47v-.23c-.09-.06-.24-.12-.44-.19-.2-.06-.43-.09-.68-.09Z"/>
        <path class="cls-1" d="M557.45,551.63c.62,0,1.14.23,1.56.7s.77,1.1,1.05,1.91c.34,1.02.54,2.14.61,3.35.06,1.21.09,2.51.09,3.91,0,.37,0,.8-.02,1.28-.02.48-.05.98-.09,1.49-.05.51-.1,1.02-.16,1.54-.06.51-.12.97-.19,1.37-.06.37-.04.55.07.54.11-.02.24-.15.4-.4.65-1.3,1.27-2.73,1.86-4.28.59-1.55,1.11-3.06,1.56-4.52.45-1.46.8-2.79,1.05-3.98.25-1.19.37-2.09.37-2.68,0-.06.04-.13.12-.21.08-.08.15-.12.21-.12.19,0,.35.06.49.19.14.12.26.28.35.47.09.19.15.37.19.56s.05.34.05.47c0,.71-.23,1.75-.7,3.12-.47,1.37-1.01,2.8-1.63,4.31-.62,1.51-1.25,2.93-1.89,4.28-.64,1.35-1.13,2.35-1.47,3-.5.93-.9,1.66-1.21,2.19-.31.53-.54.92-.7,1.16-.5.84-1.03,1.67-1.61,2.49-.58.82-1.17,1.61-1.77,2.35s-1.2,1.42-1.77,2.03c-.58.61-1.11,1.11-1.61,1.51-1.37,1.09-2.49,1.78-3.38,2.1-.88.31-1.62.47-2.21.47s-1.09-.16-1.49-.49c-.4-.33-.61-.8-.61-1.42,0-.53.16-.95.49-1.26.33-.31.61-.47.86-.47s.4.05.44.14c.05.09.1.31.16.65.12.34.33.65.61.93.28.28.68.42,1.21.42.84,0,1.65-.25,2.44-.75.79-.5,1.65-1.3,2.58-2.42.31-.37.64-.78,1-1.21.36-.44.73-.97,1.12-1.61.39-.64.79-1.41,1.21-2.33.42-.92.85-2.06,1.28-3.42.22-1.09.39-2.24.51-3.45.12-1.21.19-2.41.19-3.61s-.06-2.35-.19-3.47c-.12-1.12-.33-2.13-.61-3.03-.44-1.21-.95-1.82-1.54-1.82-.34,0-.64.12-.88.35-.25.23-.47.51-.65.84s-.33.64-.44.95c-.11.31-.18.54-.21.7-.12.53-.24.75-.35.68-.11-.08-.16-.32-.16-.72,0-.68.11-1.32.33-1.91.22-.59.5-1.09.84-1.51.34-.42.71-.75,1.09-1,.39-.25.77-.37,1.14-.37Z"/>
        <path class="cls-1" d="M584.4,551.63c.12,0,.22.04.28.12.06.08.09.23.07.47s-.09.55-.21.95c-.12.4-.31.93-.56,1.58-.65,1.68-1.32,3.42-2,5.24s-1.44,3.73-2.28,5.75c-.28.68-.23,1.02.14,1.02.31,0,.67-.13,1.07-.4.4-.26.79-.56,1.17-.89.37-.33.7-.64.98-.93.28-.29.45-.47.51-.54.34-.37.51-.45.51-.23s-.08.45-.23.7c-.37.68-.84,1.33-1.4,1.93-.56.61-1.13,1.14-1.7,1.61s-1.13.84-1.68,1.12c-.54.28-.99.42-1.33.42-.43,0-.65-.3-.65-.89,0-.25.02-.54.07-.86.05-.33.15-.68.3-1.05.19-.5.53-1.32,1.02-2.47.5-1.15,1.03-2.47,1.58-3.96.09-.31.12-.48.07-.51-.05-.03-.19.08-.44.33-.47.56-1.02,1.21-1.68,1.96-.65.75-1.35,1.49-2.1,2.24-.75.75-1.51,1.48-2.3,2.19-.79.71-1.54,1.34-2.26,1.86-.71.53-1.25.85-1.61.98-.36.12-.64.19-.86.19-.37,0-.62-.19-.75-.56-.31-.62-.22-1.69.28-3.21.28-.84.62-1.75,1.02-2.72.4-.98.82-1.96,1.23-2.96.42-.99.82-1.96,1.21-2.89.39-.93.72-1.77,1-2.52.06-.12.09-.24.09-.35s-.06-.16-.19-.16c-.34,0-.81.22-1.4.65-.59.44-1.2.95-1.82,1.54-.22.19-.37.3-.47.33-.09.03-.15.02-.16-.05-.02-.06,0-.16.07-.3.06-.14.14-.26.23-.35.25-.43.61-.91,1.07-1.42.47-.51.97-.99,1.51-1.44.54-.45,1.09-.82,1.63-1.12.54-.29,1-.44,1.37-.44.34,0,.56.21.65.63s0,1.05-.28,1.89c-.06.16-.21.51-.44,1.07-.23.56-.5,1.23-.82,2-.31.78-.66,1.62-1.05,2.54-.39.92-.76,1.82-1.12,2.7-.36.89-.7,1.72-1.03,2.52s-.58,1.45-.77,1.98c-.06.25-.06.45,0,.61.06.16.19.23.37.23.4,0,1.03-.3,1.89-.91.85-.61,2.04-1.73,3.56-3.38.75-.81,1.47-1.71,2.19-2.7.71-.99,1.4-1.99,2.05-2.98.65-.99,1.26-1.96,1.82-2.89.56-.93,1.04-1.75,1.44-2.47.12-.19.28-.36.47-.54.19-.17.39-.26.61-.26Z"/>
      </g>
      <g>
        <path class="cls-1" d="M304.34,331.33c0-.89,1.26-1.33,3.78-1.33,4.74,0,9.48-.03,14.23-.11,4.74-.07,9.41-.33,14-.78,2.96-.3,6.37-.63,10.22-1,3.85-.37,7.04-.56,9.56-.56,8.89,0,17.34.82,25.34,2.44,8,1.63,15.85,4.82,23.56,9.56,4.45,2.82,8.67,6.11,12.67,9.89,4,3.78,7.52,8.11,10.56,13,3.04,4.89,5.45,10.34,7.22,16.34,1.78,6,2.67,12.64,2.67,19.89,0,11.11-1.74,20.78-5.22,29.01-3.48,8.22-8,15.19-13.56,20.89-5.56,5.71-11.82,10.3-18.78,13.78-6.97,3.48-13.93,6.11-20.89,7.89-2.97.74-6.37,1.22-10.22,1.44-3.86.22-7.26.33-10.22.33-2.52,0-5.15-.08-7.89-.22-2.74-.15-5.67-.37-8.78-.67-3.41-.3-6.67-.56-9.78-.78-3.11-.22-6.37-.33-9.78-.33-2.97,0-5.97.07-9,.22-3.04.15-5.15.22-6.33.22-2.82,0-4.22-.59-4.22-1.78,0-.89,1.26-1.41,3.78-1.56,4-.74,6.67-1.85,8-3.33,1.33-1.48,2.15-4.37,2.44-8.67.15-1.33.3-3.56.45-6.67.15-3.11.26-6.7.33-10.78.07-4.07.11-8.45.11-13.11v-13.89c0-9.93-.04-18.63-.11-26.12-.08-7.48-.15-13.89-.22-19.23-.08-5.33-.19-9.67-.33-13-.15-3.33-.3-5.81-.44-7.45-.15-1.92-.33-3.56-.56-4.89-.22-1.33-.71-2.44-1.45-3.33-.74-.89-1.74-1.59-3-2.11-1.26-.52-2.93-1-5-1.44-2.08-.29-3.11-.89-3.11-1.78ZM352.57,331.33c-2.97,0-5.82.26-8.56.78-2.74.52-4.71,1-5.89,1.44-.45.15-.97.67-1.56,1.56-.59.89-.89,2.37-.89,4.45-.15,1.93-.26,3.97-.33,6.11-.08,2.15-.15,5.19-.22,9.11-.08,3.93-.11,9.08-.11,15.45v24.9c0,11.56.15,21.04.44,28.45.3,7.41.59,13.86.89,19.34.44,5.78,1.15,10.15,2.11,13.11.96,2.97,2.85,5.48,5.67,7.56,1.63,1.19,4,2.3,7.11,3.33,3.11,1.04,6.74,1.56,10.89,1.56,9.78,0,17.93-1.78,24.45-5.33,3.41-1.78,7-4.26,10.78-7.45,3.78-3.18,7.26-7.19,10.45-12,3.18-4.81,5.81-10.63,7.89-17.45,2.07-6.81,3.11-14.82,3.11-24.01,0-10.22-1.63-19.93-4.89-29.12-3.26-9.19-8.45-17.04-15.56-23.56-6.22-5.63-12.86-10.08-19.89-13.34-7.04-3.26-15.67-4.89-25.9-4.89Z"/>
        <path class="cls-1" d="M506.88,326.67c.59,0,1.11.74,1.56,2.22.29,2.52.96,5.26,2,8.22,1.04,2.97,2.3,6.37,3.78,10.22,3.85,10.37,7.52,20.08,11,29.12,3.48,9.04,6.89,17.75,10.22,26.12,3.33,8.37,6.67,16.45,10,24.23,3.33,7.78,6.7,15.6,10.11,23.45,1.33,3.26,2.52,5.89,3.56,7.89,1.04,2,2.07,3.59,3.11,4.78,1.04,1.19,2.07,2.04,3.11,2.56,1.04.52,2.22.93,3.56,1.22,2.52.44,3.78,1.11,3.78,2,0,.59-.41,1-1.22,1.22-.82.22-1.74.33-2.78.33-2.08,0-4.37-.11-6.89-.33-2.52-.22-6.67-.33-12.45-.33-4.15,0-8.19.15-12.11.44-3.93.3-7.22.44-9.89.44-2.52,0-3.78-.52-3.78-1.56,0-.44.41-.85,1.22-1.22.81-.37,1.81-.63,3-.78,4.45-.74,7.26-1.96,8.45-3.67,1.18-1.7,1.7-3.81,1.56-6.33-.15-.89-.67-2.74-1.56-5.56-.89-2.81-2.08-6.19-3.56-10.11-1.48-3.92-3.11-8.26-4.89-13-1.78-4.74-3.63-9.56-5.56-14.45-.74-1.78-1.71-2.67-2.89-2.67-2.08.15-5.19.26-9.34.33-4.15.08-8.37.11-12.67.11h-19.34c-.59,0-1.19.48-1.78,1.45-.59.96-1.11,1.89-1.56,2.78-.45,1.19-1.19,3.04-2.22,5.56-1.04,2.52-2.11,5.3-3.22,8.34-1.11,3.04-2.22,6.19-3.33,9.45-1.11,3.26-2.04,6.22-2.78,8.89-1.19,4.3-1.78,7.6-1.78,9.89s.59,4.04,1.78,5.22c1.04,1.04,2.3,1.82,3.78,2.33,1.48.52,3.33,1,5.56,1.45,2.22.74,3.33,1.48,3.33,2.22,0,.59-.45,1-1.33,1.22-.89.22-1.93.33-3.11.33-2.08,0-5.15-.19-9.22-.56-4.08-.37-8.11-.56-12.11-.56-2.82,0-5.37.18-7.67.56-2.3.37-4.78.56-7.45.56-2.52,0-3.78-.52-3.78-1.56,0-.59.44-1,1.33-1.22.89-.22,1.92-.48,3.11-.78,2.52-.44,4.63-1,6.33-1.67,1.7-.67,3.26-1.78,4.67-3.33,1.41-1.56,2.85-3.7,4.33-6.45,1.48-2.74,3.26-6.48,5.33-11.22,1.63-3.41,3.96-8.78,7-16.12,3.04-7.33,6.37-15.48,10-24.45,3.63-8.96,7.37-18.3,11.22-28.01,3.85-9.7,7.41-18.71,10.67-27.01.59-1.48.96-2.67,1.11-3.56.15-.89.22-1.78.22-2.67,0-.44.03-.92.11-1.44.07-.52.26-.85.56-1,1.18-.89,2.7-2.37,4.56-4.45,1.85-2.07,3-4.37,3.45-6.89.3-.59.52-1.11.67-1.56.15-.44.52-.67,1.11-.67ZM517.32,404.02c.44-.29.44-1.03,0-2.22-4.45-12.59-8.19-22.6-11.22-30.01-3.04-7.41-5.37-13.04-7-16.89-.3-.89-.59-1.22-.89-1-.3.22-.59.71-.89,1.44-1.33,3.11-2.85,6.93-4.56,11.45-1.71,4.52-3.41,9.04-5.11,13.56-1.71,4.52-3.26,8.82-4.67,12.89-1.41,4.08-2.48,7.22-3.22,9.45-.15.3-.19.71-.11,1.22.07.52.33.78.78.78,2.07.15,4.56.22,7.45.22h10.11c3.85,0,7.74-.04,11.67-.11,3.92-.07,6.48-.33,7.67-.78Z"/>
        <path class="cls-1" d="M558.78,330.44c0-.74.33-1.15,1-1.22.67-.07,1.74-.11,3.22-.11,2.07,0,5.33.19,9.78.56,4.45.37,8.37.56,11.78.56s6.96-.11,10.22-.33c3.26-.22,5.85-.33,7.78-.33,2.37,0,3.56.44,3.56,1.33,0,1.04-1.19,1.78-3.56,2.22-2.67.59-4.45,1.22-5.33,1.89-.89.67-1.33,1.37-1.33,2.11,0,1.48,1.26,4.3,3.78,8.45,1.04,1.78,2.85,4.93,5.45,9.45,2.59,4.52,5.41,9.34,8.45,14.45,3.04,5.11,5.96,9.97,8.78,14.56,2.81,4.59,4.89,7.78,6.22,9.56.29.15.74.37,1.33.67.59.3,1.03.15,1.33-.44,1.92-3.11,4.15-6.78,6.67-11,2.52-4.22,5.07-8.41,7.67-12.56,2.59-4.15,4.96-8.04,7.11-11.67,2.15-3.63,3.81-6.48,5-8.56,1.92-3.11,3.26-5.56,4-7.34.74-1.78,1.11-3.26,1.11-4.45,0-2.67-2.74-4.52-8.22-5.56-.89-.3-1.74-.59-2.56-.89-.82-.3-1.22-.74-1.22-1.33,0-.74,1.18-1.11,3.56-1.11,3.11,0,5.78.15,8,.44,2.22.3,4.89.44,8,.44,2.67,0,5.56-.18,8.67-.56,3.11-.37,5.48-.56,7.11-.56,2.67,0,4,.44,4,1.33,0,1.04-1.63,1.78-4.89,2.22-4,.74-7.19,2.08-9.56,4-2.37,1.93-4.67,4.37-6.89,7.33-2.97,3.71-6.04,8-9.22,12.89-3.19,4.89-6.3,9.78-9.34,14.67-3.04,4.89-5.86,9.52-8.45,13.89-2.59,4.37-4.71,7.89-6.33,10.56-.89,1.63-1.59,3.22-2.11,4.78-.52,1.56-.85,2.85-1,3.89-.3,3.56-.44,8.22-.44,14v24.56c0,2.45.15,5.59.44,9.45.15,5.19.85,8.71,2.11,10.56,1.26,1.85,3.81,3.15,7.67,3.89,3.11.44,4.67,1.19,4.67,2.22,0,.59-.44.96-1.33,1.11-.89.15-1.78.22-2.67.22-2.22,0-4.19-.08-5.89-.22-1.71-.15-3.37-.26-5-.33-1.63-.08-3.26-.19-4.89-.33-1.63-.15-3.48-.22-5.56-.22-3.85,0-7.04.15-9.56.44-2.52.3-5.33.44-8.45.44s-4.67-.59-4.67-1.78c0-.45.48-.81,1.44-1.11.96-.29,2.11-.59,3.45-.89,2.22-.29,4-.67,5.33-1.11s2.41-1.11,3.22-2c.81-.89,1.37-2.04,1.67-3.45.3-1.41.52-3.22.67-5.45.15-1.04.26-2.7.33-5,.07-2.3.15-4.78.22-7.45.07-2.67.15-5.45.22-8.34.07-2.89.11-5.52.11-7.89v-8.56c0-2.3-.04-4.22-.11-5.78-.08-1.56-.15-2.81-.22-3.78-.08-.96-.11-1.81-.11-2.56-.15-.89-.37-1.81-.67-2.78-.3-.96-.59-1.67-.89-2.11-1.78-3.26-4.19-7.48-7.22-12.67-3.04-5.19-6.11-10.41-9.22-15.67-3.11-5.26-6.11-10.19-9-14.78-2.89-4.59-5.15-8-6.78-10.23-3.56-4.89-6.59-8.34-9.11-10.34-2.52-2-5.41-3.37-8.67-4.11-1.78-.3-3-.67-3.67-1.11-.67-.44-1-.81-1-1.11Z"/>
      </g>
    </g>
  </g>
</svg>